<svg width="100" height="200" viewBox="0 0 100 200" fill="none" xmlns="http://www.w3.org/2000/svg">
<path fill-rule="evenodd" clip-rule="evenodd" d="M49.9999 167.818C60.0942 167.818 68.2768 159.841 68.2768 150C68.2768 140.159 60.0942 132.182 49.9999 132.182C39.9059 132.182 31.723 140.159 31.723 150C31.723 159.841 39.9059 167.818 49.9999 167.818ZM49.9999 163.364C57.5706 163.364 63.7076 157.381 63.7076 150C63.7076 142.619 57.5706 136.636 49.9999 136.636C42.4295 136.636 36.2923 142.619 36.2923 150C36.2923 157.381 42.4295 163.364 49.9999 163.364Z" fill="#2467FF"/>
<path fill-rule="evenodd" clip-rule="evenodd" d="M64.2467 104.853L66.084 117.99C67.579 118.705 69.0165 119.517 70.3882 120.417L82.982 115.398C85.0971 114.555 87.5256 115.365 88.6684 117.294L98.3876 133.706C99.5299 135.635 99.0351 138.09 97.2289 139.455L86.471 147.579C86.5259 148.379 86.5537 149.187 86.5537 150C86.5537 150.813 86.5259 151.621 86.471 152.421L97.2289 160.545C99.0351 161.91 99.5299 164.365 98.3876 166.294L88.6684 182.706C87.5256 184.635 85.0971 185.445 82.982 184.602L70.3882 179.583C69.0165 180.483 67.579 181.295 66.084 182.01L64.2467 195.147C63.9378 197.354 62.0041 199 59.719 199H40.2807C37.9957 199 36.0621 197.354 35.7533 195.147L33.9158 182.01C32.4208 181.295 30.9833 180.483 29.6117 179.583L17.0179 184.602C14.9028 185.445 12.4742 184.635 11.3317 182.706L1.61251 166.294C0.47002 164.365 0.964915 161.91 2.77123 160.545L13.5291 152.421C13.474 151.621 13.4461 150.813 13.4461 150C13.4461 149.187 13.474 148.379 13.5291 147.579L2.77123 139.455C0.964915 138.09 0.47002 135.635 1.61247 133.706L11.3317 117.294C12.4742 115.365 14.9028 114.555 17.0179 115.398L29.6117 120.417C30.9833 119.517 32.4208 118.705 33.9158 117.99L35.7533 104.853C36.0621 102.646 37.9957 101 40.2807 101H59.719C62.0041 101 63.9378 102.646 64.2467 104.853Z" fill="#2467FF"/>
<path fill-rule="evenodd" clip-rule="evenodd" d="M49.9999 67.8182C60.0942 67.8182 68.2768 59.8405 68.2768 50C68.2768 40.1593 60.0942 32.1818 49.9999 32.1818C39.9059 32.1818 31.723 40.1593 31.723 50C31.723 59.8405 39.9059 67.8182 49.9999 67.8182ZM49.9999 63.3636C57.5706 63.3636 63.7076 57.3807 63.7076 50C63.7076 42.6193 57.5706 36.6364 49.9999 36.6364C42.4295 36.6364 36.2923 42.6193 36.2923 50C36.2923 57.3807 42.4295 63.3636 49.9999 63.3636Z" fill="white"/>
<path fill-rule="evenodd" clip-rule="evenodd" d="M64.2467 4.85269L66.084 17.9899C67.579 18.7052 69.0165 19.5171 70.3882 20.4173L82.982 15.3981C85.0971 14.5552 87.5256 15.365 88.6684 17.2941L98.3876 33.7059C99.5299 35.635 99.0351 38.0903 97.2289 39.4546L86.471 47.5794C86.5259 48.3794 86.5537 49.1866 86.5537 50C86.5537 50.8134 86.5259 51.6206 86.471 52.4206L97.2289 60.5452C99.0351 61.9097 99.5299 64.365 98.3876 66.2943L88.6684 82.7057C87.5256 84.635 85.0971 85.4448 82.982 84.602L70.3882 79.5826C69.0165 80.4829 67.579 81.295 66.084 82.0099L64.2467 95.1473C63.9378 97.3545 62.0041 99 59.719 99H40.2807C37.9957 99 36.0621 97.3545 35.7534 95.1473L33.9158 82.0099C32.4208 81.295 30.9833 80.4829 29.6117 79.5826L17.0179 84.602C14.9028 85.4448 12.4742 84.635 11.3317 82.7057L1.61251 66.2943C0.47002 64.365 0.964915 61.9097 2.77123 60.5452L13.5291 52.4206C13.474 51.6206 13.4461 50.8134 13.4461 50C13.4461 49.1866 13.474 48.3794 13.5291 47.5794L2.77123 39.4546C0.964915 38.0903 0.47002 35.635 1.61247 33.7059L11.3317 17.2941C12.4742 15.365 14.9028 14.5552 17.0179 15.3981L29.6117 20.4173C30.9833 19.5171 32.4208 18.7052 33.9158 17.9899L35.7534 4.85269C36.0621 2.64551 37.9957 1 40.2807 1H59.719C62.0041 1 63.9378 2.64551 64.2467 4.85269ZM61.8858 20.9432L64.0712 21.9888C65.3785 22.6143 66.6359 23.3246 67.8363 24.1125L69.8595 25.4404L84.711 19.5214L94.4307 35.9331L81.7492 45.5107L81.9118 47.8779C81.9603 48.5786 81.9845 49.2859 81.9845 50C81.9845 50.7141 81.9603 51.4214 81.9118 52.1226L81.7492 54.4893L94.4307 64.067L84.711 80.4784L69.8595 74.5597L67.8363 75.8876C66.6359 76.6756 65.3785 77.3857 64.0712 78.0111L61.8858 79.057L59.719 94.5455H40.2807L38.1142 79.0566L35.9289 78.0111C34.6216 77.3857 33.3639 76.6756 32.1635 75.8876L30.1403 74.5597L15.2889 80.4784L5.56957 64.067L18.2509 54.4893L18.0881 52.1226C18.0398 51.4214 18.0153 50.7141 18.0153 50C18.0153 49.2859 18.0398 48.5786 18.0881 47.8774L18.2509 45.5107L5.56957 35.9331L15.2889 19.5214L30.1403 25.4403L32.1635 24.1125C33.3639 23.3246 34.6216 22.6143 35.9289 21.9888L38.1142 20.9432L40.2807 5.45455H59.719L61.8858 20.9432Z" fill="white"/>
<circle cx="50" cy="150" r="18" fill="#1C1C1C"/>
</svg>
