<svg width="55" height="35" viewBox="0 0 55 35" fill="none" xmlns="http://www.w3.org/2000/svg">
<g id="Component 11">
<rect id="Rectangle 884" width="55" height="35" rx="10" fill="#FF5567"/>
<path id="Vector" d="M27.6543 17.4136C27.8614 17.3867 28.013 17.3505 28.1646 17.3503C31.3245 17.3471 34.4851 17.3475 37.6457 17.3478C38.4245 17.3478 38.7274 17.5351 38.7197 18.01C38.712 18.4734 38.4181 18.6534 37.6638 18.6535C34.491 18.6538 31.3174 18.6549 28.1445 18.6509C27.9944 18.6511 27.8443 18.6152 27.6935 18.5958C27.6465 18.6269 27.5996 18.658 27.5512 18.6891C27.585 18.8384 27.649 18.9878 27.6496 19.1372C27.655 22.336 27.6539 25.5342 27.6535 28.733C27.6535 29.4107 27.4584 29.704 27.0051 29.7073C26.5526 29.7114 26.3479 29.4114 26.3478 28.7408C26.3475 25.5297 26.3479 22.3179 26.3476 19.1068C26.347 18.9689 26.3407 18.8311 26.3337 18.5424C26.1655 18.5822 26.016 18.6481 25.8666 18.6489C22.6808 18.6551 19.4949 18.654 16.3091 18.6544C15.575 18.6544 15.2663 18.457 15.2726 17.9921C15.2795 17.5324 15.58 17.3487 16.3285 17.3487C19.5143 17.3483 22.7002 17.348 25.886 17.3505C26.0246 17.3503 26.1631 17.3819 26.3356 17.4027C26.3409 17.1725 26.3476 17.023 26.347 16.8751C26.3502 13.7022 26.3499 10.5286 26.3509 7.35505C26.351 7.26555 26.349 7.17677 26.3519 7.08727C26.3633 6.57986 26.5844 6.30392 26.9886 6.29341C27.4051 6.28215 27.6538 6.56988 27.6547 7.09677C27.6588 9.44177 27.6564 11.786 27.6562 14.1311C27.6558 15.187 27.6555 16.2429 27.655 17.4143L27.6543 17.4136Z" fill="white"/>
</g>
</svg>
