<svg width="33" height="27" viewBox="0 0 33 27" fill="none" xmlns="http://www.w3.org/2000/svg">
<g id="Vector">
<path fill-rule="evenodd" clip-rule="evenodd" d="M18 6C18 9.31371 15.3137 12 12 12C8.68629 12 6 9.31371 6 6C6 2.68629 8.68629 0 12 0C15.3137 0 18 2.68629 18 6ZM16.5 6C16.5 8.48529 14.4853 10.5 12 10.5C9.51472 10.5 7.5 8.48529 7.5 6C7.5 3.51473 9.51472 1.5 12 1.5C14.4853 1.5 16.5 3.51473 16.5 6Z" fill="white"/>
<path fill-rule="evenodd" clip-rule="evenodd" d="M24 21.2499C24 20.5999 23.7963 19.9611 23.3722 19.4685C20.6215 16.2732 16.5469 14.25 12 14.25C7.45299 14.25 3.37852 16.2732 0.627705 19.4685C0.20364 19.9611 0 20.5999 0 21.2499V24C0 25.6569 1.34314 27 3 27H21C22.6569 27 24 25.6569 24 24V21.2499ZM21 25.5C21.8284 25.5 22.5 24.8284 22.5 24V21.2499C22.5 20.905 22.3921 20.629 22.2355 20.4471C19.7575 17.5687 16.092 15.75 12 15.75C7.90803 15.75 4.2425 17.5687 1.76448 20.4471C1.60779 20.629 1.5 20.905 1.5 21.2499V24C1.5 24.8284 2.17158 25.5 3 25.5H21Z" fill="white"/>
<path d="M27 15C26.5858 15 26.25 14.6642 26.25 14.25V9.75H21.75C21.3358 9.75 21 9.41421 21 9C21 8.58579 21.3358 8.25 21.75 8.25H26.25V3.75C26.25 3.33579 26.5858 3 27 3C27.4142 3 27.75 3.33579 27.75 3.75V8.25H32.25C32.6642 8.25 33 8.58579 33 9C33 9.41421 32.6642 9.75 32.25 9.75H27.75V14.25C27.75 14.6642 27.4142 15 27 15Z" fill="white"/>
</g>
</svg>
