<svg width="30" height="33" viewBox="0 0 30 33" fill="none" xmlns="http://www.w3.org/2000/svg">
<g id="Capa_1" clip-path="url(#clip0_2119_2586)">
<path id="Vector" d="M21.5481 28.8827C21.7646 28.8827 21.8912 28.8827 22.0178 28.8827C23.8624 28.8827 25.707 28.8827 27.5507 28.8827C28.1496 28.8827 28.3382 29.1085 28.2814 29.78C28.2116 30.6174 27.8179 31.2437 27.2268 31.7248C26.3739 32.4189 25.3927 32.7379 24.367 32.8862C23.817 32.9657 23.2583 32.9932 22.7031 32.9932C16.9519 33.0011 11.1998 32.9971 5.44858 32.9981C4.0684 32.9981 2.72925 32.7861 1.49747 32.0321C0.726629 31.5599 0.158318 30.9001 0.0195139 29.8752C-0.0730221 29.1919 0.160937 28.8827 0.777262 28.8817C2.43593 28.8807 4.09546 28.8817 5.75413 28.8817H6.10245C5.51144 28.1552 4.9117 27.4975 4.3914 26.767C2.76853 24.4884 1.84317 21.8839 1.62755 18.9731C1.57953 18.3271 1.57167 17.6772 1.56993 17.0282C1.56731 16.0259 2.18014 15.319 3.07146 15.2651C3.14741 15.2601 3.22423 15.2621 3.30018 15.2621C10.3399 15.2621 17.3787 15.2621 24.4185 15.2651C24.6245 15.2651 24.8358 15.2817 25.0348 15.3348C25.6267 15.4918 26.0789 16.0828 26.1339 16.772C26.1566 17.0606 26.1374 17.3542 26.1374 17.5878C26.7092 17.6281 27.2399 17.5947 27.7428 17.7115C29.5725 18.1386 30.4752 20.1639 29.7445 22.1441C29.3499 23.2151 28.6533 24.029 27.8825 24.7604C26.4359 26.1338 24.7834 27.0665 22.9536 27.6143C22.7659 27.6702 22.5835 27.8038 22.4324 27.9471C22.1496 28.2141 21.8912 28.5135 21.5455 28.8807L21.5481 28.8827ZM13.8833 16.4392H12.7048C9.56294 16.4392 6.42021 16.4392 3.27835 16.4392C2.76155 16.4392 2.60005 16.6051 2.61925 17.1794C2.64719 18.0227 2.64108 18.8749 2.75631 19.7045C3.28534 23.5175 4.9859 26.5255 7.80214 28.7354C7.91738 28.8257 8.08324 28.8758 8.22554 28.8758C11.9785 28.8837 15.7323 28.8837 19.4852 28.8748C19.6459 28.8748 19.8371 28.81 19.9628 28.7011C20.497 28.2377 21.0505 27.79 21.528 27.2579C23.9959 24.51 25.1631 21.1613 25.1107 17.2668C25.1011 16.5688 24.9903 16.4382 24.3582 16.4382C20.8672 16.4382 17.3753 16.4382 13.8842 16.4382L13.8833 16.4392ZM27.1247 30.0853H1.15963C1.42676 30.6665 1.85627 30.9649 2.3268 31.1976C3.32375 31.6904 4.37918 31.8249 5.45731 31.8249C11.2495 31.823 17.0418 31.8249 22.8349 31.822C23.1509 31.822 23.4687 31.8181 23.7829 31.7866C24.6568 31.6983 25.5088 31.5029 26.2866 31.0209C26.6306 30.8079 26.9396 30.5457 27.1247 30.0863V30.0853ZM26.0894 19.4404C26.5424 19.4404 27.0007 19.3805 27.4425 19.4541C28.1819 19.5768 28.6131 20.3887 28.3705 21.1898C28.2474 21.5982 28.0614 22.0066 27.8231 22.3424C26.9859 23.5254 25.8851 24.3471 24.6873 24.9921C24.2622 25.2218 24.0928 25.6086 23.8344 26.073C25.5175 25.317 26.9711 24.3353 28.1138 22.847C28.3739 22.5083 28.6044 22.1195 28.765 21.7121C29.1919 20.6322 28.8567 19.4934 28.0021 19.0339C27.5394 18.7846 27.0374 18.7335 26.5311 18.8062C26.0693 18.8719 26.0518 18.9073 26.0894 19.4404ZM25.1972 23.3349C25.9139 22.8067 26.5721 22.2501 27.0811 21.503C27.1972 21.3331 27.2792 21.127 27.3482 20.9247C27.4145 20.7294 27.3464 20.5625 27.1422 20.5821C26.7563 20.6184 26.3713 20.6803 25.989 20.752C25.9252 20.7637 25.8475 20.8668 25.8266 20.9444C25.6153 21.7229 25.4145 22.5053 25.198 23.3349H25.1972Z" fill="white"/>
<path id="Vector_2" d="M13.7534 0.529791C13.6452 0.774242 13.5788 0.952918 13.4915 1.11687C13.1354 1.78248 12.8324 2.46675 12.7556 3.2541C12.6727 4.10527 12.9093 4.8288 13.4523 5.41588C13.8128 5.80563 14.2004 6.16592 14.5819 6.53211C15.3527 7.27136 15.9228 8.13725 16.0127 9.31631C16.0729 10.1046 15.9359 10.8586 15.6443 11.5664C15.4121 12.13 15.1301 12.6699 14.8438 13.203C14.6421 13.579 14.3366 13.6615 14.0703 13.4661C13.8049 13.2717 13.7595 12.9261 13.9699 12.5658C14.4204 11.7942 14.8255 11.0039 14.9486 10.0683C15.0507 9.29275 14.897 8.59179 14.4221 8.02729C14.0276 7.55704 13.5841 7.13588 13.1432 6.71766C12.1393 5.76636 11.5579 4.6138 11.7176 3.09113C11.8285 2.03086 12.231 1.10116 12.7626 0.235271C12.904 0.00456328 13.1406 -0.0602312 13.3449 0.0575769C13.5064 0.150842 13.6146 0.360933 13.7543 0.528809L13.7534 0.529791Z" fill="white"/>
<path id="Vector_3" d="M9.85324 1.72461C10.343 1.73541 10.5647 2.20664 10.3578 2.63566C10.2234 2.91447 10.0619 3.17856 9.94054 3.46522C9.40976 4.71792 9.57738 5.56613 10.5167 6.45362C10.817 6.73734 11.1304 7.00536 11.4167 7.30478C12.322 8.25118 12.6005 9.4106 12.1911 10.7104C11.9833 11.3692 11.6428 11.9798 11.3303 12.5914C11.1549 12.935 10.8257 12.9929 10.5734 12.7917C10.3299 12.5973 10.2793 12.2714 10.4696 11.9494C10.8257 11.3456 11.1592 10.7359 11.2823 10.0065C11.3932 9.35072 11.2422 8.78524 10.8336 8.32284C10.535 7.98513 10.2007 7.68766 9.87244 7.3843C9.19326 6.75796 8.67559 6.02362 8.61011 4.99476C8.53504 3.81767 8.9628 2.82611 9.56166 1.91114C9.63499 1.79922 9.79649 1.75995 9.85411 1.72461H9.85324Z" fill="white"/>
<path id="Vector_4" d="M19.1244 8.71925C19.0912 9.7432 18.6321 10.7318 18.0131 11.6389C17.8385 11.8942 17.5705 11.904 17.3357 11.7194C17.1122 11.5437 17.0581 11.2865 17.1681 11.0047C17.2152 10.883 17.2981 10.7789 17.3566 10.6621C17.5277 10.3214 17.7233 9.99158 17.8569 9.63324C18.2837 8.48953 18.1179 7.73064 17.2851 6.91384C16.9891 6.62423 16.6757 6.3572 16.3815 6.06464C15.3889 5.078 15.1262 3.85672 15.5513 2.4715C15.7128 1.94627 15.9808 1.45835 16.2314 0.973371C16.3972 0.651362 16.7159 0.580677 16.9629 0.754444C17.2239 0.937046 17.2606 1.26495 17.0974 1.62328C16.88 2.09942 16.639 2.57163 16.4924 3.07723C16.2768 3.82433 16.4435 4.51252 16.9603 5.0564C17.3025 5.41572 17.6744 5.73871 18.0306 6.08133C18.7071 6.73418 19.127 7.53135 19.1235 8.71827L19.1244 8.71925Z" fill="white"/>
</g>
<defs>
<clipPath id="clip0_2119_2586">
<rect width="30" height="33" fill="white"/>
</clipPath>
</defs>
</svg>
