<svg width="19" height="33" viewBox="0 0 19 33" fill="none" xmlns="http://www.w3.org/2000/svg">
<g id="Capa_1">
<g clip-path="url(#clip0_2119_2591)">
<path id="Vector" d="M18.1675 8.84801C18.0076 9.51175 18.2141 10.0695 18.6035 10.6877C19.5696 12.2234 18.6821 14.2574 16.9373 14.698C16.6695 14.7659 16.5324 14.87 16.4456 15.1591C14.8278 20.5527 13.1963 25.9425 11.5649 31.3323C11.2459 32.3856 10.4836 32.9973 9.50564 33.001C8.51488 33.0047 7.74713 32.3912 7.42266 31.3184C5.78754 25.9174 4.15332 20.5164 2.53008 15.1126C2.45513 14.8644 2.34088 14.7714 2.10599 14.7147C0.0577388 14.2155 -0.681678 11.7493 0.722209 10.1532C0.824575 10.037 0.890383 9.82874 0.876673 9.67257C0.458066 4.94739 3.68262 0.772544 8.28912 0.0911443C13.0117 -0.607918 17.419 2.79164 18.0615 7.63302C18.1136 8.02252 18.13 8.4176 18.1666 8.84894L18.1675 8.84801ZM17.2069 8.78108C17.1713 8.39065 17.1475 7.98534 17.0954 7.58468C16.5351 3.31408 12.2668 0.225937 8.11089 1.08024C3.95499 1.93455 1.34189 5.64553 1.89029 9.91984C1.92867 10.2201 1.86744 10.4441 1.62157 10.6496C0.830973 11.3115 0.73409 12.4093 1.37388 13.1874C1.99083 13.9385 3.06111 14.024 3.85536 13.3863C4.23375 13.0814 4.46042 13.1149 4.72914 13.5155C5.33694 14.4228 6.32222 14.6896 7.27185 14.1802C7.54057 14.0361 7.74987 14.0594 7.99756 14.2248C8.99655 14.8914 10.0074 14.8886 11.0037 14.2193C11.2541 14.051 11.4634 14.0436 11.7294 14.1867C12.6589 14.6859 13.657 14.4191 14.2492 13.536C14.5326 13.113 14.7529 13.0777 15.144 13.3938C15.9292 14.0278 17.0077 13.9339 17.6228 13.1772C18.2479 12.4093 18.1556 11.3124 17.3833 10.6635C17.1274 10.4488 17.0579 10.2192 17.1009 9.90497C17.1502 9.53871 17.1713 9.16779 17.206 8.78201L17.2069 8.78108ZM11.5841 27.3769C10.9004 26.9111 10.2524 26.4677 9.59978 26.0299C9.55408 25.9992 9.45994 25.9871 9.41881 26.0141C8.75708 26.4575 8.09993 26.9083 7.41352 27.3778C8.08439 27.837 8.71321 28.2721 9.34935 28.6941C9.41699 28.7387 9.55682 28.7508 9.61898 28.7099C10.2643 28.2832 10.9013 27.8426 11.5831 27.3769H11.5841ZM11.5822 19.3293C10.8995 18.8617 10.2524 18.4155 9.59978 17.9786C9.54951 17.9451 9.43801 17.9498 9.38591 17.9851C8.73606 18.4211 8.0917 18.8663 7.41626 19.3302C8.08805 19.7894 8.71778 20.2245 9.35575 20.6484C9.42155 20.6921 9.55865 20.7032 9.61989 20.6623C10.2679 20.2338 10.9068 19.7922 11.5822 19.3302V19.3293ZM9.49833 21.9275C8.7973 22.4063 8.11912 22.8702 7.41352 23.3526C8.08713 23.8146 8.72692 24.2581 9.37494 24.6875C9.43709 24.7284 9.57602 24.7163 9.64274 24.6727C10.2816 24.2488 10.9123 23.8137 11.5831 23.3545C10.8775 22.8711 10.2003 22.4081 9.49833 21.9285V21.9275ZM14.5289 17.3158C13.8507 16.8528 13.2128 16.4103 12.5657 15.9827C12.5035 15.9418 12.3646 15.9539 12.2979 15.9985C11.6599 16.4224 11.0293 16.8584 10.3593 17.3167C11.0329 17.7769 11.6809 18.2231 12.3344 18.66C12.3847 18.6934 12.4935 18.6981 12.5428 18.6656C13.1972 18.2286 13.8462 17.7824 14.5289 17.3158ZM4.46956 17.3158C5.15414 17.7843 5.81221 18.2361 6.47394 18.6804C6.51507 18.7083 6.60921 18.699 6.654 18.6683C7.3075 18.2296 7.95643 17.7834 8.63735 17.3186C7.96009 16.8547 7.32304 16.4122 6.67593 15.9836C6.61287 15.9418 6.47303 15.953 6.40631 15.9976C5.76834 16.4215 5.13769 16.8575 4.46865 17.3148L4.46956 17.3158ZM5.24737 20.8102C5.37167 21.2229 5.47952 21.5994 5.60108 21.9703C5.63124 22.0623 5.68882 22.1609 5.76103 22.2213C6.23752 22.6229 6.73229 22.647 7.24535 22.2938C7.35868 22.2166 7.47202 22.1395 7.58444 22.0614C7.92444 21.8271 8.26445 21.5929 8.63461 21.3391C7.95643 20.8752 7.32761 20.4402 6.69147 20.0181C6.62658 19.9754 6.49131 19.9707 6.42733 20.0116C6.03431 20.2635 5.65226 20.5331 5.24828 20.8102H5.24737ZM10.3584 21.3419C11.0338 21.8048 11.6727 22.2436 12.3134 22.6796C12.3582 22.7103 12.4405 22.7549 12.4624 22.7372C12.7814 22.4779 13.2493 22.3942 13.4001 21.9387C13.5016 21.6328 13.6003 21.3242 13.6725 21.0109C13.6935 20.9189 13.6515 20.7609 13.582 20.7079C13.2649 20.4662 12.9322 20.2422 12.594 20.0311C12.52 19.9856 12.3719 19.9782 12.3024 20.0228C11.6645 20.443 11.0357 20.878 10.3575 21.341L10.3584 21.3419ZM8.27815 30.8136C8.30832 30.9289 8.32751 31.0191 8.35493 31.1074C8.54138 31.7014 8.94445 32.0258 9.49376 32.0267C10.0449 32.0267 10.4379 31.7005 10.6408 31.1129C10.7194 30.8861 10.681 30.7588 10.4745 30.6379C10.1994 30.4771 9.95075 30.267 9.67382 30.109C9.58242 30.0569 9.41059 30.0541 9.32193 30.109C8.97187 30.3219 8.63918 30.5663 8.27815 30.8145V30.8136ZM12.0228 26.5021C12.2558 25.7361 12.4798 25.011 12.6909 24.2831C12.7092 24.2199 12.6589 24.0991 12.6032 24.0619C12.5346 24.0154 12.3993 23.9847 12.3417 24.0238C11.6855 24.4561 11.0393 24.9032 10.3584 25.3671C10.9251 25.7538 11.457 26.1163 12.0228 26.503V26.5021ZM6.97024 26.5058C7.54696 26.1117 8.07342 25.7519 8.63735 25.3671C7.96009 24.9051 7.31298 24.4579 6.65765 24.0257C6.59916 23.9875 6.46572 24.0164 6.39625 24.061C6.33958 24.0972 6.28109 24.2171 6.29846 24.2776C6.50867 25.0064 6.73351 25.7315 6.96932 26.5068L6.97024 26.5058ZM3.94676 16.4959C4.52714 16.0989 5.06183 15.7336 5.54167 15.4054C5.10844 15.094 4.67887 14.7817 4.24381 14.4786C4.19171 14.4424 4.09574 14.4284 4.03725 14.4507C3.82703 14.5325 3.62412 14.6339 3.41116 14.7305C3.58574 15.306 3.75574 15.8674 3.94676 16.4968V16.4959ZM15.5818 14.7268C15.3552 14.6264 15.1705 14.5372 14.9795 14.4637C14.9155 14.4396 14.8159 14.4247 14.7684 14.4582C14.3251 14.7677 13.89 15.0884 13.4522 15.4064C13.933 15.7336 14.4686 16.098 15.0444 16.4903C15.2309 15.8795 15.4036 15.3097 15.5818 14.7268ZM11.5438 15.3301C11.5356 15.2939 11.5274 15.2586 11.5192 15.2223C11.4095 15.2325 11.2833 15.2102 11.191 15.2576C10.0522 15.8386 8.92069 15.8358 7.78369 15.2502C7.69869 15.2065 7.57438 15.2446 7.46745 15.2446C7.46379 15.2762 7.46105 15.3078 7.45739 15.3394C8.09901 15.7763 8.7388 16.216 9.38408 16.6474C9.43526 16.6818 9.54403 16.6892 9.59247 16.6576C10.246 16.2216 10.894 15.7754 11.5429 15.332L11.5438 15.3301ZM4.67887 18.6405C4.65693 18.6609 4.63499 18.6823 4.61306 18.7027C4.72274 19.0653 4.83242 19.4278 4.95398 19.8313C5.22269 19.6491 5.44296 19.4985 5.69339 19.3284C5.32963 19.082 5.00425 18.8608 4.67887 18.6395V18.6405ZM14.3763 18.7018C14.3525 18.6823 14.3288 18.6628 14.305 18.6442C13.9814 18.8663 13.6588 19.0885 13.3033 19.333C13.5628 19.5059 13.7868 19.6547 14.0409 19.8238C14.1615 19.4195 14.2694 19.0606 14.3763 18.7018ZM7.63014 28.7016C7.76449 29.1366 7.86777 29.4713 7.98111 29.8366C8.21509 29.6767 8.40703 29.5456 8.63461 29.3904C8.29826 29.1599 8.00944 28.9609 7.63014 28.7016ZM10.3584 29.3913C10.5969 29.5531 10.7898 29.6832 11.0156 29.8366C11.1298 29.4555 11.2294 29.1227 11.3528 28.7118C10.99 28.96 10.7002 29.158 10.3584 29.3923V29.3913Z" fill="white"/>
</g>
</g>
<defs>
<clipPath id="clip0_2119_2591">
<rect width="19" height="33" rx="9.5" fill="white"/>
</clipPath>
</defs>
</svg>
