<svg width="33" height="17" viewBox="0 0 33 17" fill="none" xmlns="http://www.w3.org/2000/svg">
<path id="Vector" d="M33 0.687886C33 0.595503 32.9778 0.503637 32.9274 0.426265C32.5681 -0.124381 32.1209 -0.142121 31.5954 0.376453C26.6583 5.2479 21.722 10.1202 16.7883 14.9949C16.7157 15.0665 16.6643 15.159 16.6092 15.2478C16.5853 15.2862 16.5428 15.3087 16.4975 15.3081C16.4535 15.3075 16.4125 15.2856 16.3889 15.2484C16.3327 15.1597 16.2806 15.067 16.2083 14.9949C11.2804 10.1277 6.35258 5.26204 1.418 0.403908C1.25275 0.240833 1.02765 0.104382 0.805076 0.0394852C0.526015 -0.0428842 0.28152 0.0960622 0.123019 0.343171C-0.0354807 0.589447 -0.0464408 0.842379 0.123019 1.08782C0.194682 1.19183 0.278147 1.29084 0.368357 1.37986C5.51624 6.46264 10.6658 11.5446 15.8154 16.6257C16.3221 17.1257 16.6736 17.1249 17.1829 16.6224C22.3248 11.5479 27.4668 6.47429 32.6046 1.3965C32.7183 1.28371 32.8075 1.1468 32.8985 1.01162C32.963 0.915797 33 0.803394 33 0.687886Z" fill="white"/>
</svg>
