<svg width="20" height="10" viewBox="0 0 20 10" fill="none" xmlns="http://www.w3.org/2000/svg">
<path d="M-1.14898e-08 0.321772C0.224823 -0.0702537 0.510962 -0.104513 0.851261 0.221441C3.84345 3.087 6.83513 5.95304 9.82527 8.82056C9.87943 8.87244 9.91418 8.94291 9.95761 9.00507C9.98623 9.00507 10.0154 9.00458 10.044 9.00409C10.0879 8.94242 10.1232 8.87244 10.1768 8.82056C13.1634 5.95745 16.15 3.09532 19.1406 0.237593C19.2408 0.141666 19.3772 0.0614014 19.5121 0.0232266C19.6812 -0.025226 19.8294 0.0565072 19.9254 0.201865C20.0215 0.346733 20.0281 0.495517 19.9254 0.639896C19.882 0.701074 19.8314 0.759315 19.7768 0.811683C16.6568 3.80155 13.5359 6.79093 10.4149 9.77982C10.1078 10.074 9.89476 10.0735 9.58614 9.77786C6.46979 6.79289 3.35344 3.8084 0.239641 0.82147C0.145624 0.730927 0.0791988 0.613956 -1.81832e-08 0.50922L-1.15073e-08 0.322261L-1.14898e-08 0.321772Z" fill="white"/>
</svg>
