<svg width="25" height="13" viewBox="0 0 25 13" fill="none" xmlns="http://www.w3.org/2000/svg">
<g id="Capa_1">
<g clip-path="url(#clip0_1159_30829)">
<path id="Vector" d="M5.52907e-05 0.418311C0.281084 -0.0913309 0.638756 -0.135869 1.06413 0.287878C4.80436 4.01316 8.54395 7.73908 12.2816 11.4669C12.3493 11.5344 12.3928 11.626 12.447 11.7068C12.4828 11.7068 12.5192 11.7061 12.555 11.7055C12.6099 11.6253 12.654 11.5344 12.721 11.4669C16.4542 7.74481 20.1874 4.02398 23.9258 0.308876C24.0509 0.184169 24.2215 0.0798231 24.3901 0.0301951C24.6015 -0.0327944 24.7867 0.0734605 24.9068 0.262429C25.0269 0.450761 25.0352 0.644183 24.9068 0.831879C24.8525 0.911411 24.7893 0.987125 24.7209 1.0552C20.821 4.9421 16.9199 8.82835 13.0187 12.714C12.6348 13.0964 12.3685 13.0957 11.9827 12.7114C8.08728 8.8309 4.19184 4.951 0.299606 1.06793C0.182085 0.950222 0.0990543 0.798156 5.52777e-05 0.661997L5.52907e-05 0.418947L5.52907e-05 0.418311Z" fill="#4D4D4D"/>
</g>
</g>
<defs>
<clipPath id="clip0_1159_30829">
<rect x="25" width="13" height="25" rx="6.5" transform="rotate(90 25 0)" fill="white"/>
</clipPath>
</defs>
</svg>
