<svg width="26" height="15" viewBox="0 0 26 15" fill="none" xmlns="http://www.w3.org/2000/svg">
<path d="M5.33881e-05 0.48169C0.292324 -0.106359 0.664303 -0.157749 1.10669 0.33119C4.99653 4.6296 8.8857 8.92873 12.7729 13.2301C12.8433 13.3079 12.8885 13.4136 12.9449 13.5068C12.9821 13.5068 13.02 13.5061 13.0572 13.5054C13.1143 13.4129 13.1601 13.3079 13.2299 13.2301C17.1124 8.93534 20.9949 4.64208 24.8828 0.355418C25.013 0.211526 25.1903 0.091127 25.3657 0.0338639C25.5856 -0.0388162 25.7782 0.0837856 25.9031 0.301826C26.028 0.519132 26.0366 0.742311 25.9031 0.958884C25.8466 1.05065 25.7809 1.13801 25.7098 1.21657C21.6539 5.70144 17.5967 10.1856 13.5394 14.669C13.1402 15.1102 12.8632 15.1095 12.462 14.6661C8.41076 10.1885 4.35951 5.71172 0.311586 1.23125C0.189365 1.09543 0.103012 0.919973 5.33778e-05 0.762866L5.33881e-05 0.482424L5.33881e-05 0.48169Z" fill="white"/>
</svg>
