<svg width="21" height="12" viewBox="0 0 21 12" fill="none" xmlns="http://www.w3.org/2000/svg">
<path d="M21 11.6148C20.7639 12.0853 20.4634 12.1264 20.1061 11.7352C16.9643 8.29652 13.8231 4.85721 10.6834 1.41613C10.6266 1.35388 10.5901 1.26931 10.5445 1.19472C10.5144 1.19472 10.4839 1.1953 10.4538 1.19589C10.4077 1.26989 10.3707 1.35388 10.3143 1.41613C7.17843 4.85192 4.04254 8.28653 0.902361 11.7159C0.797206 11.831 0.653958 11.9273 0.51232 11.9731C0.334736 12.0312 0.179148 11.9332 0.078285 11.7587C-0.0225786 11.5849 -0.0295532 11.4063 0.078285 11.2331C0.123888 11.1597 0.177002 11.0898 0.234409 11.0269C3.51033 7.43904 6.78732 3.85173 10.0643 0.265C10.3868 -0.0879763 10.6105 -0.0873889 10.9345 0.267349C14.2067 3.84938 17.4789 7.43082 20.7483 11.0152C20.847 11.1238 20.9168 11.2642 21 11.3899L21 11.6143L21 11.6148Z" fill="white"/>
</svg>
