<svg width="10" height="15" viewBox="0 0 10 15" fill="none" xmlns="http://www.w3.org/2000/svg">
<path d="M8.84712 3.23996e-05C9.19995 0.16865 9.23078 0.383253 8.93742 0.638477C6.35842 2.88261 3.77898 5.12637 1.19822 7.36897C1.15153 7.40959 1.0881 7.43565 1.03216 7.46822C1.03216 7.48969 1.0326 7.51153 1.03304 7.53299C1.08854 7.56595 1.15153 7.59239 1.19822 7.63263C3.77502 9.87255 6.35093 12.1125 8.92289 14.3555C9.00922 14.4306 9.08146 14.5329 9.11581 14.6341C9.15942 14.7609 9.08586 14.872 8.95504 14.9441C8.82466 15.0161 8.69075 15.0211 8.56081 14.9441C8.50575 14.9115 8.45334 14.8736 8.4062 14.8326C5.71532 12.4926 3.02488 10.1519 0.334881 7.81121C0.0701529 7.58089 0.0705936 7.42109 0.336643 7.18962C3.02312 4.85236 5.70916 2.51511 8.3974 0.179763C8.47888 0.109251 8.58416 0.059432 8.67842 3.23849e-05L8.84668 3.23996e-05L8.84712 3.23996e-05Z" fill="white"/>
</svg>
