<svg width="14" height="25" viewBox="0 0 14 25" fill="none" xmlns="http://www.w3.org/2000/svg">
<g clip-path="url(#clip0_2178_6599)">
<path d="M13.5495 5.34451e-05C14.0984 0.281082 14.1463 0.638754 13.69 1.06413C9.67813 4.80436 5.6656 8.54395 1.65102 12.2816C1.57839 12.3493 1.47972 12.3928 1.3927 12.447C1.3927 12.4828 1.39338 12.5192 1.39407 12.555C1.4804 12.6099 1.57839 12.654 1.65102 12.721C5.65944 16.4542 9.66648 20.1874 13.6674 23.9258C13.8017 24.0509 13.914 24.2215 13.9675 24.3901C14.0353 24.6015 13.9209 24.7867 13.7174 24.9068C13.5146 25.0269 13.3063 25.0352 13.1041 24.9068C13.0185 24.8525 12.9369 24.7893 12.8636 24.7209C8.67774 20.821 4.49254 16.9199 0.308027 13.0187C-0.103778 12.6348 -0.103092 12.3685 0.310768 11.9827C4.4898 8.08728 8.66815 4.19184 12.8499 0.299605C12.9767 0.182083 13.1404 0.0990525 13.2871 5.34681e-05L13.5488 5.34452e-05L13.5495 5.34451e-05Z" fill="white"/>
</g>
<defs>
<clipPath id="clip0_2178_6599">
<rect width="14" height="25" fill="white" transform="translate(14 25) rotate(180)"/>
</clipPath>
</defs>
</svg>
