<svg width="28" height="25" viewBox="0 0 28 25" fill="none" xmlns="http://www.w3.org/2000/svg">
<path id="Vector" fill-rule="evenodd" clip-rule="evenodd" d="M2.8 2.77777H6.3V0.694443C6.3 0.310916 6.6134 0 7 0C7.3866 0 7.7 0.310916 7.7 0.694443V2.77777H20.3V0.694443C20.3 0.310916 20.6135 0 21 0C21.3865 0 21.7 0.310916 21.7 0.694443V2.77777H25.2C26.7464 2.77777 28 4.02142 28 5.55555V22.2222C28 23.7563 26.7464 25 25.2 25H2.8C1.2536 25 0 23.7563 0 22.2222V5.55555C0 4.02142 1.2536 2.77777 2.8 2.77777ZM25.2 4.16666C25.9732 4.16666 26.6 4.78849 26.6 5.55555V8.33332H1.4V5.55555C1.4 4.78849 2.02681 4.16666 2.8 4.16666H25.2ZM2.8 23.6111C2.02681 23.6111 1.4 22.9893 1.4 22.2222V9.72221H26.6V22.2222C26.6 22.9893 25.9732 23.6111 25.2 23.6111H2.8Z" fill="white"/>
</svg>
