<svg width="24" height="24" viewBox="0 0 24 24" fill="none" xmlns="http://www.w3.org/2000/svg">
<g id="calendar">
<path id="Vector" fill-rule="evenodd" clip-rule="evenodd" d="M4 5H6.5V3.5C6.5 3.22386 6.72386 3 7 3C7.27614 3 7.5 3.22386 7.5 3.5V5H16.5V3.5C16.5 3.22386 16.7239 3 17 3C17.2761 3 17.5 3.22386 17.5 3.5V5H20C21.1046 5 22 5.89543 22 7V19C22 20.1045 21.1046 21 20 21H4C2.89543 21 2 20.1045 2 19V7C2 5.89543 2.89543 5 4 5ZM20 6C20.5523 6 21 6.44772 21 7V9H3V7C3 6.44772 3.44772 6 4 6H20ZM4 20C3.44772 20 3 19.5523 3 19V10H21V19C21 19.5523 20.5523 20 20 20H4Z" fill="#2467FF"/>
</g>
</svg>
