<svg width="26" height="26" viewBox="0 0 26 26" fill="none" xmlns="http://www.w3.org/2000/svg">
<g id="Camera">
<path id="Vector" d="M21.125 6.09375H18.0913L16.5872 3.83703C16.5502 3.78152 16.5 3.73599 16.4412 3.70446C16.3824 3.67293 16.3167 3.65637 16.25 3.65625H9.75C9.68327 3.65637 9.6176 3.67293 9.55879 3.70446C9.49998 3.73599 9.44985 3.78152 9.41281 3.83703L7.90664 6.09375H4.875C4.33628 6.09375 3.81962 6.30776 3.43869 6.68869C3.05776 7.06962 2.84375 7.58628 2.84375 8.125V19.5C2.84375 20.0387 3.05776 20.5554 3.43869 20.9363C3.81962 21.3172 4.33628 21.5312 4.875 21.5312H21.125C21.6637 21.5312 22.1804 21.3172 22.5613 20.9363C22.9422 20.5554 23.1562 20.0387 23.1562 19.5V8.125C23.1562 7.58628 22.9422 7.06962 22.5613 6.68869C22.1804 6.30776 21.6637 6.09375 21.125 6.09375ZM22.3438 19.5C22.3438 19.8232 22.2153 20.1332 21.9868 20.3618C21.7582 20.5903 21.4482 20.7188 21.125 20.7188H4.875C4.55177 20.7188 4.24177 20.5903 4.01321 20.3618C3.78465 20.1332 3.65625 19.8232 3.65625 19.5V8.125C3.65625 7.80177 3.78465 7.49177 4.01321 7.26321C4.24177 7.03465 4.55177 6.90625 4.875 6.90625H8.125C8.1919 6.90629 8.25778 6.88981 8.31678 6.85828C8.37578 6.82674 8.42607 6.78112 8.4632 6.72547L9.96633 4.46875H16.0316L17.5368 6.72547C17.5739 6.78112 17.6242 6.82674 17.6832 6.85828C17.7422 6.88981 17.8081 6.90629 17.875 6.90625H21.125C21.4482 6.90625 21.7582 7.03465 21.9868 7.26321C22.2153 7.49177 22.3438 7.80177 22.3438 8.125V19.5ZM13 9.34375C12.1965 9.34375 11.4111 9.58201 10.743 10.0284C10.0749 10.4748 9.55422 11.1093 9.24674 11.8516C8.93926 12.5939 8.85881 13.4108 9.01556 14.1988C9.17231 14.9869 9.55923 15.7107 10.1274 16.2789C10.6955 16.847 11.4194 17.2339 12.2074 17.3907C12.9955 17.5474 13.8123 17.467 14.5547 17.1595C15.297 16.852 15.9315 16.3313 16.3778 15.6633C16.8242 14.9952 17.0625 14.2097 17.0625 13.4062C17.0625 12.3288 16.6345 11.2955 15.8726 10.5336C15.1108 9.77176 14.0774 9.34375 13 9.34375ZM13 16.6562C12.3572 16.6562 11.7289 16.4656 11.1944 16.1085C10.6599 15.7514 10.2434 15.2438 9.99739 14.65C9.75141 14.0561 9.68705 13.4026 9.81245 12.7722C9.93785 12.1418 10.2474 11.5627 10.7019 11.1082C11.1564 10.6536 11.7355 10.3441 12.366 10.2187C12.9964 10.0933 13.6499 10.1577 14.2437 10.4036C14.8376 10.6496 15.3452 11.0662 15.7023 11.6006C16.0594 12.1351 16.25 12.7635 16.25 13.4062C16.25 14.2682 15.9076 15.0949 15.2981 15.7043C14.6886 16.3138 13.862 16.6562 13 16.6562Z" fill="white"/>
</g>
</svg>
