<svg width="62" height="52" viewBox="0 0 62 52" fill="none" xmlns="http://www.w3.org/2000/svg">
<path fill-rule="evenodd" clip-rule="evenodd" d="M31 40.7568C38.7044 40.7568 44.95 35.0938 44.95 28.1081C44.95 21.1224 38.7044 15.4595 31 15.4595C23.2956 15.4595 17.05 21.1224 17.05 28.1081C17.05 35.0938 23.2956 40.7568 31 40.7568ZM31 37.9459C36.9923 37.9459 41.85 33.5414 41.85 28.1081C41.85 22.6748 36.9923 18.2703 31 18.2703C25.0077 18.2703 20.15 22.6748 20.15 28.1081C20.15 33.5414 25.0077 37.9459 31 37.9459Z" fill="white"/>
<path fill-rule="evenodd" clip-rule="evenodd" d="M18.1846 2.81087L15.5 7.02703H6.2C2.77583 7.02703 0 9.54391 0 12.6486V46.3784C0 49.4832 2.77583 52 6.2 52H55.8C59.2243 52 62 49.4832 62 46.3784V12.6486C62 9.54391 59.2243 7.02703 55.8 7.02703H46.5L43.8154 2.81087C42.7081 1.07151 40.6612 0 38.4462 0H23.554C21.3389 0 19.2921 1.07151 18.1846 2.81087ZM15.5 9.83784C16.6075 9.83784 17.6309 9.3021 18.1847 8.4324L20.8693 4.21624C21.423 3.34655 22.4464 2.81081 23.554 2.81081H38.4462C39.5535 2.81081 40.5771 3.34655 41.1308 4.21624L43.8154 8.4324C44.3691 9.3021 45.3924 9.83784 46.5 9.83784H55.8C57.5121 9.83784 58.9 11.0963 58.9 12.6486V46.3784C58.9 47.9308 57.5121 49.1892 55.8 49.1892H6.2C4.48793 49.1892 3.1 47.9308 3.1 46.3784V12.6486C3.1 11.0963 4.48793 9.83784 6.2 9.83784H15.5Z" fill="white"/>
</svg>
