<svg width="100" height="100" viewBox="0 0 100 100" fill="none" xmlns="http://www.w3.org/2000/svg">
<path d="M26.2 70.625C28.4368 70.625 30.25 68.7782 30.25 66.5C30.25 64.2218 28.4368 62.375 26.2 62.375C23.9633 62.375 22.15 64.2218 22.15 66.5C22.15 68.7782 23.9633 70.625 26.2 70.625Z" fill="white"/>
<path fill-rule="evenodd" clip-rule="evenodd" d="M18.1 17C13.6265 17 10 20.6936 10 25.25V74.75C10 79.3065 13.6265 83 18.1 83H82.9C87.3736 83 91 79.3065 91 74.75V25.25C91 20.6936 87.3736 17 82.9 17H18.1ZM86.95 25.25C86.95 22.9718 85.1368 21.125 82.9 21.125H18.1C15.8633 21.125 14.05 22.9718 14.05 25.25V33.5H86.95V25.25ZM86.95 37.625H14.05V45.875H86.95V37.625ZM86.95 50H14.05V74.75C14.05 77.0282 15.8633 78.875 18.1 78.875H82.9C85.1368 78.875 86.95 77.0282 86.95 74.75V50Z" fill="white"/>
</svg>
