<svg width="100" height="100" viewBox="0 0 100 100" fill="none" xmlns="http://www.w3.org/2000/svg">
<g clip-path="url(#clip0_2793_1017)">
<circle cx="50" cy="50" r="46.6667" fill="#2467FF" stroke="#2467FF" stroke-width="6.66667"/>
<mask id="path-2-inside-1_2793_1017" fill="white">
<path d="M78.3272 37.3808C78.8714 36.84 78.8739 35.9607 78.3333 35.4166C77.7925 34.8726 76.913 34.8699 76.3692 35.4107L44.9364 66.653L30.2974 52.11C29.7533 51.5694 28.8739 51.5722 28.3333 52.1164C27.7927 52.6605 27.7955 53.54 28.3397 54.0805L43.9578 69.5964C44.4996 70.1347 45.3742 70.1344 45.9158 69.5961L78.3272 37.3808Z"/>
</mask>
<path d="M78.3272 37.3808C78.8714 36.84 78.8739 35.9607 78.3333 35.4166C77.7925 34.8726 76.913 34.8699 76.3692 35.4107L44.9364 66.653L30.2974 52.11C29.7533 51.5694 28.8739 51.5722 28.3333 52.1164C27.7927 52.6605 27.7955 53.54 28.3397 54.0805L43.9578 69.5964C44.4996 70.1347 45.3742 70.1344 45.9158 69.5961L78.3272 37.3808Z" fill="white"/>
<path d="M78.3272 37.3808L64.2297 23.1942L64.2281 23.1958L78.3272 37.3808ZM78.3333 35.4166L92.5207 21.3198L92.5174 21.3166L78.3333 35.4166ZM76.3692 35.4107L90.4683 49.5957L90.4703 49.5937L76.3692 35.4107ZM44.9364 66.653L30.8409 80.8416L44.94 94.8483L59.0356 80.8381L44.9364 66.653ZM30.2974 52.11L44.393 37.9214L44.3924 37.9209L30.2974 52.11ZM28.3397 54.0805L42.4353 39.892L42.4347 39.8914L28.3397 54.0805ZM43.9578 69.5964L58.0551 55.4096L58.0534 55.4079L43.9578 69.5964ZM45.9158 69.5961L60.0149 83.7811L60.0149 83.7811L45.9158 69.5961ZM92.4247 51.5674C100.808 43.2371 100.842 29.6951 92.5207 21.3198L64.146 49.5134C56.9053 42.2263 56.9351 30.443 64.2297 23.1942L92.4247 51.5674ZM92.5174 21.3166C84.1917 12.9413 70.6482 12.8958 62.268 21.2277L90.4703 49.5937C83.1779 56.844 71.3933 56.8039 64.1492 49.5167L92.5174 21.3166ZM62.27 21.2256L30.8373 52.468L59.0356 80.8381L90.4683 49.5957L62.27 21.2256ZM59.032 52.4645L44.393 37.9214L16.2019 66.2985L30.8409 80.8416L59.032 52.4645ZM44.3924 37.9209C36.0142 29.5982 22.4721 29.6386 14.1449 38.0207L42.5217 66.2121C35.2756 73.5058 23.4923 73.5406 16.2025 66.2991L44.3924 37.9209ZM14.1449 38.0207C5.81968 46.4006 5.86328 59.9438 14.2447 68.2697L42.4347 39.8914C49.7278 47.1361 49.7656 58.9205 42.5217 66.2121L14.1449 38.0207ZM14.2441 68.2691L29.8622 83.7849L58.0534 55.4079L42.4353 39.892L14.2441 68.2691ZM29.8605 83.7832C38.2066 92.0766 51.677 92.0686 60.0149 83.7811L31.8166 55.4111C39.0714 48.2003 50.7926 48.1928 58.0551 55.4096L29.8605 83.7832ZM60.0149 83.7811L92.4264 51.5658L64.2281 23.1958L31.8166 55.4111L60.0149 83.7811Z" fill="white" mask="url(#path-2-inside-1_2793_1017)"/>
</g>
<defs>
<clipPath id="clip0_2793_1017">
<rect width="100" height="100" fill="white"/>
</clipPath>
</defs>
</svg>
