<svg width="15" height="15" viewBox="0 0 15 15" fill="none" xmlns="http://www.w3.org/2000/svg">
<path d="M7.54327 6.72299C7.65593 6.57668 7.72803 6.45928 7.82266 6.36445C9.79554 4.38754 11.7711 2.41243 13.7467 0.437318C14.2334 -0.0494603 14.5398 -0.121709 14.8318 0.179931C15.1166 0.474346 15.0454 0.770567 14.5741 1.24199C12.5913 3.22523 10.6085 5.20937 8.62299 7.1899C8.52926 7.28382 8.41299 7.35517 8.30664 7.43735C8.29673 7.48612 8.28682 7.53489 8.276 7.58456C8.39046 7.65681 8.52385 7.71009 8.61758 7.80311C10.6202 9.799 12.6183 11.7985 14.6173 13.798C15.0409 14.2215 15.1022 14.5268 14.821 14.8122C14.5407 15.0976 14.2253 15.038 13.8062 14.6189C11.7991 12.6122 9.79194 10.6046 7.78481 8.59785C7.69829 8.51206 7.60816 8.42987 7.4234 8.25377C7.34319 8.38382 7.29091 8.51838 7.19808 8.6123C5.21078 10.6073 3.21897 12.5977 1.22806 14.5891C0.769317 15.0479 0.452971 15.1174 0.166367 14.823C-0.116632 14.5313 -0.0436292 14.2288 0.42413 13.761C2.41504 11.7696 4.40594 9.77822 6.39865 7.78866C6.48518 7.70196 6.59153 7.63513 6.7123 7.54031C6.5717 7.3931 6.48247 7.29556 6.38964 7.20345C4.40865 5.2184 2.42495 3.23516 0.442156 1.25102C0.386277 1.19503 0.329497 1.14084 0.275421 1.08304C-0.0346164 0.758827 -0.0688647 0.448155 0.177182 0.188962C0.430439 -0.0783599 0.765712 -0.0539759 1.09558 0.274758C2.56375 1.7378 4.02741 3.20446 5.49288 4.67021C6.15261 5.33039 6.81234 5.99056 7.54417 6.72299H7.54327Z" fill="white"/>
</svg>
