<svg width="25" height="25" viewBox="0 0 25 25" fill="none" xmlns="http://www.w3.org/2000/svg">
<path d="M12.5703 11.2067C12.7581 10.9629 12.8782 10.7672 13.0359 10.6091C16.3241 7.31424 19.6168 4.02235 22.9095 0.730459C23.7206 -0.0808479 24.2313 -0.201265 24.718 0.301475C25.1927 0.792173 25.074 1.28588 24.2884 2.0716C20.9837 5.37704 17.679 8.68398 14.3698 11.9849C14.2136 12.1414 14.0198 12.2604 13.8426 12.3973C13.8261 12.4786 13.8095 12.5599 13.7915 12.6427C13.9823 12.7631 14.2046 12.8519 14.3608 13.0069C17.6986 16.3334 21.0288 19.666 24.3605 22.9985C25.0665 23.7044 25.1687 24.2132 24.7 24.6889C24.2328 25.1645 23.7071 25.0652 23.0086 24.3667C19.6634 21.0222 16.3181 17.6761 12.9729 14.3315C12.8287 14.1885 12.6784 14.0515 12.3705 13.758C12.2368 13.9748 12.1497 14.1991 11.995 14.3556C8.68277 17.6806 5.36305 20.9981 2.04484 24.3171C1.28025 25.0817 0.753006 25.1976 0.275328 24.7069C-0.196342 24.2207 -0.0746691 23.7165 0.704938 22.9368C4.02315 19.6178 7.34136 16.2988 10.6626 12.9829C10.8068 12.8384 10.984 12.727 11.1853 12.5689C10.951 12.3236 10.8023 12.161 10.6476 12.0075C7.34587 8.69903 4.03967 5.39359 0.734981 2.08665C0.641848 1.99333 0.547214 1.90302 0.457086 1.80668C-0.0596478 1.26631 -0.116729 0.748522 0.293354 0.316527C0.715453 -0.129015 1.27425 -0.088374 1.82403 0.459522C4.271 2.89796 6.71047 5.34242 9.15293 7.78537C10.2525 8.88568 11.3521 9.98598 12.5718 11.2067H12.5703Z" fill="white"/>
</svg>
