<svg width="20" height="20" viewBox="0 0 20 20" fill="none" xmlns="http://www.w3.org/2000/svg">
<g clip-path="url(#clip0_1159_29967)">
<path d="M10.0578 8.96556C10.208 8.77048 10.3041 8.61394 10.4303 8.48751C13.0609 5.85159 15.695 3.21807 18.3291 0.584563C18.9781 -0.064483 19.3866 -0.160816 19.776 0.241375C20.1557 0.633934 20.0608 1.0289 19.4323 1.65747C16.7886 4.30182 14.1448 6.94738 11.4974 9.58811C11.3725 9.71335 11.2174 9.80848 11.0756 9.91806C11.0624 9.98308 11.0492 10.0481 11.0348 10.1143C11.1874 10.2107 11.3652 10.2817 11.4902 10.4057C14.1604 13.067 16.8246 15.733 19.49 18.399C20.0548 18.9638 20.1365 19.3708 19.7616 19.7513C19.3878 20.1318 18.9672 20.0523 18.4085 19.4936C15.7323 16.8179 13.0561 14.1411 10.3799 11.4654C10.2645 11.351 10.1443 11.2414 9.89797 11.0066C9.79101 11.18 9.72131 11.3594 9.59754 11.4847C6.94778 14.1447 4.29201 16.7987 1.63744 19.4539C1.02577 20.0656 0.603968 20.1583 0.221825 19.7657C-0.155511 19.3768 -0.0581728 18.9734 0.565513 18.3496C3.22008 15.6944 5.87465 13.0393 8.53162 10.3865C8.64699 10.2709 8.78879 10.1818 8.94982 10.0553C8.76235 9.85905 8.64338 9.729 8.51961 9.60618C5.87826 6.95942 3.2333 4.31507 0.589547 1.66952C0.515041 1.59486 0.439334 1.52261 0.367231 1.44554C-0.0461557 1.01325 -0.0918205 0.599013 0.236245 0.253417C0.573925 -0.103016 1.02096 -0.0705039 1.46078 0.367813C3.41836 2.31856 5.36994 4.27413 7.32391 6.22849C8.20356 7.10874 9.08321 7.98898 10.059 8.96556H10.0578Z" fill="#4D4D4D"/>
</g>
<defs>
<clipPath id="clip0_1159_29967">
<rect width="20" height="20" fill="white"/>
</clipPath>
</defs>
</svg>
