<svg width="100" height="100" viewBox="0 0 100 100" fill="none" xmlns="http://www.w3.org/2000/svg">
<path d="M39.3158 17.2105C39.3158 18.4314 38.2436 19.421 36.9211 19.421H10.5789C7.93382 19.421 5.78947 21.4004 5.78947 23.8421V90.1579C5.78947 92.5992 7.93382 94.579 10.5789 94.579H82.4211C85.0663 94.579 87.2105 92.5992 87.2105 90.1579V65.8422C87.2105 64.6211 88.2829 63.6317 89.6053 63.6317C90.9276 63.6317 92 64.6211 92 65.8422V90.1579C92 95.041 87.7115 99 82.4211 99H10.5789C5.28864 99 1 95.041 1 90.1579V23.8421C1 18.9587 5.28864 15 10.5789 15H36.9211C38.2436 15 39.3158 15.9897 39.3158 17.2105Z" fill="white"/>
<path d="M77.9519 26.2569C78.5 26.8049 78.5 27.6933 77.9519 28.2413L63.5091 42.6839C62.9613 43.232 62.0728 43.232 61.5248 42.6839L54.098 35.2572C53.5501 34.7091 53.5501 33.8206 54.098 33.2728C54.646 32.7248 55.5344 32.7248 56.0824 33.2728L62.5171 39.7075L75.9676 26.2569C76.5154 25.7089 77.4039 25.7089 77.9519 26.2569Z" fill="white"/>
<path fill-rule="evenodd" clip-rule="evenodd" d="M93.3865 34.676C93.3865 50.1749 80.822 62.7394 65.3231 62.7394C49.8242 62.7394 37.2598 50.1749 37.2598 34.676C37.2598 19.1771 49.8242 6.61267 65.3231 6.61267C80.822 6.61267 93.3865 19.1771 93.3865 34.676ZM90.5802 34.676C90.5802 48.6252 79.2723 59.9331 65.3231 59.9331C51.3741 59.9331 40.0661 48.6252 40.0661 34.676C40.0661 20.727 51.3741 9.41901 65.3231 9.41901C79.2723 9.41901 90.5802 20.727 90.5802 34.676Z" fill="white"/>
</svg>
