<svg width="22" height="22" viewBox="0 0 22 22" fill="none" xmlns="http://www.w3.org/2000/svg">
<g clip-path="url(#clip0_2293_1451)">
<path fill-rule="evenodd" clip-rule="evenodd" d="M6.41667 9.625C8.31515 9.625 9.85417 8.08598 9.85417 6.1875C9.85417 4.28902 8.31515 2.75 6.41667 2.75C4.51819 2.75 2.97917 4.28902 2.97917 6.1875C2.97917 8.08598 4.51819 9.625 6.41667 9.625ZM6.41667 8.70833C7.80888 8.70833 8.9375 7.57971 8.9375 6.1875C8.9375 4.79528 7.80888 3.66667 6.41667 3.66667C5.02445 3.66667 3.89583 4.79528 3.89583 6.1875C3.89583 7.57971 5.02445 8.70833 6.41667 8.70833Z" fill="white"/>
<path fill-rule="evenodd" clip-rule="evenodd" d="M19.0208 6.1875C19.0208 8.08598 17.4818 9.625 15.5833 9.625C13.6848 9.625 12.1458 8.08598 12.1458 6.1875C12.1458 4.28902 13.6848 2.75 15.5833 2.75C17.4818 2.75 19.0208 4.28902 19.0208 6.1875ZM18.1042 6.1875C18.1042 7.57971 16.9756 8.70833 15.5833 8.70833C14.1911 8.70833 13.0625 7.57971 13.0625 6.1875C13.0625 4.79528 14.1911 3.66667 15.5833 3.66667C16.9756 3.66667 18.1042 4.79528 18.1042 6.1875Z" fill="white"/>
<path d="M15.5834 11.9167C14.5188 11.9167 13.5091 12.1505 12.6027 12.5701C12.3632 12.3403 12.1108 12.1238 11.8468 11.9216C11.9864 11.8481 12.1283 11.7785 12.2725 11.7131C13.2818 11.255 14.4028 11 15.5834 11C15.7336 11 15.8828 11.0041 16.0311 11.0123C18.2542 11.1346 20.236 12.1622 21.6142 13.7327C21.6469 13.77 21.6775 13.8088 21.706 13.8488C21.9052 14.1291 22 14.472 22 14.8196V16.5C22 17.5125 21.1792 18.3333 20.1667 18.3333H13.0498C13.0794 18.3002 13.1082 18.2665 13.1361 18.232C13.3321 17.9907 13.488 17.7155 13.5936 17.4167H20.1667C20.1687 17.4167 20.1706 17.4167 20.1727 17.4167C20.6762 17.4135 21.0834 17.0043 21.0834 16.5V14.8196C21.0834 14.6068 21.0172 14.4421 20.9252 14.3373C19.6218 12.852 17.7124 11.9167 15.5834 11.9167Z" fill="white"/>
<path fill-rule="evenodd" clip-rule="evenodd" d="M12.8333 14.8196C12.8333 14.4223 12.7095 14.0312 12.4475 13.7327C10.9775 12.0575 8.82055 11 6.41667 11C4.01278 11 1.85589 12.0575 0.385832 13.7327C0.123838 14.0312 0 14.4223 0 14.8196V16.5C0 17.5125 0.820812 18.3333 1.83333 18.3333H11C12.0126 18.3333 12.8333 17.5125 12.8333 16.5V14.8196ZM11 17.4167C11.5063 17.4167 11.9167 17.0063 11.9167 16.5V14.8196C11.9167 14.6068 11.8505 14.4421 11.7585 14.3373C10.4551 12.852 8.54568 11.9167 6.41667 11.9167C4.28766 11.9167 2.37823 12.852 1.07482 14.3373C0.982841 14.4421 0.916667 14.6068 0.916667 14.8196V16.5C0.916667 17.0063 1.32708 17.4167 1.83333 17.4167H11Z" fill="white"/>
</g>
<defs>
<clipPath id="clip0_2293_1451">
<rect width="22" height="22" fill="white"/>
</clipPath>
</defs>
</svg>
