<svg width="23" height="25" viewBox="0 0 23 25" fill="none" xmlns="http://www.w3.org/2000/svg">
<g id="Vector">
<path d="M9.20625 10.3773C9.50996 10.3773 9.75625 10.646 9.75625 10.9773V18.1773C9.75625 18.5087 9.50996 18.7773 9.20625 18.7773C8.9025 18.7773 8.65625 18.5087 8.65625 18.1773V10.9773C8.65625 10.646 8.9025 10.3773 9.20625 10.3773Z" fill="#777777"/>
<path d="M14.1562 10.9773C14.1562 10.646 13.91 10.3773 13.6063 10.3773C13.3025 10.3773 13.0563 10.646 13.0563 10.9773V18.1773C13.0563 18.5087 13.3025 18.7773 13.6063 18.7773C13.91 18.7773 14.1562 18.5087 14.1562 18.1773V10.9773Z" fill="#777777"/>
<path fill-rule="evenodd" clip-rule="evenodd" d="M7.00625 4.37734V3.17734C7.00625 1.85186 7.99122 0.777344 9.20625 0.777344H13.6063C14.8213 0.777344 15.8063 1.85186 15.8063 3.17734V4.37734H21.8563C22.16 4.37734 22.4062 4.64598 22.4062 4.97734C22.4062 5.30871 22.16 5.57734 21.8563 5.57734H20.1416L19.228 22.5182C19.1597 23.7869 18.1967 24.7773 17.0319 24.7773H5.78064C4.6158 24.7773 3.65284 23.7869 3.58444 22.5182L2.67095 5.57734H0.95625C0.652496 5.57734 0.40625 5.30871 0.40625 4.97734C0.40625 4.64598 0.652496 4.37734 0.95625 4.37734H7.00625ZM9.20625 1.97734H13.6063C14.2138 1.97734 14.7063 2.51461 14.7063 3.17734V4.37734H8.10625V3.17734C8.10625 2.51461 8.59874 1.97734 9.20625 1.97734ZM3.77286 5.57734L4.68254 22.4478C4.71674 23.0821 5.19821 23.5773 5.78064 23.5773H17.0319C17.6143 23.5773 18.0958 23.0821 18.13 22.4478L19.0396 5.57734H3.77286Z" fill="#777777"/>
</g>
</svg>
