<svg width="100" height="100" viewBox="0 0 100 100" fill="none" xmlns="http://www.w3.org/2000/svg">
<path d="M40.2 40.2C41.5529 40.2 42.65 41.2971 42.65 42.65V72.05C42.65 73.4029 41.5529 74.5 40.2 74.5C38.8469 74.5 37.75 73.4029 37.75 72.05V42.65C37.75 41.2971 38.8469 40.2 40.2 40.2Z" fill="white"/>
<path d="M62.25 42.65C62.25 41.2971 61.1529 40.2 59.8 40.2C58.4471 40.2 57.35 41.2971 57.35 42.65V72.05C57.35 73.4029 58.4471 74.5 59.8 74.5C61.1529 74.5 62.25 73.4029 62.25 72.05V42.65Z" fill="white"/>
<path fill-rule="evenodd" clip-rule="evenodd" d="M30.4 15.7V10.8C30.4 5.38761 34.7876 1 40.2 1H59.8C65.2125 1 69.6 5.38761 69.6 10.8V15.7H96.55C97.9029 15.7 99 16.7969 99 18.15C99 19.5031 97.9029 20.6 96.55 20.6H88.9119L84.8424 89.7753C84.5381 94.9555 80.2482 99 75.0596 99H24.9405C19.7516 99 15.4621 94.9555 15.1574 89.7753L11.0882 20.6H3.45C2.09691 20.6 1 19.5031 1 18.15C1 16.7969 2.09691 15.7 3.45 15.7H30.4ZM40.2 5.9H59.8C62.5063 5.9 64.7 8.09383 64.7 10.8V15.7H35.3V10.8C35.3 8.09383 37.4938 5.9 40.2 5.9ZM15.9967 20.6L20.0489 89.4876C20.2013 92.0778 22.346 94.1 24.9405 94.1H75.0596C77.6541 94.1 79.7989 92.0778 79.9512 89.4876L84.0031 20.6H15.9967Z" fill="white"/>
</svg>
