<svg width="18" height="19" viewBox="0 0 18 19" fill="none" xmlns="http://www.w3.org/2000/svg">
<g id="Vector">
<path d="M9.50781 11.7929L13.3007 8.00002C13.496 7.80476 13.8126 7.80476 14.0078 8.00002C14.2031 8.19532 14.2031 8.51182 14.0078 8.70712L9.36141 13.3535C9.26761 13.4473 9.14051 13.5 9.00781 13.5C8.87521 13.5 8.74811 13.4473 8.65431 13.3535L4.00784 8.70712C3.81257 8.51182 3.81257 8.19522 4.00784 7.99999C4.2031 7.80472 4.51968 7.80472 4.71494 7.99999L8.50781 11.7929V0.5L8.50791 0.49677C8.50961 0.22211 8.73281 0 9.00781 0C9.28401 0 9.50781 0.22386 9.50781 0.5V11.7929Z" fill="#343434"/>
<path d="M1.50781 12.5C1.50781 12.2239 1.28395 12 1.00781 12C0.731672 12 0.507812 12.2239 0.507812 12.5V17C0.507812 17.8285 1.17938 18.5 2.00781 18.5H16.0078C16.8362 18.5 17.5078 17.8285 17.5078 17V12.5C17.5078 12.2239 17.2839 12 17.0078 12C16.7316 12 16.5078 12.2239 16.5078 12.5V17C16.5078 17.2762 16.2839 17.5 16.0078 17.5H2.00781C1.73167 17.5 1.50781 17.2762 1.50781 17V12.5Z" fill="#343434"/>
</g>
</svg>
