<svg width="24" height="14" viewBox="0 0 24 14" fill="none" xmlns="http://www.w3.org/2000/svg">
<path d="M0.75 1.375C0.75 1.02983 1.02983 0.75 1.375 0.75H22.625C22.9701 0.75 23.25 1.02983 23.25 1.375C23.25 1.72017 22.9701 2 22.625 2H1.375C1.02983 2 0.75 1.72017 0.75 1.375Z" fill="#A9A9A9"/>
<path d="M1.375 6.375C1.02983 6.375 0.75 6.65475 0.75 7C0.75 7.34513 1.02983 7.625 1.375 7.625H22.625C22.9701 7.625 23.25 7.34513 23.25 7C23.25 6.65475 22.9701 6.375 22.625 6.375H1.375Z" fill="#A9A9A9"/>
<path d="M0.75 12.625C0.75 12.2799 1.02983 12 1.375 12H22.625C22.9701 12 23.25 12.2799 23.25 12.625C23.25 12.9701 22.9701 13.25 22.625 13.25H1.375C1.02983 13.25 0.75 12.9701 0.75 12.625Z" fill="#A9A9A9"/>
</svg>
