<svg width="55" height="30" viewBox="0 0 55 30" fill="none" xmlns="http://www.w3.org/2000/svg">
<rect width="55" height="30" rx="10" fill="#2467FF"/>
<path fill-rule="evenodd" clip-rule="evenodd" d="M31.6542 7.42859C32.305 6.77771 33.3603 6.77771 34.0112 7.42859L34.5708 7.98823C35.2217 8.6391 35.2217 9.69438 34.5708 10.3453L26.2375 18.6786C25.9249 18.9911 25.501 19.1668 25.059 19.1668H23.666C23.2058 19.1668 22.8327 18.7936 22.8327 18.3335V16.9405C22.8327 16.4984 23.0083 16.0745 23.3208 15.762L31.6542 7.42859ZM25.6483 18.0894C25.4919 18.2456 25.28 18.3335 25.059 18.3335H23.666V16.9405C23.666 16.7195 23.7538 16.5075 23.9101 16.3512L32.2434 8.01784C32.5688 7.6924 33.0965 7.6924 33.4219 8.01784L33.9816 8.57749C34.307 8.90292 34.307 9.43056 33.9816 9.75599L25.6483 18.0894Z" fill="white"/>
<path d="M25.3327 7.91674C25.3327 8.14686 25.1461 8.3334 24.916 8.3334H20.3327C19.8724 8.3334 19.4993 8.7065 19.4993 9.16674V21.6668C19.4993 22.127 19.8724 22.5001 20.3327 22.5001H32.8327C33.2929 22.5001 33.666 22.127 33.666 21.6668V17.0835C33.666 16.8533 33.8526 16.6668 34.0827 16.6668C34.3128 16.6668 34.4993 16.8533 34.4993 17.0835V21.6668C34.4993 22.5872 33.7532 23.3335 32.8327 23.3335H20.3327C19.4122 23.3335 18.666 22.5872 18.666 21.6668V9.16674C18.666 8.24626 19.4122 7.50007 20.3327 7.50007H24.916C25.1461 7.50007 25.3327 7.68662 25.3327 7.91674Z" fill="white"/>
</svg>
