<svg width="15" height="15" viewBox="0 0 15 15" fill="none" xmlns="http://www.w3.org/2000/svg">
<path fill-rule="evenodd" clip-rule="evenodd" d="M10.9911 1.82144C11.4792 1.33328 12.2708 1.33328 12.7589 1.82144L13.1786 2.24117C13.6667 2.72933 13.6667 3.52078 13.1786 4.00894L6.92863 10.259C6.69419 10.4933 6.37625 10.6251 6.04473 10.6251H5C4.65482 10.6251 4.375 10.3452 4.375 10.0001V8.95534C4.375 8.62378 4.50669 8.30584 4.74112 8.07146L10.9911 1.82144ZM6.48669 9.81703C6.36944 9.93421 6.21049 10.0001 6.04473 10.0001H5V8.95534C5 8.78959 5.06585 8.63059 5.18306 8.5134L11.4331 2.26338C11.6771 2.0193 12.0729 2.0193 12.3169 2.26338L12.7367 2.68311C12.9808 2.92719 12.9808 3.32292 12.7367 3.567L6.48669 9.81703Z" fill="white"/>
<path d="M6.25 2.18755C6.25 2.36015 6.11009 2.50005 5.9375 2.50005H2.5C2.15483 2.50005 1.875 2.77988 1.875 3.12505V12.5001C1.875 12.8452 2.15483 13.1251 2.5 13.1251H11.875C12.2202 13.1251 12.5 12.8452 12.5 12.5001V9.06259C12.5 8.88997 12.6399 8.75009 12.8125 8.75009C12.9851 8.75009 13.125 8.88997 13.125 9.06259V12.5001C13.125 13.1904 12.5654 13.7501 11.875 13.7501H2.5C1.80964 13.7501 1.25 13.1904 1.25 12.5001V3.12505C1.25 2.4347 1.80964 1.87505 2.5 1.87505H5.9375C6.11009 1.87505 6.25 2.01497 6.25 2.18755Z" fill="white"/>
</svg>
