<svg width="26" height="26" viewBox="0 0 26 26" fill="none" xmlns="http://www.w3.org/2000/svg">
<path fill-rule="evenodd" clip-rule="evenodd" d="M19.9823 1.64288C20.9585 0.666566 22.5415 0.666566 23.5177 1.64288L24.3573 2.48234C25.3335 3.45865 25.3335 5.04157 24.3573 6.01788L11.8573 18.5179C11.3884 18.9867 10.7525 19.2502 10.0895 19.2502H8C7.30965 19.2502 6.75 18.6904 6.75 18.0002V15.9107C6.75 15.2476 7.01339 14.6117 7.48224 14.1429L19.9823 1.64288ZM10.9734 17.6341C10.7389 17.8684 10.421 18.0002 10.0895 18.0002H8V15.9107C8 15.5792 8.1317 15.2612 8.36611 15.0268L20.8661 2.52675C21.3542 2.0386 22.1458 2.0386 22.6339 2.52675L23.4734 3.36623C23.9615 3.85438 23.9615 4.64584 23.4734 5.13399L10.9734 17.6341Z" fill="#7C7C7C"/>
<path d="M10.5 2.37511C10.5 2.72029 10.2202 3.00011 9.875 3.00011H3C2.30965 3.00011 1.75 3.55976 1.75 4.25011V23.0002C1.75 23.6904 2.30965 24.2502 3 24.2502H21.75C22.4404 24.2502 23 23.6904 23 23.0002V16.1252C23 15.7799 23.2799 15.5002 23.625 15.5002C23.9701 15.5002 24.25 15.7799 24.25 16.1252V23.0002C24.25 24.3808 23.1307 25.5002 21.75 25.5002H3C1.61929 25.5002 0.5 24.3808 0.5 23.0002V4.25011C0.5 2.86939 1.61929 1.75011 3 1.75011H9.875C10.2202 1.75011 10.5 2.02993 10.5 2.37511Z" fill="#7C7C7C"/>
</svg>
