<svg width="29" height="29" viewBox="0 0 29 29" fill="none" xmlns="http://www.w3.org/2000/svg">
<path fill-rule="evenodd" clip-rule="evenodd" d="M22.9767 0.86357C24.1281 -0.287857 25.995 -0.287857 27.1464 0.86357L28.1365 1.8536C29.2878 3.00503 29.2878 4.87186 28.1365 6.02328L13.3944 20.7654C12.8414 21.3182 12.0915 21.629 11.3095 21.629H8.84526C8.03108 21.629 7.37105 20.9688 7.37105 20.1548V17.6905C7.37105 16.9084 7.68168 16.1585 8.23463 15.6057L22.9767 0.86357ZM12.352 19.723C12.0754 19.9994 11.7005 20.1548 11.3095 20.1548H8.84526V17.6905C8.84526 17.2995 9.00058 16.9245 9.27704 16.6481L24.0192 1.90598C24.5948 1.33027 25.5283 1.33027 26.104 1.90598L27.0941 2.89603C27.6697 3.47173 27.6697 4.40515 27.0941 4.98086L12.352 19.723Z" fill="white"/>
<path d="M11.7937 1.72713C11.7937 2.13423 11.4637 2.46424 11.0566 2.46424H2.94842C2.13424 2.46424 1.47421 3.12427 1.47421 3.93844V26.0516C1.47421 26.8656 2.13424 27.5258 2.94842 27.5258H25.0616C25.8758 27.5258 26.5358 26.8656 26.5358 26.0516V17.9435C26.5358 17.5363 26.8659 17.2064 27.2729 17.2064C27.6799 17.2064 28.01 17.5363 28.01 17.9435V26.0516C28.01 27.6798 26.69 29 25.0616 29H2.94842C1.32005 29 0 27.6798 0 26.0516V3.93844C0 2.31008 1.32005 0.990031 2.94842 0.990031H11.0566C11.4637 0.990031 11.7937 1.32005 11.7937 1.72713Z" fill="white"/>
</svg>
