<svg width="22" height="15" viewBox="0 0 22 15" fill="none" xmlns="http://www.w3.org/2000/svg">
<g clip-path="url(#clip0_2293_1449)">
<path d="M11.005 -0.000193139C13.8995 -0.000193139 16.7941 -0.000193139 19.6893 -0.000193139C21.0799 -0.000193139 21.9976 0.900285 21.9982 2.27159C22.0003 5.75795 22.0003 9.24498 21.9982 12.7313C21.9976 14.086 21.0766 14.9971 19.7042 14.9978C13.8982 14.9998 8.09153 15.0005 2.28554 14.9978C0.929353 14.9971 0.00363362 14.0834 0.00228417 12.7473C-0.000414716 9.24432 -0.00108944 5.74069 0.00228417 2.23772C0.00430834 0.903605 0.934751 0.00047093 2.29567 -0.000193139C5.199 -0.000857209 8.10165 -0.000193139 11.005 -0.000193139ZM20.5928 13.9353C18.5383 11.6316 16.4939 9.33928 14.444 7.04027C13.4016 7.9454 12.3861 8.82794 11.37 9.7085C11.0758 9.9635 10.924 9.96018 10.6265 9.70252C10.1973 9.32998 9.76822 8.95744 9.33909 8.5849C8.75478 8.07821 8.17047 7.57153 7.57334 7.05289C5.51747 9.35787 3.47778 11.6463 1.43067 13.9413C1.68909 14.1398 1.9664 14.1764 2.25721 14.1757C4.17544 14.1744 6.09435 14.175 8.01259 14.175C11.9084 14.175 15.8043 14.1744 19.7001 14.1764C20.0098 14.1764 20.3033 14.1392 20.5914 13.9346L20.5928 13.9353ZM11.0009 8.94416C14.0966 6.25468 17.1665 3.58777 20.3 0.865753C20.0402 0.843839 19.8533 0.813956 19.6664 0.813956C15.4932 0.8113 11.3201 0.811964 7.14625 0.811964C5.53096 0.811964 3.915 0.810636 2.29971 0.81462C2.12496 0.81462 1.95088 0.847823 1.70933 0.872394C4.84139 3.59375 7.91138 6.26065 11.0003 8.94482L11.0009 8.94416ZM0.884821 13.3197C2.94138 11.0127 4.94125 8.77017 6.95395 6.513C4.97904 4.79771 3.02841 3.103 1.07779 1.40896L0.985355 1.4156C0.9361 1.67658 0.844338 1.93756 0.843663 2.19854C0.834217 5.73405 0.836916 9.27021 0.83894 12.8057C0.83894 12.9518 0.863905 13.0979 0.884146 13.321L0.884821 13.3197ZM21.0158 1.41826C20.9814 1.41892 20.947 1.41959 20.9126 1.42025C18.9674 3.11031 17.0228 4.80036 15.0655 6.50105C17.0802 8.75955 19.074 10.9955 21.0685 13.2321C21.0894 13.2261 21.1103 13.2194 21.1312 13.2135C21.142 13.0441 21.1623 12.8748 21.1629 12.7054C21.165 10.1641 21.1643 7.62266 21.1643 5.08127C21.1643 4.12102 21.1744 3.16078 21.1575 2.20053C21.1528 1.93889 21.0658 1.67924 21.0172 1.41826H21.0158Z" fill="white"/>
</g>
<defs>
<clipPath id="clip0_2293_1449">
<rect width="22" height="15" fill="white"/>
</clipPath>
</defs>
</svg>
