<svg width="30" height="30" viewBox="0 0 30 30" fill="none" xmlns="http://www.w3.org/2000/svg">
<g id="sliders-alt">
<g id="Vector">
<path fill-rule="evenodd" clip-rule="evenodd" d="M11.25 6.875C12.7618 6.875 14.0229 7.94855 14.3125 9.37489H25.625C25.9701 9.37489 26.25 9.65471 26.25 9.99989C26.25 10.3451 25.9701 10.6249 25.625 10.6249H14.3125C14.023 12.0514 12.7619 13.125 11.25 13.125C9.73811 13.125 8.47699 12.0514 8.18749 10.6249H4.375C4.02983 10.6249 3.75 10.3451 3.75 9.99989C3.75 9.65471 4.02983 9.37489 4.375 9.37489H8.18753C8.47711 7.94855 9.73819 6.875 11.25 6.875ZM13.125 10C13.125 8.96446 12.2855 8.125 11.25 8.125C10.2145 8.125 9.375 8.96446 9.375 10C9.375 11.0355 10.2145 11.875 11.25 11.875C12.2855 11.875 13.125 11.0355 13.125 10Z" fill="white"/>
<path fill-rule="evenodd" clip-rule="evenodd" d="M18.75 16.875C20.2617 16.875 21.5229 17.9485 21.8125 19.3749H25.625C25.9701 19.3749 26.25 19.6547 26.25 19.9999C26.25 20.3451 25.9701 20.6249 25.625 20.6249H21.8125C21.523 22.0514 20.2619 23.125 18.75 23.125C17.2381 23.125 15.977 22.0514 15.6875 20.6249H4.37502C4.02985 20.6249 3.75002 20.3451 3.75002 19.9999C3.75002 19.6547 4.02985 19.3749 4.37502 19.3749H15.6875C15.9771 17.9485 17.2381 16.875 18.75 16.875ZM20.625 20C20.625 18.9645 19.7855 18.125 18.75 18.125C17.7145 18.125 16.875 18.9645 16.875 20C16.875 21.0355 17.7145 21.875 18.75 21.875C19.7855 21.875 20.625 21.0355 20.625 20Z" fill="white"/>
</g>
</g>
</svg>
