<svg width="20" height="20" viewBox="0 0 20 20" fill="none" xmlns="http://www.w3.org/2000/svg">
<circle cx="10" cy="10" r="8.5" fill="white" stroke="#7FE698" stroke-width="3"/>
<path d="M12.8147 8.41834C12.7708 8.59323 12.8275 8.7402 12.9344 8.90309C13.1997 9.30774 12.956 9.84369 12.4769 9.95979C12.4034 9.97767 12.3657 10.0051 12.3419 10.0813C11.8977 11.5025 11.4497 12.9227 11.0017 14.3429C10.9141 14.6204 10.7048 14.7816 10.4363 14.7826C10.1642 14.7835 9.95343 14.6219 9.86433 14.3392C9.41535 12.9161 8.96662 11.4929 8.5209 10.069C8.50032 10.0036 8.46895 9.97914 8.40445 9.9642C7.84203 9.83266 7.63899 9.18282 8.02448 8.76224C8.05259 8.73162 8.07066 8.67676 8.06689 8.6356C7.95195 7.39054 8.83737 6.29048 10.1023 6.11093C11.399 5.92673 12.6092 6.8225 12.7856 8.09819C12.7999 8.20082 12.8044 8.30493 12.8145 8.41858L12.8147 8.41834ZM12.551 8.4007C12.5412 8.29782 12.5346 8.19102 12.5203 8.08545C12.3665 6.96016 11.1945 6.14645 10.0533 6.37155C8.91216 6.59666 8.19464 7.57449 8.34522 8.70076C8.35576 8.77988 8.33894 8.83891 8.27143 8.89304C8.05435 9.06745 8.02774 9.35673 8.20342 9.56175C8.37282 9.75967 8.66671 9.7822 8.8848 9.61417C8.9887 9.53383 9.05094 9.54264 9.12473 9.64822C9.29162 9.88729 9.56217 9.95759 9.82292 9.82335C9.89671 9.78539 9.95418 9.79151 10.0222 9.83511C10.2965 10.0107 10.5741 10.01 10.8476 9.83364C10.9164 9.78931 10.9739 9.78735 11.0469 9.82507C11.3021 9.95661 11.5762 9.88631 11.7388 9.65361C11.8166 9.54215 11.8771 9.53285 11.9845 9.61613C12.2001 9.78318 12.4962 9.75844 12.6651 9.55906C12.8368 9.35673 12.8115 9.06769 12.5994 8.89672C12.5291 8.84014 12.51 8.77963 12.5218 8.69684C12.5354 8.60033 12.5412 8.5026 12.5507 8.40094L12.551 8.4007ZM11.007 13.3006C10.8193 13.1779 10.6413 13.0611 10.4621 12.9457C10.4496 12.9376 10.4237 12.9344 10.4124 12.9415C10.2307 13.0584 10.0503 13.1772 9.86182 13.3009C10.046 13.4219 10.2187 13.5365 10.3934 13.6477C10.4119 13.6595 10.4503 13.6627 10.4674 13.6519C10.6446 13.5395 10.8195 13.4233 11.0067 13.3006H11.007ZM11.0065 11.1801C10.819 11.0569 10.6413 10.9393 10.4621 10.8242C10.4483 10.8154 10.4177 10.8166 10.4034 10.8259C10.225 10.9408 10.048 11.0581 9.86258 11.1804C10.047 11.3014 10.22 11.416 10.3951 11.5277C10.4132 11.5392 10.4508 11.5422 10.4677 11.5314C10.6456 11.4185 10.821 11.3021 11.0065 11.1804V11.1801ZM10.4343 11.8647C10.2418 11.9909 10.0556 12.1131 9.86182 12.2403C10.0468 12.362 10.2225 12.4788 10.4004 12.592C10.4175 12.6028 10.4556 12.5996 10.4739 12.5881C10.6494 12.4764 10.8225 12.3617 11.0067 12.2407C10.813 12.1134 10.627 11.9914 10.4343 11.865V11.8647ZM11.8156 10.6496C11.6294 10.5276 11.4542 10.411 11.2765 10.2983C11.2595 10.2875 11.2213 10.2907 11.203 10.3025C11.0278 10.4142 10.8547 10.529 10.6707 10.6498C10.8557 10.7711 11.0336 10.8886 11.213 11.0038C11.2268 11.0126 11.2567 11.0138 11.2703 11.0052C11.45 10.8901 11.6281 10.7725 11.8156 10.6496ZM9.05345 10.6496C9.24143 10.773 9.42213 10.8921 9.60383 11.0091C9.61512 11.0165 9.64097 11.014 9.65327 11.006C9.83271 10.8903 10.0109 10.7728 10.1979 10.6503C10.0119 10.5281 9.83698 10.4115 9.65929 10.2986C9.64197 10.2875 9.60358 10.2905 9.58525 10.3022C9.41008 10.4139 9.23691 10.5288 9.0532 10.6493L9.05345 10.6496ZM9.26703 11.5703C9.30116 11.6791 9.33077 11.7783 9.36415 11.876C9.37243 11.9003 9.38824 11.9262 9.40807 11.9422C9.53891 12.048 9.67477 12.0543 9.81564 11.9613C9.84676 11.9409 9.87788 11.9206 9.90875 11.9C10.0021 11.8383 10.0955 11.7766 10.1971 11.7097C10.0109 11.5875 9.83823 11.4728 9.66356 11.3616C9.64574 11.3504 9.60859 11.3491 9.59103 11.3599C9.48311 11.4263 9.37821 11.4973 9.26728 11.5703H9.26703ZM10.6704 11.7104C10.8559 11.8324 11.0313 11.948 11.2073 12.0629C11.2196 12.071 11.2422 12.0828 11.2482 12.0781C11.3358 12.0098 11.4643 11.9877 11.5057 11.8677C11.5335 11.7871 11.5606 11.7058 11.5805 11.6232C11.5862 11.599 11.5747 11.5573 11.5556 11.5434C11.4685 11.4797 11.3772 11.4207 11.2843 11.3651C11.264 11.3531 11.2233 11.3511 11.2043 11.3628C11.0291 11.4736 10.8564 11.5882 10.6702 11.7102L10.6704 11.7104ZM10.0992 14.2062C10.1075 14.2366 10.1128 14.2603 10.1203 14.2836C10.1715 14.4401 10.2822 14.5256 10.433 14.5259C10.5844 14.5259 10.6923 14.4399 10.748 14.2851C10.7696 14.2253 10.759 14.1917 10.7023 14.1599C10.6268 14.1175 10.5585 14.0622 10.4825 14.0205C10.4574 14.0068 10.4102 14.0061 10.3858 14.0205C10.2897 14.0766 10.1984 14.141 10.0992 14.2064V14.2062ZM11.1275 13.0701C11.1915 12.8683 11.2529 12.6772 11.3109 12.4854C11.3159 12.4688 11.3021 12.4369 11.2868 12.4271C11.268 12.4149 11.2309 12.4068 11.215 12.4171C11.0348 12.531 10.8574 12.6488 10.6704 12.7711C10.826 12.873 10.9721 12.9685 11.1275 13.0704V13.0701ZM9.7401 13.0711C9.89846 12.9673 10.043 12.8725 10.1979 12.7711C10.0119 12.6493 9.83422 12.5315 9.65427 12.4176C9.63821 12.4076 9.60157 12.4151 9.58249 12.4269C9.56693 12.4365 9.55087 12.4681 9.55564 12.484C9.61336 12.676 9.6751 12.8671 9.73985 13.0714L9.7401 13.0711ZM8.9099 10.4335C9.06926 10.3289 9.21608 10.2327 9.34784 10.1462C9.22888 10.0641 9.11092 9.98184 8.99146 9.90198C8.97716 9.89243 8.95081 9.88876 8.93474 9.89463C8.87702 9.91619 8.82131 9.94289 8.76283 9.96836C8.81077 10.12 8.85745 10.2679 8.9099 10.4338V10.4335ZM12.1047 9.96738C12.0425 9.94093 11.9918 9.91741 11.9393 9.89806C11.9218 9.89169 11.8944 9.88778 11.8814 9.89659C11.7596 9.97816 11.6402 10.0627 11.52 10.1464C11.652 10.2327 11.799 10.3287 11.9572 10.432C12.0084 10.2711 12.0558 10.121 12.1047 9.96738ZM10.9959 10.1264C10.9937 10.1168 10.9914 10.1075 10.9892 10.0979C10.9591 10.1006 10.9244 10.0948 10.8991 10.1072C10.5864 10.2603 10.2757 10.2596 9.96346 10.1053C9.94012 10.0938 9.90599 10.1038 9.87663 10.1038C9.87563 10.1121 9.87487 10.1205 9.87387 10.1288C10.05 10.2439 10.2257 10.3598 10.4029 10.4734C10.417 10.4825 10.4468 10.4845 10.4601 10.4761C10.6396 10.3613 10.8175 10.2437 10.9957 10.1268L10.9959 10.1264ZM9.11092 10.9986C9.1049 11.004 9.09888 11.0096 9.09285 11.015C9.12297 11.1106 9.15309 11.2061 9.18647 11.3124C9.26025 11.2644 9.32073 11.2247 9.3895 11.1799C9.28961 11.115 9.20027 11.0567 9.11092 10.9984V10.9986ZM11.7737 11.0148C11.7672 11.0096 11.7607 11.0045 11.7541 10.9996C11.6653 11.0581 11.5767 11.1167 11.4791 11.1811C11.5503 11.2267 11.6118 11.2659 11.6816 11.3104C11.7147 11.2039 11.7443 11.1093 11.7737 11.0148ZM9.9213 13.6497C9.95819 13.7643 9.98655 13.8525 10.0177 13.9488C10.0819 13.9066 10.1346 13.8721 10.1971 13.8312C10.1048 13.7704 10.0255 13.718 9.9213 13.6497ZM10.6704 13.8314C10.7359 13.8741 10.7889 13.9083 10.8509 13.9488C10.8823 13.8483 10.9096 13.7606 10.9435 13.6524C10.8439 13.7178 10.7643 13.7699 10.6704 13.8317V13.8314Z" fill="#7FE698"/>
</svg>
