<svg width="100" height="100" viewBox="0 0 100 100" fill="none" xmlns="http://www.w3.org/2000/svg">
<g clip-path="url(#clip0_2673_984)">
<circle cx="50" cy="50" r="42.5" fill="white" stroke="#F2CC3B" stroke-width="15"/>
<g clip-path="url(#clip1_2673_984)">
<path d="M62.3222 64.3858C62.6469 64.3858 62.8368 64.3858 63.0267 64.3858C65.7936 64.3858 68.5605 64.3858 71.3261 64.3858C72.2244 64.3858 72.5072 64.6937 72.4221 65.6094C72.3174 66.7513 71.7268 67.6054 70.8403 68.2614C69.5609 69.2079 68.0891 69.643 66.5504 69.8451C65.7255 69.9536 64.8874 69.9911 64.0546 69.9911C55.4278 70.0018 46.7997 69.9964 38.1729 69.9978C36.1026 69.9978 34.0939 69.7086 32.2462 68.6804C31.0899 68.0365 30.2375 67.1369 30.0293 65.7393C29.8905 64.8075 30.2414 64.3858 31.1659 64.3845C33.6539 64.3831 36.1432 64.3845 38.6312 64.3845H39.1537C38.2672 63.3938 37.3676 62.4969 36.5871 61.5008C34.1528 58.3937 32.7648 54.842 32.4413 50.8727C32.3693 49.9918 32.3575 49.1056 32.3549 48.2207C32.351 46.8538 33.2702 45.8899 34.6072 45.8163C34.7211 45.8096 34.8363 45.8123 34.9503 45.8123C45.5098 45.8123 56.0681 45.8123 66.6277 45.8163C66.9367 45.8163 67.2536 45.8391 67.5522 45.9114C68.44 46.1256 69.1183 46.9315 69.2008 47.8713C69.2349 48.2648 69.2061 48.6651 69.2061 48.9837C70.0638 49.0386 70.8599 48.9931 71.6142 49.1524C74.3588 49.7348 75.7128 52.4966 74.6168 55.1968C74.0249 56.6573 72.98 57.7671 71.8237 58.7645C69.6539 60.6374 67.1751 61.9092 64.4304 62.6562C64.1489 62.7325 63.8752 62.9145 63.6487 63.11C63.2244 63.4741 62.8368 63.8824 62.3182 64.3831L62.3222 64.3858ZM50.825 47.4174H49.0572C44.3444 47.4174 39.6303 47.4174 34.9175 47.4174C34.1423 47.4174 33.9001 47.6437 33.9289 48.4268C33.9708 49.5768 33.9616 50.7388 34.1345 51.87C34.928 57.0697 37.4789 61.1715 41.7032 64.185C41.8761 64.3082 42.1249 64.3764 42.3383 64.3764C47.9677 64.3871 53.5985 64.3871 59.2279 64.3751C59.4688 64.3751 59.7556 64.2867 59.9442 64.1381C60.7456 63.5063 61.5758 62.8958 62.292 62.1702C65.9939 58.4231 67.7447 53.8567 67.6661 48.546C67.6517 47.5941 67.4854 47.4161 66.5374 47.4161C61.3008 47.4161 56.0629 47.4161 50.8263 47.4161L50.825 47.4174ZM70.6871 66.0257H31.7394C32.1401 66.8183 32.7844 67.2252 33.4902 67.5425C34.9856 68.2146 36.5688 68.398 38.186 68.398C46.8743 68.3953 55.5627 68.398 64.2523 68.394C64.7264 68.394 65.203 68.3886 65.6744 68.3458C66.9852 68.2253 68.2632 67.9589 69.43 67.3016C69.9459 67.0111 70.4095 66.6536 70.6871 66.0271V66.0257ZM69.134 51.5099C69.8137 51.5099 70.5011 51.4283 71.1637 51.5287C72.2728 51.696 72.9197 52.8031 72.5557 53.8955C72.3711 54.4524 72.0921 55.0094 71.7346 55.4672C70.4789 57.0804 68.8276 58.2009 67.031 59.0804C66.3933 59.3937 66.1393 59.9211 65.7517 60.5544C68.2763 59.5235 70.4566 58.1848 72.1707 56.1553C72.5609 55.6934 72.9066 55.1633 73.1476 54.6077C73.7879 53.1351 73.2851 51.5822 72.0031 50.9557C71.3091 50.6157 70.5561 50.546 69.7966 50.6451C69.1039 50.7348 69.0777 50.783 69.134 51.5099ZM67.7958 56.8207C68.8708 56.1004 69.8582 55.3414 70.6216 54.3226C70.7958 54.091 70.9188 53.8099 71.0223 53.5341C71.1218 53.2677 71.0197 53.0401 70.7133 53.0669C70.1345 53.1164 69.557 53.2007 68.9834 53.2985C68.8879 53.3145 68.7713 53.4551 68.7399 53.5609C68.423 54.6225 68.1218 55.6894 67.7971 56.8207H67.7958Z" fill="#F2CC3B"/>
<path d="M50.637 25.7218C50.4746 26.0552 50.3751 26.2988 50.2442 26.5224C49.7099 27.43 49.2555 28.3631 49.1403 29.4368C49.0159 30.5975 49.3707 31.5841 50.1852 32.3847C50.726 32.9162 51.3074 33.4075 51.8797 33.9068C53.0359 34.9149 53.891 36.0956 54.0259 37.7034C54.1163 38.7784 53.9107 39.8066 53.4733 40.7718C53.125 41.5402 52.702 42.2765 52.2725 43.0035C51.97 43.5162 51.5117 43.6287 51.1123 43.3622C50.7143 43.0972 50.6462 42.6259 50.9617 42.1346C51.6374 41.0824 52.245 40.0047 52.4297 38.7289C52.5829 37.6713 52.3524 36.7155 51.6401 35.9457C51.0482 35.3044 50.383 34.7301 49.7217 34.1598C48.2158 32.8626 47.3437 31.2909 47.5833 29.2146C47.7496 27.7687 48.3533 26.501 49.1507 25.3202C49.3629 25.0056 49.7177 24.9173 50.0242 25.0779C50.2664 25.2051 50.4288 25.4916 50.6383 25.7205L50.637 25.7218Z" fill="#F2CC3B"/>
<path d="M44.7828 27.3523C45.5174 27.367 45.85 28.0096 45.5397 28.5946C45.338 28.9748 45.0958 29.335 44.9137 29.7259C44.1176 31.4341 44.369 32.5907 45.778 33.8009C46.2284 34.1878 46.6985 34.5533 47.1281 34.9616C48.486 36.2522 48.9037 37.8332 48.2896 39.6057C47.9779 40.504 47.4672 41.3366 46.9984 42.1707C46.7352 42.6392 46.2415 42.7182 45.8631 42.4438C45.4978 42.1787 45.4218 41.7342 45.7073 41.2951C46.2415 40.4718 46.7418 39.6405 46.9264 38.6458C47.0927 37.7515 46.8662 36.9804 46.2533 36.3499C45.8055 35.8894 45.304 35.4837 44.8116 35.0701C43.7928 34.216 43.0163 33.2146 42.9181 31.8116C42.8055 30.2065 43.4471 28.8543 44.3454 27.6067C44.4554 27.454 44.6977 27.4005 44.7841 27.3523H44.7828Z" fill="#F2CC3B"/>
<path d="M58.6857 36.8897C58.6359 38.286 57.9471 39.6341 57.0187 40.8711C56.7568 41.2192 56.3548 41.2326 56.0025 40.9809C55.6673 40.7412 55.5861 40.3905 55.7511 40.0063C55.8218 39.8403 55.9462 39.6984 56.034 39.5391C56.2906 39.0745 56.584 38.6247 56.7843 38.1361C57.4246 36.5765 57.1758 35.5416 55.9266 34.4278C55.4827 34.0329 55.0126 33.6687 54.5713 33.2698C53.0824 31.9244 52.6883 30.259 53.326 28.3701C53.5682 27.6538 53.9702 26.9885 54.3461 26.3272C54.5949 25.8881 55.0728 25.7917 55.4434 26.0286C55.8349 26.2776 55.8899 26.7248 55.6451 27.2134C55.319 27.8627 54.9576 28.5066 54.7376 29.1961C54.4142 30.2148 54.6643 31.1533 55.4395 31.8949C55.9528 32.3849 56.5106 32.8253 57.0449 33.2926C58.0597 34.1828 58.6896 35.2699 58.6843 36.8884L58.6857 36.8897Z" fill="#F2CC3B"/>
</g>
</g>
<defs>
<clipPath id="clip0_2673_984">
<rect width="100" height="100" fill="white"/>
</clipPath>
<clipPath id="clip1_2673_984">
<rect width="45" height="45" fill="white" transform="translate(30 25)"/>
</clipPath>
</defs>
</svg>
