<svg width="23" height="23" viewBox="0 0 23 23" fill="none" xmlns="http://www.w3.org/2000/svg">
<circle cx="11.5" cy="11.5" r="10" fill="white" stroke="#2467FF" stroke-width="3"/>
<path d="M14.7368 9.13487C14.6863 9.37003 14.7515 9.56764 14.8745 9.78667C15.1796 10.3308 14.8993 11.0514 14.3484 11.2075C14.2638 11.2316 14.2205 11.2685 14.1931 11.3709C13.6822 13.2818 13.1671 15.1915 12.6519 17.1011C12.5512 17.4743 12.3105 17.691 12.0016 17.6923C11.6888 17.6936 11.4463 17.4762 11.3439 17.0962C10.8276 15.1826 10.3115 13.269 9.79893 11.3544C9.77527 11.2665 9.73919 11.2335 9.66502 11.2135C9.01823 11.0366 8.78474 10.1628 9.22805 9.59729C9.26038 9.55612 9.28116 9.48234 9.27683 9.42701C9.14465 7.75287 10.1629 6.27371 11.6175 6.03229C13.1088 5.78461 14.5005 6.98908 14.7034 8.70439C14.7198 8.84239 14.725 8.98237 14.7365 9.1352L14.7368 9.13487ZM14.4335 9.11115C14.4222 8.97282 14.4147 8.82922 14.3983 8.68726C14.2214 7.17418 12.8735 6.08005 11.5612 6.38273C10.2489 6.68541 9.42374 8.00022 9.5969 9.51462C9.60903 9.621 9.58969 9.70038 9.51205 9.77317C9.2624 10.0077 9.23181 10.3966 9.43384 10.6723C9.62865 10.9384 9.96662 10.9687 10.2174 10.7428C10.3369 10.6348 10.4085 10.6466 10.4933 10.7886C10.6853 11.11 10.9964 11.2046 11.2963 11.0241C11.3811 10.973 11.4472 10.9813 11.5254 11.0399C11.8409 11.276 12.1601 11.275 12.4747 11.0379C12.5538 10.9783 12.6198 10.9757 12.7038 11.0264C12.9974 11.2032 13.3125 11.1087 13.4995 10.7958C13.589 10.646 13.6586 10.6335 13.7821 10.7454C14.03 10.9701 14.3706 10.9368 14.5648 10.6687C14.7622 10.3966 14.7331 10.008 14.4892 9.77811C14.4084 9.70202 14.3865 9.62067 14.4 9.50935C14.4156 9.37958 14.4222 9.24817 14.4332 9.11148L14.4335 9.11115ZM12.6579 15.6997C12.4421 15.5347 12.2374 15.3776 12.0314 15.2224C12.0169 15.2116 11.9872 15.2073 11.9742 15.2168C11.7653 15.3739 11.5577 15.5337 11.341 15.7C11.5528 15.8627 11.7514 16.0168 11.9523 16.1664C11.9736 16.1822 12.0178 16.1865 12.0374 16.172C12.2412 16.0208 12.4423 15.8647 12.6577 15.6997H12.6579ZM12.6574 12.8484C12.4418 12.6827 12.2374 12.5246 12.0314 12.3698C12.0155 12.358 11.9803 12.3596 11.9638 12.3721C11.7586 12.5266 11.5551 12.6844 11.3419 12.8487C11.554 13.0114 11.7528 13.1656 11.9543 13.3158C11.9751 13.3312 12.0184 13.3352 12.0377 13.3207C12.2423 13.1689 12.4441 13.0124 12.6574 12.8487V12.8484ZM11.9993 13.769C11.778 13.9386 11.5638 14.1029 11.341 14.2739C11.5537 14.4376 11.7557 14.5947 11.9604 14.7468C11.98 14.7613 12.0239 14.757 12.0449 14.7416C12.2467 14.5914 12.4458 14.4372 12.6577 14.2745C12.4348 14.1033 12.221 13.9392 11.9993 13.7693V13.769ZM13.5879 12.135C13.3737 11.971 13.1723 11.8142 12.9679 11.6627C12.9483 11.6482 12.9044 11.6525 12.8834 11.6683C12.6819 11.8185 12.4828 11.973 12.2712 12.1353C12.4839 12.2984 12.6885 12.4565 12.8949 12.6113C12.9108 12.6231 12.9451 12.6248 12.9607 12.6132C13.1673 12.4584 13.3723 12.3003 13.5879 12.135ZM10.4114 12.135C10.6275 12.301 10.8353 12.4611 11.0443 12.6185C11.0573 12.6284 11.087 12.6251 11.1012 12.6142C11.3075 12.4588 11.5124 12.3007 11.7275 12.136C11.5136 11.9716 11.3124 11.8149 11.1081 11.663C11.0882 11.6482 11.044 11.6522 11.0229 11.668C10.8215 11.8182 10.6223 11.9726 10.4111 12.1347L10.4114 12.135ZM10.657 13.3731C10.6962 13.5193 10.7303 13.6527 10.7687 13.7841C10.7782 13.8167 10.7964 13.8516 10.8192 13.873C10.9696 14.0153 11.1259 14.0239 11.2879 13.8987C11.3237 13.8714 11.3595 13.8441 11.395 13.8164C11.5023 13.7334 11.6097 13.6504 11.7266 13.5605C11.5124 13.3961 11.3139 13.242 11.113 13.0925C11.0925 13.0773 11.0498 13.0757 11.0296 13.0902C10.9055 13.1794 10.7848 13.2749 10.6573 13.3731H10.657ZM12.2709 13.5615C12.4842 13.7255 12.6859 13.8809 12.8883 14.0354C12.9024 14.0463 12.9284 14.0621 12.9353 14.0558C13.036 13.9639 13.1838 13.9343 13.2314 13.7729C13.2635 13.6646 13.2946 13.5552 13.3174 13.4442C13.3241 13.4116 13.3108 13.3556 13.2889 13.3368C13.1887 13.2512 13.0836 13.1718 12.9769 13.0971C12.9535 13.0809 12.9067 13.0783 12.8848 13.0941C12.6833 13.243 12.4848 13.3971 12.2706 13.5611L12.2709 13.5615ZM11.614 16.9173C11.6236 16.9582 11.6296 16.9901 11.6383 17.0214C11.6971 17.2319 11.8244 17.3468 11.9979 17.3471C12.1719 17.3471 12.296 17.2315 12.3601 17.0234C12.3849 16.943 12.3728 16.8979 12.3076 16.8551C12.2207 16.7981 12.1422 16.7237 12.0547 16.6677C12.0259 16.6492 11.9716 16.6482 11.9436 16.6677C11.8331 16.7431 11.728 16.8297 11.614 16.9176V16.9173ZM12.7965 15.3897C12.8701 15.1184 12.9408 14.8615 13.0075 14.6036C13.0132 14.5812 12.9974 14.5383 12.9797 14.5252C12.9581 14.5087 12.9154 14.4978 12.8972 14.5117C12.69 14.6648 12.4859 14.8232 12.2709 14.9876C12.4499 15.1246 12.6178 15.2531 12.7965 15.3901V15.3897ZM11.201 15.3911C11.3831 15.2514 11.5494 15.124 11.7275 14.9876C11.5136 14.8239 11.3093 14.6655 11.1023 14.5123C11.0838 14.4988 11.0417 14.509 11.0198 14.5248C11.0019 14.5377 10.9834 14.5802 10.9889 14.6016C11.0553 14.8598 11.1263 15.1167 11.2007 15.3914L11.201 15.3911ZM10.2463 11.8445C10.4296 11.7039 10.5984 11.5744 10.7499 11.4582C10.6131 11.3478 10.4775 11.2372 10.3401 11.1298C10.3236 11.117 10.2933 11.112 10.2749 11.1199C10.2085 11.1489 10.1444 11.1848 10.0772 11.2191C10.1323 11.4229 10.186 11.6219 10.2463 11.8448V11.8445ZM13.9203 11.2177C13.8488 11.1822 13.7905 11.1505 13.7301 11.1245C13.7099 11.116 13.6785 11.1107 13.6635 11.1226C13.5235 11.2322 13.3861 11.3459 13.2479 11.4585C13.3997 11.5744 13.5688 11.7035 13.7506 11.8425C13.8095 11.6261 13.8641 11.4242 13.9203 11.2177ZM12.6452 11.4315C12.6426 11.4186 12.64 11.4061 12.6375 11.3933C12.6028 11.3969 12.563 11.389 12.5338 11.4058C12.1742 11.6117 11.8169 11.6107 11.4579 11.4032C11.431 11.3877 11.3918 11.4012 11.358 11.4012C11.3569 11.4124 11.356 11.4236 11.3549 11.4348C11.5575 11.5896 11.7595 11.7454 11.9632 11.8982C11.9794 11.9104 12.0138 11.913 12.0291 11.9018C12.2354 11.7474 12.44 11.5893 12.645 11.4322L12.6452 11.4315ZM10.4775 12.6043C10.4705 12.6116 10.4636 12.6192 10.4567 12.6264C10.4913 12.7549 10.526 12.8833 10.5643 13.0263C10.6492 12.9617 10.7187 12.9083 10.7978 12.8481C10.683 12.7608 10.5802 12.6824 10.4775 12.604V12.6043ZM13.5397 12.6261C13.5322 12.6192 13.5247 12.6122 13.5171 12.6057C13.415 12.6844 13.3131 12.7631 13.2008 12.8497C13.2828 12.911 13.3535 12.9637 13.4337 13.0236C13.4718 12.8803 13.5059 12.7532 13.5397 12.6261ZM11.4094 16.169C11.4518 16.3232 11.4844 16.4417 11.5202 16.5712C11.5941 16.5145 11.6547 16.4681 11.7266 16.4131C11.6204 16.3314 11.5292 16.2609 11.4094 16.169ZM12.2709 16.4134C12.3462 16.4707 12.4071 16.5168 12.4784 16.5712C12.5145 16.4361 12.546 16.3182 12.5849 16.1726C12.4703 16.2606 12.3789 16.3307 12.2709 16.4137V16.4134Z" fill="#2467FF"/>
</svg>
