<svg width="23" height="15" viewBox="0 0 23 15" fill="none" xmlns="http://www.w3.org/2000/svg">
<path d="M23 14.1922C22.8464 14.5761 22.6195 14.8845 22.1844 14.9727C22.083 14.9931 21.9768 14.9991 21.873 14.9997C14.9571 15.0009 8.04175 15.0009 1.12584 15.0003C0.421292 15.0003 0 14.5743 0 13.8641C0 9.62224 0 5.38042 0 1.13799C0 0.427122 0.420691 0.00299945 1.12644 0.00299945C8.04235 0.00239956 14.9583 0.00419923 21.8736 0C22.4575 0 22.7996 0.298146 23 0.811052V14.1922ZM11.5033 0.721068C8.07535 0.721068 4.64681 0.721068 1.21886 0.721068C0.796973 0.721068 0.718956 0.797254 0.718956 1.21298C0.718956 5.40321 0.718956 9.59284 0.718956 13.7831C0.718956 14.2042 0.796373 14.2822 1.21226 14.2822C8.06875 14.2822 14.9252 14.2822 21.7817 14.2822C22.203 14.2822 22.2816 14.2048 22.2816 13.7897C22.2816 9.59944 22.2816 5.40981 22.2816 1.21958C22.2816 0.800254 22.2036 0.721068 21.7877 0.721068C18.3598 0.721068 14.9312 0.721068 11.5033 0.721068Z" fill="white"/>
<path d="M2.15348 7.48846C2.15348 6.11231 2.15348 4.73617 2.15348 3.36002C2.15348 2.99169 2.2663 2.87891 2.63478 2.87891C5.39598 2.87891 8.15718 2.87891 10.9178 2.87891C11.2707 2.87891 11.3937 2.99708 11.3937 3.34862C11.3949 6.11591 11.3949 8.88321 11.3937 11.6511C11.3937 12.0026 11.2701 12.1214 10.9178 12.1214C8.14938 12.1214 5.38098 12.122 2.61198 12.1214C2.2741 12.1214 2.15288 12.0002 2.15288 11.6625C2.15168 10.2714 2.15288 8.88021 2.15288 7.48906L2.15348 7.48846ZM2.89164 3.60237V11.3907H10.6555V3.60237H2.89224H2.89164Z" fill="white"/>
<path d="M16.8631 8.99286C15.703 8.99286 14.543 8.99286 13.3829 8.99286C13.3007 8.99286 13.2167 8.99706 13.1368 8.98326C12.961 8.95267 12.8584 8.84409 12.8452 8.66472C12.832 8.48715 12.91 8.35578 13.0828 8.30479C13.1735 8.27779 13.2743 8.27659 13.3709 8.27659C15.706 8.27539 18.0405 8.27539 20.3756 8.27539C20.7417 8.27539 20.9163 8.38937 20.9211 8.63053C20.9259 8.87408 20.7525 8.99346 20.3882 8.99346C19.2132 8.99346 18.0381 8.99346 16.8631 8.99346V8.99286Z" fill="white"/>
<path d="M16.8711 10.5549C18.0462 10.5549 19.2212 10.5549 20.3963 10.5549C20.4635 10.5549 20.5319 10.5495 20.5979 10.5591C20.796 10.5879 20.9094 10.7109 20.916 10.9053C20.922 11.0912 20.814 11.2148 20.6339 11.2604C20.5631 11.2784 20.4851 11.2724 20.4107 11.2724C18.0534 11.2724 15.6955 11.2724 13.3382 11.2724C13.2709 11.2724 13.2007 11.279 13.1371 11.264C12.9475 11.219 12.8353 11.0996 12.8443 10.8969C12.8533 10.6953 12.9715 10.5849 13.1671 10.5579C13.2331 10.5489 13.3016 10.5543 13.3688 10.5543C14.5366 10.5543 15.7039 10.5543 16.8717 10.5543L16.8711 10.5549Z" fill="white"/>
<path d="M16.6246 6.72633C15.5329 6.72633 14.4407 6.72693 13.3491 6.72513C13.2602 6.72513 13.1672 6.72273 13.0838 6.69694C12.9116 6.64474 12.8329 6.51517 12.8449 6.3376C12.8575 6.15823 12.9596 6.04965 13.1348 6.01786C13.2074 6.00466 13.2836 6.00826 13.3587 6.00826C15.5425 6.00826 17.7264 6.00826 19.9103 6.00826C19.9325 6.00826 19.9553 6.00826 19.9775 6.00826C20.2626 6.01366 20.4228 6.14444 20.4192 6.3694C20.4156 6.59255 20.2536 6.72513 19.9679 6.72573C18.8534 6.72753 17.739 6.72633 16.6246 6.72633Z" fill="white"/>
<path d="M15.4771 4.45079C14.7444 4.45079 14.0122 4.45139 13.2794 4.45079C12.9908 4.45079 12.8365 4.32361 12.8359 4.09386C12.8359 3.8635 12.9908 3.73392 13.2776 3.73332C14.7504 3.73212 16.2231 3.73212 17.6958 3.73332C17.9773 3.73332 18.1435 3.8701 18.1435 4.09266C18.1435 4.31701 17.9809 4.45019 17.697 4.45079C16.957 4.45199 16.2171 4.45079 15.4771 4.45079Z" fill="white"/>
<path d="M6.76577 8.30609C6.9038 8.06794 7.02023 7.86037 7.14326 7.65701C7.28849 7.41646 7.46013 7.38106 7.71278 7.50644C8.14667 7.7218 8.58897 7.92036 9.02166 8.13872C9.12909 8.19271 9.24131 8.2767 9.30193 8.37688C9.6278 8.91858 9.73042 9.50647 9.57258 10.1208C9.53838 10.2533 9.42375 10.4111 9.30373 10.4699C7.60896 11.2965 5.90639 11.2953 4.21402 10.4615C4.09939 10.4051 3.98957 10.2545 3.95896 10.1274C3.81433 9.53047 3.89115 8.95097 4.20562 8.42007C4.27823 8.29709 4.41806 8.19691 4.54889 8.12912C4.94618 7.92336 5.35967 7.74999 5.75575 7.54243C6.09123 7.36726 6.23526 7.39546 6.4303 7.7296C6.53532 7.91017 6.64095 8.09013 6.76697 8.30609H6.76577ZM5.92679 8.29709C5.65073 8.42667 5.40528 8.58504 5.13702 8.65643C4.76614 8.75481 4.67732 9.01936 4.62811 9.3319C4.61071 9.44168 4.62091 9.55566 4.61131 9.66724C4.5975 9.82561 4.67312 9.9024 4.81715 9.96179C5.9772 10.4399 7.15166 10.4957 8.34412 10.0998C8.96825 9.8928 9.04987 9.72303 8.84463 9.08355C8.82182 9.01276 8.79542 8.94138 8.75881 8.87719C8.7348 8.8346 8.69639 8.789 8.65318 8.76981C8.30811 8.61384 7.96003 8.46386 7.59816 8.30609C7.44272 8.57544 7.28789 8.84719 7.12885 9.11654C6.91221 9.48428 6.61574 9.48068 6.39729 9.10875C6.23946 8.83939 6.08403 8.56884 5.92619 8.29709H5.92679Z" fill="white"/>
<path d="M8.26639 5.4488C8.23098 5.91612 8.13796 6.42123 7.8475 6.86694C7.35059 7.6294 6.46359 7.71339 5.85386 7.03791C5.35875 6.48901 5.18652 5.82014 5.30594 5.09907C5.42777 4.3654 6.17493 3.8369 6.90649 3.92088C7.68786 4.01087 8.27299 4.64435 8.26699 5.4482L8.26639 5.4488ZM7.60024 5.43441C7.55283 5.00668 7.22396 4.65875 6.80627 4.63415C6.39158 4.60896 6.00089 4.9365 5.98769 5.36002C5.97449 5.76974 6.06391 6.16507 6.32376 6.49921C6.62743 6.88854 7.03612 6.87894 7.25817 6.44222C7.4172 6.12908 7.48922 5.77214 7.60024 5.43501V5.43441Z" fill="white"/>
</svg>
