<svg width="35" height="35" viewBox="0 0 35 35" fill="none" xmlns="http://www.w3.org/2000/svg">
<g id="Group 1533">
<g id="Group 1519">
<g id="Group 562">
<path id="Vector" d="M10.7877 26.1974C10.273 26.1974 9.75837 26.1999 9.24306 26.1968C8.91974 26.1949 8.81093 26.0856 8.80468 25.7588C8.78654 24.7536 8.77466 23.7477 8.75027 22.7425C8.74527 22.5307 8.80968 22.3757 8.95977 22.2258C11.2361 19.9579 13.5068 17.6844 15.7832 15.4165C15.9114 15.2891 15.952 15.1804 15.917 14.9936C15.3529 12.0141 17.2872 9.28763 20.2946 8.80968C22.9956 8.38047 25.6978 10.316 26.1662 13.0156C26.669 15.9126 24.8642 18.5441 21.9743 19.1139C21.3258 19.2419 20.6704 19.2363 20.0219 19.0951C19.8525 19.0583 19.728 19.0701 19.6179 19.2207C19.5266 19.3457 19.3922 19.4387 19.3015 19.5643C19.0351 19.9336 18.673 20.1029 18.2265 20.1197C18.1727 20.1216 18.1183 20.1503 18.0658 20.1472C17.5536 20.1166 17.331 20.4003 17.219 20.8626C17.1371 21.2006 16.9808 21.5204 16.8694 21.8522C16.8088 22.0334 16.6968 22.1321 16.5136 22.1827C16.1534 22.282 15.7994 22.4045 15.4386 22.5013C15.2766 22.5444 15.1966 22.625 15.1522 22.7881C15.0577 23.133 14.9252 23.4672 14.8326 23.8127C14.7626 24.0745 14.6169 24.2194 14.3561 24.2938C14.0196 24.39 13.6907 24.5137 13.3655 24.6436C13.2798 24.678 13.1879 24.7673 13.1547 24.8529C13.0153 25.2159 12.8946 25.5864 12.7726 25.9556C12.7051 26.1606 12.5775 26.2536 12.3555 26.2499C11.8333 26.2411 11.3105 26.2468 10.7877 26.2468C10.7877 26.2299 10.7877 26.2143 10.7877 26.1974Z" fill="white"/>
<path id="Vector_2" d="M20.6215 12.837C20.6402 11.9886 21.3475 11.3058 22.1818 11.3307C23.0304 11.3564 23.7014 12.0592 23.6808 12.9008C23.6608 13.7317 22.9554 14.4114 22.1292 14.3952C21.2806 14.379 20.6027 13.678 20.6215 12.837Z" fill="#2467FF"/>
</g>
<path id="Line 49" d="M18.3105 16.9131L10.2796 24.3388" stroke="#2467FF" stroke-width="0.3" stroke-linecap="round"/>
<circle id="Ellipse 47" cx="17.5" cy="17.5" r="17" stroke="white"/>
<g id="Group 563">
<path id="Vector_3" d="M10.7877 26.1974C10.273 26.1974 9.75837 26.1999 9.24306 26.1968C8.91974 26.1949 8.81093 26.0856 8.80468 25.7588C8.78654 24.7536 8.77466 23.7477 8.75027 22.7425C8.74527 22.5307 8.80968 22.3757 8.95977 22.2258C11.2361 19.9579 13.5068 17.6844 15.7832 15.4165C15.9114 15.2891 15.952 15.1804 15.917 14.9936C15.3529 12.0141 17.2872 9.28763 20.2946 8.80968C22.9956 8.38047 25.6978 10.316 26.1662 13.0156C26.669 15.9126 24.8642 18.5441 21.9743 19.1139C21.3258 19.2419 20.6704 19.2363 20.0219 19.0951C19.8525 19.0583 19.728 19.0701 19.6179 19.2207C19.5266 19.3457 19.3922 19.4387 19.3015 19.5643C19.0351 19.9336 18.673 20.1029 18.2265 20.1197C18.1727 20.1216 18.1183 20.1503 18.0658 20.1472C17.5536 20.1166 17.331 20.4003 17.219 20.8626C17.1371 21.2006 16.9808 21.5204 16.8694 21.8522C16.8088 22.0334 16.6968 22.1321 16.5136 22.1827C16.1534 22.282 15.7994 22.4045 15.4386 22.5013C15.2766 22.5444 15.1966 22.625 15.1522 22.7881C15.0577 23.133 14.9252 23.4672 14.8326 23.8127C14.7626 24.0745 14.6169 24.2194 14.3561 24.2938C14.0196 24.39 13.6907 24.5137 13.3655 24.6436C13.2798 24.678 13.1879 24.7673 13.1547 24.8529C13.0153 25.2159 12.8946 25.5864 12.7726 25.9556C12.7051 26.1606 12.5775 26.2536 12.3555 26.2499C11.8333 26.2411 11.3105 26.2468 10.7877 26.2468C10.7877 26.2299 10.7877 26.2143 10.7877 26.1974Z" fill="white" fill-opacity="0.8"/>
<path id="Vector_4" d="M20.6215 12.837C20.6402 11.9886 21.3475 11.3058 22.1818 11.3307C23.0304 11.3564 23.7014 12.0592 23.6808 12.9008C23.6608 13.7317 22.9554 14.4114 22.1292 14.3952C21.2806 14.379 20.6027 13.678 20.6215 12.837Z" fill="#343434"/>
</g>
<path id="Line 50" d="M18.3105 16.9131L10.2796 24.3388" stroke="#343434" stroke-width="0.3" stroke-linecap="round"/>
</g>
</g>
</svg>
