<svg width="29" height="29" viewBox="0 0 29 29" fill="none" xmlns="http://www.w3.org/2000/svg">
<g id="Group 1529">
<g id="Group 1519">
<circle id="Ellipse 46" cx="14.5" cy="14.5" r="14.5" fill="#2467FF"/>
<g id="Group 562">
<path id="Vector" d="M8.9384 21.7064C8.51195 21.7064 8.0855 21.7085 7.65854 21.7059C7.39065 21.7044 7.30049 21.6138 7.2953 21.343C7.28028 20.5101 7.27043 19.6767 7.25022 18.8438C7.24608 18.6683 7.29945 18.5399 7.42381 18.4157C9.30992 16.5366 11.1914 14.6528 13.0775 12.7737C13.1837 12.6681 13.2174 12.578 13.1884 12.4232C12.721 9.95453 14.3237 7.69546 16.8155 7.29945C19.0535 6.94382 21.2924 8.54753 21.6806 10.7843C22.0972 13.1847 20.6017 15.3651 18.2073 15.8372C17.67 15.9433 17.1269 15.9387 16.5896 15.8217C16.4492 15.7911 16.3461 15.801 16.2549 15.9257C16.1792 16.0293 16.0678 16.1064 15.9927 16.2104C15.7719 16.5164 15.4719 16.6567 15.102 16.6706C15.0574 16.6722 15.0123 16.696 14.9688 16.6934C14.5444 16.668 14.3599 16.9031 14.2672 17.2861C14.1993 17.5662 14.0698 17.8312 13.9775 18.1061C13.9273 18.2562 13.8345 18.338 13.6827 18.3799C13.3842 18.4623 13.091 18.5637 12.792 18.644C12.6578 18.6797 12.5915 18.7465 12.5547 18.8816C12.4764 19.1673 12.3666 19.4443 12.2899 19.7305C12.2318 19.9474 12.1111 20.0675 11.895 20.1291C11.6163 20.2088 11.3437 20.3113 11.0743 20.419C11.0033 20.4475 10.9271 20.5215 10.8996 20.5924C10.7841 20.8932 10.6841 21.2002 10.583 21.5061C10.5271 21.6759 10.4214 21.753 10.2374 21.7499C9.80477 21.7427 9.37158 21.7473 8.9384 21.7473C8.9384 21.7333 8.9384 21.7204 8.9384 21.7064Z" fill="white"/>
<path id="Vector_2" d="M17.0863 10.6373C17.1018 9.93432 17.6878 9.36852 18.3791 9.38922C19.0822 9.41045 19.6382 9.99281 19.6211 10.6901C19.6045 11.3786 19.02 11.9418 18.3355 11.9283C17.6324 11.9149 17.0707 11.3341 17.0863 10.6373Z" fill="#2467FF"/>
</g>
<path id="Line 49" d="M15.1719 14.0127L8.51764 20.1654" stroke="#2467FF" stroke-width="0.3" stroke-linecap="round"/>
<circle id="Ellipse 47" cx="14.5" cy="14.5" r="14.5" fill="#2467FF"/>
<g id="Group 563">
<path id="Vector_3" d="M8.9384 21.7064C8.51195 21.7064 8.0855 21.7085 7.65854 21.7059C7.39065 21.7044 7.30049 21.6138 7.2953 21.343C7.28028 20.5101 7.27043 19.6767 7.25022 18.8438C7.24608 18.6683 7.29945 18.5399 7.42381 18.4157C9.30992 16.5366 11.1914 14.6528 13.0775 12.7737C13.1837 12.6681 13.2174 12.578 13.1884 12.4232C12.721 9.95453 14.3237 7.69546 16.8155 7.29945C19.0535 6.94382 21.2924 8.54753 21.6806 10.7843C22.0972 13.1847 20.6017 15.3651 18.2073 15.8372C17.67 15.9433 17.1269 15.9387 16.5896 15.8217C16.4492 15.7911 16.3461 15.801 16.2549 15.9257C16.1792 16.0293 16.0678 16.1064 15.9927 16.2104C15.7719 16.5164 15.4719 16.6567 15.102 16.6706C15.0574 16.6722 15.0123 16.696 14.9688 16.6934C14.5444 16.668 14.3599 16.9031 14.2672 17.2861C14.1993 17.5662 14.0698 17.8312 13.9775 18.1061C13.9273 18.2562 13.8345 18.338 13.6827 18.3799C13.3842 18.4623 13.091 18.5637 12.792 18.644C12.6578 18.6797 12.5915 18.7465 12.5547 18.8816C12.4764 19.1673 12.3666 19.4443 12.2899 19.7305C12.2318 19.9474 12.1111 20.0675 11.895 20.1291C11.6163 20.2088 11.3437 20.3113 11.0743 20.419C11.0033 20.4475 10.9271 20.5215 10.8996 20.5924C10.7841 20.8932 10.6841 21.2002 10.583 21.5061C10.5271 21.6759 10.4214 21.753 10.2374 21.7499C9.80477 21.7427 9.37158 21.7473 8.9384 21.7473C8.9384 21.7333 8.9384 21.7204 8.9384 21.7064Z" fill="white"/>
<path id="Vector_4" d="M17.0863 10.6373C17.1018 9.93432 17.6878 9.36852 18.3791 9.38922C19.0822 9.41045 19.6382 9.99281 19.6211 10.6901C19.6045 11.3786 19.02 11.9418 18.3355 11.9283C17.6324 11.9149 17.0707 11.3341 17.0863 10.6373Z" fill="#2467FF"/>
</g>
<path id="Line 50" d="M15.1719 14.0127L8.51764 20.1654" stroke="#2467FF" stroke-width="0.3" stroke-linecap="round"/>
</g>
</g>
</svg>
