<svg width="24" height="24" viewBox="0 0 24 24" fill="none" xmlns="http://www.w3.org/2000/svg">
<g id="list">
<g id="vector">
<path d="M3 7.48068C3 7.13215 3.29101 6.84961 3.65 6.84961C4.00899 6.84961 4.3 7.13215 4.3 7.48068C4.3 7.82921 4.00899 8.11175 3.65 8.11175C3.29101 8.11175 3 7.82921 3 7.48068Z" fill="#C7C7C7"/>
<path d="M5.5 7.48068C5.5 7.21258 5.72386 6.99524 6 6.99524H20.5C20.7761 6.99524 21 7.21258 21 7.48068C21 7.74878 20.7761 7.96611 20.5 7.96611H6C5.72386 7.96611 5.5 7.74878 5.5 7.48068Z" fill="#C7C7C7"/>
<path d="M3 11.8496C3 11.501 3.29101 11.2185 3.65 11.2185C4.00899 11.2185 4.3 11.501 4.3 11.8496C4.3 12.1981 4.00899 12.4806 3.65 12.4806C3.29101 12.4806 3 12.1981 3 11.8496Z" fill="#C7C7C7"/>
<path d="M6 11.3641C5.72386 11.3641 5.5 11.5815 5.5 11.8496C5.5 12.1177 5.72386 12.335 6 12.335H20.5C20.7761 12.335 21 12.1177 21 11.8496C21 11.5815 20.7761 11.3641 20.5 11.3641H6Z" fill="#C7C7C7"/>
<path d="M5.5 16.2185C5.5 15.9504 5.72386 15.7331 6 15.7331H20.5C20.7761 15.7331 21 15.9504 21 16.2185C21 16.4866 20.7761 16.704 20.5 16.704H6C5.72386 16.704 5.5 16.4866 5.5 16.2185Z" fill="#C7C7C7"/>
<path d="M3 16.2185C3 15.87 3.29101 15.5875 3.65 15.5875C4.00899 15.5875 4.3 15.87 4.3 16.2185C4.3 16.5671 4.00899 16.8496 3.65 16.8496C3.29101 16.8496 3 16.5671 3 16.2185Z" fill="#C7C7C7"/>
</g>
</g>
</svg>
