<svg width="18" height="36" viewBox="0 0 18 36" fill="none" xmlns="http://www.w3.org/2000/svg">
<path id="Vector" d="M17.4199 36C17.4205 36 17.4211 35.9998 17.4216 35.9996C18.1265 35.5949 18.1879 35.08 17.6014 34.4677C12.4434 29.0818 7.28453 23.6968 2.123 18.3145C2.04756 18.2358 1.95027 18.1798 1.85667 18.12C1.81497 18.0933 1.79081 18.0468 1.79144 17.9973C1.79206 17.9492 1.81565 17.9042 1.85593 17.878C1.94945 17.817 2.04701 17.7603 2.123 17.6817C7.27659 12.3059 12.4284 6.93009 17.5723 1.54691C17.745 1.36664 17.8895 1.12107 17.9582 0.878265C18.0454 0.573834 17.8983 0.307112 17.6366 0.134203C17.3759 -0.0387061 17.1081 -0.0506625 16.8482 0.134203C16.7381 0.21238 16.6332 0.303434 16.539 0.401845C11.1572 6.01772 5.77632 11.6354 0.396324 17.2531C-0.133131 17.8059 -0.13225 18.1894 0.399849 18.7449C5.7728 24.3544 11.1449 29.9638 16.5214 35.5686C16.6073 35.6579 16.7065 35.7333 16.8087 35.8056C16.987 35.9317 17.2016 36 17.4199 36Z" fill="white"/>
</svg>
