<svg width="18" height="36" viewBox="0 0 18 36" fill="none" xmlns="http://www.w3.org/2000/svg">
<path id="Vector" d="M0.579184 36C-0.126462 35.5953 -0.188129 35.0803 0.398589 34.4677C5.55659 29.0818 10.7155 23.6968 15.877 18.3145C15.9704 18.217 16.0972 18.1545 16.2091 18.0763C16.2091 18.0248 16.2082 17.9724 16.2074 17.9209C16.0964 17.8418 15.9704 17.7783 15.877 17.6817C10.7234 12.3059 5.57157 6.93009 0.427667 1.54691C0.254999 1.36664 0.110522 1.12107 0.0418077 0.878265C-0.0454069 0.573834 0.101713 0.307112 0.363357 0.134203C0.62412 -0.0387061 0.891931 -0.0506625 1.15181 0.134203C1.26193 0.21238 1.36677 0.303434 1.46103 0.401845C6.84279 6.01772 12.2237 11.6354 17.6037 17.2531C18.1331 17.8059 18.1323 18.1894 17.6002 18.7449C12.2272 24.3544 6.85512 29.9638 1.47864 35.5686C1.31566 35.7379 1.10512 35.8574 0.916591 36L0.580065 36L0.579184 36Z" fill="#4D4D4D"/>
</svg>
