<svg width="16" height="8" viewBox="0 0 16 8" fill="none" xmlns="http://www.w3.org/2000/svg">
<g clip-path="url(#clip0_2123_1656)">
<path d="M3.52769e-05 0.257422C0.179893 -0.0562039 0.408803 -0.0836119 0.681043 0.177156C3.07479 2.46964 5.46813 4.76251 7.86024 7.05656C7.90357 7.09807 7.93136 7.15445 7.96611 7.20417C7.989 7.20417 8.0123 7.20378 8.03519 7.20339C8.07034 7.15406 8.09855 7.09807 8.14147 7.05656C10.5307 4.76604 12.92 2.4763 15.3125 0.190077C15.3926 0.113335 15.5017 0.0491219 15.6097 0.0185816C15.745 -0.0201812 15.8635 0.0452065 15.9404 0.161495C16.0172 0.277391 16.0225 0.39642 15.9404 0.511925C15.9056 0.560868 15.8651 0.607462 15.8214 0.649357C13.3255 3.04129 10.8287 5.43284 8.33195 7.82399C8.08628 8.0593 7.91583 8.05891 7.66893 7.82242C5.17586 5.4344 2.68278 3.04677 0.191748 0.657187C0.116534 0.584752 0.0633945 0.491173 3.52717e-05 0.407383L3.52769e-05 0.257813L3.52769e-05 0.257422Z" fill="white"/>
</g>
<defs>
<clipPath id="clip0_2123_1656">
<rect width="8" height="16" fill="white" transform="translate(16) rotate(90)"/>
</clipPath>
</defs>
</svg>
