<svg width="16" height="9" viewBox="0 0 16 9" fill="none" xmlns="http://www.w3.org/2000/svg">
<path id="Vector" d="M3.52769e-05 8.21516C0.179893 8.54791 0.408803 8.57699 0.681043 8.30032C3.07479 5.86801 5.46813 3.43529 7.86024 1.00132C7.90357 0.957284 7.93136 0.897463 7.96611 0.844704C7.989 0.844704 8.0123 0.845119 8.03519 0.845535C8.07034 0.897878 8.09855 0.957284 8.14147 1.00132C10.5307 3.43155 12.92 5.86095 15.3125 8.28661C15.3926 8.36803 15.5017 8.43616 15.6097 8.46857C15.745 8.50969 15.8635 8.44032 15.9404 8.31694C16.0172 8.19397 16.0225 8.06768 15.9404 7.94513C15.9056 7.8932 15.8651 7.84377 15.8214 7.79932C13.3255 5.26149 10.8287 2.72408 8.33195 0.187088C8.08628 -0.0625825 7.91583 -0.0621667 7.66893 0.18875C5.17586 2.72242 2.68278 5.25568 0.191748 7.79101C0.116534 7.86786 0.0633945 7.96715 3.52717e-05 8.05605L3.52769e-05 8.21474L3.52769e-05 8.21516Z" fill="white"/>
</svg>
