<svg width="41" height="41" viewBox="0 0 41 41" fill="none" xmlns="http://www.w3.org/2000/svg">
<g id="drag-vertical">
<g id="Group 752">
<g id="Vector">
<path d="M20.9264 8.54102C19.7471 8.54102 18.791 9.49707 18.791 10.6764C18.791 11.8558 19.7471 12.8118 20.9264 12.8118C22.1058 12.8118 23.0618 11.8558 23.0618 10.6764C23.0618 9.49707 22.1058 8.54102 20.9264 8.54102Z" fill="white"/>
<path d="M18.791 20.9264C18.791 19.747 19.7471 18.791 20.9264 18.791C22.1058 18.791 23.0618 19.747 23.0618 20.9264C23.0618 22.1059 22.1058 23.0618 20.9264 23.0618C19.7471 23.0618 18.791 22.1059 18.791 20.9264Z" fill="white"/>
<path d="M18.791 31.1764C18.791 29.997 19.7471 29.041 20.9264 29.041C22.1058 29.041 23.0618 29.997 23.0618 31.1764C23.0618 32.3559 22.1058 33.3118 20.9264 33.3118C19.7471 33.3118 18.791 32.3559 18.791 31.1764Z" fill="white"/>
<path d="M29.041 10.6764C29.041 9.49707 29.997 8.54102 31.1764 8.54102C32.3559 8.54102 33.3118 9.49707 33.3118 10.6764C33.3118 11.8558 32.3559 12.8118 31.1764 12.8118C29.997 12.8118 29.041 11.8558 29.041 10.6764Z" fill="white"/>
<path d="M29.041 20.9264C29.041 19.747 29.997 18.791 31.1764 18.791C32.3559 18.791 33.3118 19.747 33.3118 20.9264C33.3118 22.1059 32.3559 23.0618 31.1764 23.0618C29.997 23.0618 29.041 22.1059 29.041 20.9264Z" fill="white"/>
<path d="M29.041 31.1764C29.041 29.997 29.997 29.041 31.1764 29.041C32.3559 29.041 33.3118 29.997 33.3118 31.1764C33.3118 32.3559 32.3559 33.3118 31.1764 33.3118C29.997 33.3118 29.041 32.3559 29.041 31.1764Z" fill="white"/>
</g>
<g id="Vector_2">
<path d="M10.6764 8.54102C9.497 8.54102 8.54102 9.49707 8.54102 10.6764C8.54102 11.8558 9.497 12.8118 10.6764 12.8118C11.8559 12.8118 12.8118 11.8558 12.8118 10.6764C12.8118 9.49707 11.8559 8.54102 10.6764 8.54102Z" fill="white"/>
<path d="M8.54102 20.9264C8.54102 19.747 9.497 18.791 10.6764 18.791C11.8559 18.791 12.8118 19.747 12.8118 20.9264C12.8118 22.1059 11.8559 23.0618 10.6764 23.0618C9.497 23.0618 8.54102 22.1059 8.54102 20.9264Z" fill="white"/>
<path d="M8.54102 31.1764C8.54102 29.997 9.497 29.041 10.6764 29.041C11.8559 29.041 12.8118 29.997 12.8118 31.1764C12.8118 32.3559 11.8559 33.3118 10.6764 33.3118C9.497 33.3118 8.54102 32.3559 8.54102 31.1764Z" fill="white"/>
</g>
</g>
</g>
</svg>
