<svg width="26" height="26" viewBox="0 0 26 26" fill="none" xmlns="http://www.w3.org/2000/svg">
<g clip-path="url(#clip0_1958_950)">
<path d="M23.7094 26H7.88341C6.55505 25.7455 6.0215 24.7781 6.05984 23.6133C6.10143 22.3368 6.06959 21.0577 6.06959 19.7799V19.5C4.75292 19.5 3.4733 19.4727 2.19498 19.5089C1.16817 19.5375 0.431852 18.836 0.445499 17.8147C0.477343 15.4369 0.474744 13.0584 0.445499 10.6806C0.433801 9.71763 1.08563 8.97368 2.17224 8.99082C3.37387 9.00986 4.57616 8.99526 5.77844 8.99526H6.06829C6.06829 8.85942 6.06829 8.7585 6.06829 8.6582C6.06829 6.4835 6.06894 4.30815 6.06829 2.13345C6.06829 1.55137 6.23921 1.03467 6.65643 0.60874C6.99242 0.265332 7.4207 0.0996582 7.88341 0C11.3596 0 14.8365 0 18.3127 0C18.4369 0.089502 18.5772 0.163135 18.6825 0.27041C20.8505 2.4686 23.0127 4.67188 25.1827 6.86816C25.3971 7.08462 25.4861 7.31123 25.4855 7.61338C25.4783 13.0038 25.4803 18.3949 25.4803 23.7853C25.4803 23.9123 25.479 24.0392 25.4693 24.1655C25.4394 24.5648 25.2873 24.9165 25.039 25.2338C24.7004 25.6667 24.2293 25.8724 23.7094 26ZM7.0977 8.99526H7.45059C10.1658 8.99526 12.8817 8.99463 15.5969 8.99526C16.6763 8.99526 17.3139 9.61162 17.3152 10.6609C17.3178 13.0559 17.3171 15.4508 17.3132 17.8458C17.3132 18.0299 17.295 18.2203 17.2463 18.3974C17.0552 19.0893 16.4645 19.4987 15.6671 19.4987C12.9174 19.5006 10.1671 19.4994 7.41745 19.4994C7.31671 19.4994 7.21663 19.4994 7.099 19.4994V19.7825C7.099 21.1364 7.09835 22.4904 7.099 23.845C7.099 24.6149 7.48763 24.9952 8.27789 24.9952C13.2761 24.9958 18.2744 24.9958 23.2733 24.9952C24.0759 24.9952 24.4658 24.6149 24.4658 23.8272C24.4671 18.6475 24.4665 13.4685 24.4658 8.28877C24.4658 8.1999 24.4561 8.1104 24.4496 8.00059H24.1149C22.0912 8.00059 20.0681 8.00059 18.0443 8.00059C17.4724 8.00059 17.3171 7.84951 17.3171 7.296C17.3171 5.30728 17.3171 3.31855 17.3171 1.32983C17.3171 1.23081 17.3171 1.13179 17.3171 1.00356C17.1936 1.00356 17.1014 1.00356 17.0084 1.00356C14.1028 1.00356 11.1972 1.00356 8.29154 1.00356C7.48438 1.00356 7.09965 1.37998 7.09965 2.16709C7.099 4.35068 7.09965 6.53428 7.09965 8.71724V8.99463L7.0977 8.99526ZM8.87968 18.4958C11.1185 18.4958 13.3574 18.4958 15.5962 18.4958C16.1285 18.4958 16.2897 18.3358 16.2897 17.8115C16.2897 15.4426 16.2897 13.0743 16.2897 10.7053C16.2897 10.1537 16.1324 10.002 15.5611 10.002C11.1094 10.002 6.65773 10.002 2.20603 10.002C1.62309 10.002 1.47231 10.1499 1.47231 10.7269C1.47231 13.0705 1.47231 15.4134 1.47231 17.7569C1.47231 18.3523 1.61659 18.4958 2.21513 18.4958C4.43643 18.4958 6.65838 18.4958 8.87968 18.4958ZM23.8809 6.99004C22.0203 5.09907 20.2006 3.24937 18.3459 1.36411V6.99004H23.8809Z" fill="white"/>
<path d="M7.54688 16.4556V12.1995C8.37678 12.2256 9.20278 12.1043 10.0021 12.3112C10.279 12.383 10.5532 12.6026 10.7411 12.826C10.9295 13.0507 11.0595 13.3523 11.1258 13.6404C11.2746 14.2847 11.2597 14.9297 10.9705 15.5511C10.7268 16.0754 10.3147 16.4055 9.74478 16.4442C9.02406 16.4931 8.29684 16.4563 7.54688 16.4563V16.4556ZM8.44046 12.967V15.7542C8.79335 15.7542 9.12869 15.7739 9.46078 15.7491C9.9014 15.7161 10.1523 15.5124 10.212 15.0814C10.2692 14.6675 10.2887 14.2403 10.2523 13.8245C10.2081 13.3218 9.9391 13.026 9.50952 12.9752C9.16248 12.9346 8.807 12.967 8.44111 12.967H8.44046Z" fill="white"/>
<path d="M4.3357 14.8698V16.4897H3.47461V12.2006C3.64098 12.2006 3.80215 12.1975 3.96332 12.2006C4.55082 12.2133 5.13896 12.2108 5.72451 12.2463C6.24506 12.2774 6.63239 12.6069 6.75392 13.1045C6.95148 13.9164 6.64474 14.8305 5.38527 14.8679C5.04993 14.8781 4.71459 14.8692 4.3357 14.8692V14.8698ZM4.35715 14.1519C4.55147 14.1519 4.71459 14.1576 4.87706 14.1506C5.04928 14.143 5.22345 14.1354 5.39307 14.1081C5.69916 14.0586 5.89478 13.8358 5.89932 13.5527C5.90452 13.2613 5.70306 12.9954 5.39696 12.9687C5.05708 12.9389 4.71264 12.9617 4.35715 12.9617V14.1525V14.1519Z" fill="white"/>
<path d="M11.998 12.2158H14.9713V12.928H12.8799V13.9462H14.6671V14.6635H12.8689V16.4878H11.9987V12.2158H11.998Z" fill="white"/>
</g>
<defs>
<clipPath id="clip0_1958_950">
<rect width="25.04" height="26" fill="white" transform="translate(0.445312)"/>
</clipPath>
</defs>
</svg>
