<svg width="20" height="22" viewBox="0 0 20 22" fill="none" xmlns="http://www.w3.org/2000/svg">
<path d="M15.3496 22C14.9977 21.9376 14.6428 21.8902 14.2949 21.8095C13.0606 21.5227 11.9241 20.9626 10.8415 20.2652C9.24898 19.2397 7.82869 17.9649 6.49062 16.5762C5.30085 15.3418 4.17813 14.037 3.16748 12.6202C2.103 11.1281 1.17066 9.54831 0.562315 7.76081C0.206019 6.71425 -0.0337949 5.63594 0.00389026 4.51458C0.0234669 3.934 0.112051 3.34857 0.232937 2.78143C0.360675 2.18255 0.708161 1.71657 1.18094 1.38781C1.76922 0.978865 2.36484 0.582301 2.96829 0.201341C3.55608 -0.169934 4.18645 -0.0214237 4.56673 0.594677C5.47264 2.06309 6.36729 3.53958 7.25313 5.02199C7.62167 5.63863 7.50176 6.33652 6.97368 6.80034C6.51607 7.20229 6.05015 7.59293 5.58814 7.98896C5.26561 8.26499 5.22695 8.49798 5.41635 8.90047C5.96156 10.0611 6.67513 11.0867 7.48708 12.0326C8.49332 13.2056 9.52501 14.3496 10.7412 15.2649C11.1376 15.563 11.561 15.8185 11.9809 16.0768C12.2677 16.2533 12.4997 16.1818 12.7145 15.881C13.0557 15.4021 13.3939 14.9205 13.7335 14.4405C14.2586 13.6996 14.8621 13.5904 15.5688 14.1085C16.7816 14.9974 17.99 15.8939 19.2096 16.7709C19.5816 17.0389 19.886 17.344 20 17.8326V18.262C19.9403 18.4191 19.8962 18.5859 19.8184 18.7312C19.468 19.3839 19.1171 20.0371 18.7491 20.6779C18.4148 21.2596 17.9303 21.6325 17.3204 21.7885C16.9798 21.8757 16.6323 21.93 16.2878 21.9995H15.3501L15.3496 22ZM0.62545 4.48391C0.651389 5.30502 0.773743 6.09923 0.988108 6.87729C1.41928 8.44256 2.14362 9.84479 3.00451 11.1636C4.52757 13.4967 6.33841 15.5387 8.32838 17.3903C9.70952 18.6757 11.1861 19.8079 12.8731 20.5639C14.1138 21.1197 15.3921 21.4189 16.7424 21.1864C17.4315 21.068 17.9777 20.743 18.3277 20.0505C18.6022 19.5071 18.9081 18.9825 19.1983 18.4481C19.4132 18.0532 19.3574 17.7729 19.0114 17.5183C17.7291 16.5767 16.4463 15.6356 15.1631 14.695C14.797 14.4271 14.5592 14.468 14.29 14.8457C13.9371 15.3418 13.5877 15.8406 13.2343 16.3362C12.809 16.9324 12.2295 17.0658 11.6231 16.7021C11.3261 16.524 11.0305 16.3432 10.7427 16.1479C9.67183 15.4204 8.75369 14.4879 7.86491 13.5193C6.68737 12.2355 5.58912 10.8833 4.82171 9.24376C4.48842 8.53134 4.59071 7.91417 5.16332 7.4229C5.61995 7.03118 6.07951 6.64322 6.53418 6.24827C6.82832 5.99269 6.8709 5.7102 6.66339 5.3669C5.79271 3.92485 4.91911 2.48387 4.04403 1.04505C3.84777 0.721663 3.5737 0.657094 3.26781 0.856721C2.73631 1.20324 2.20774 1.55569 1.67721 1.90436C1.25044 2.1847 0.943571 2.5775 0.831984 3.11181C0.737526 3.56272 0.692011 4.02601 0.62496 4.48391H0.62545Z" fill="white"/>
</svg>
