<svg width="28" height="28" viewBox="0 0 28 28" fill="none" xmlns="http://www.w3.org/2000/svg">
<path id="Vector" d="M14.9159 13.4504C15.1601 13.4186 15.3388 13.3759 15.5174 13.3757C19.2413 13.3719 22.966 13.3724 26.6908 13.3728C27.6086 13.3727 27.9656 13.5935 27.9565 14.1532C27.9475 14.6993 27.6011 14.9115 26.7122 14.9115C22.973 14.912 19.2329 14.9132 15.4937 14.9085C15.3168 14.9087 15.1399 14.8664 14.9622 14.8436C14.9068 14.8802 14.8515 14.9168 14.7945 14.9535C14.8343 15.1295 14.9098 15.3055 14.9105 15.4816C14.9168 19.2514 14.9155 23.0204 14.9151 26.7902C14.9151 27.5889 14.6851 27.9345 14.1509 27.9385C13.6176 27.9433 13.3764 27.5897 13.3763 26.7995C13.376 23.0152 13.3764 19.23 13.376 15.4457C13.3753 15.2833 13.3679 15.1208 13.3597 14.7806C13.1615 14.8276 12.9853 14.9051 12.8092 14.9062C9.05471 14.9134 5.30018 14.9121 1.54566 14.9126C0.680607 14.9126 0.316792 14.6799 0.324156 14.1321C0.332365 13.5903 0.686432 13.3739 1.5685 13.3738C5.32302 13.3734 9.07754 13.373 12.8321 13.3759C12.9954 13.3758 13.1587 13.413 13.3619 13.4375C13.3682 13.1661 13.376 12.9901 13.3753 12.8157C13.3791 9.07647 13.3787 5.33641 13.38 1.59634C13.3801 1.49087 13.3776 1.38625 13.3811 1.28077C13.3945 0.682792 13.6551 0.357599 14.1315 0.345204C14.6223 0.331944 14.9154 0.671031 14.9165 1.29196C14.9213 4.05554 14.9185 6.81827 14.9182 9.58185C14.9178 10.8263 14.9174 12.0707 14.9168 13.4512L14.9159 13.4504Z" fill="white"/>
</svg>
