<svg width="30" height="30" viewBox="0 0 30 30" fill="none" xmlns="http://www.w3.org/2000/svg">
<path d="M15.7827 14.1229C16.0391 14.0896 16.2267 14.0447 16.4143 14.0445C20.3244 14.0405 24.2353 14.041 28.1463 14.0415C29.11 14.0414 29.4849 14.2732 29.4754 14.8609C29.4658 15.4343 29.1021 15.6571 28.1688 15.6571C24.2426 15.6576 20.3156 15.6589 16.3894 15.654C16.2036 15.6542 16.0179 15.6097 15.8313 15.5858C15.7732 15.6242 15.7151 15.6627 15.6552 15.7012C15.697 15.886 15.7763 16.0708 15.777 16.2557C15.7837 20.214 15.7823 24.1714 15.7818 28.1297C15.7819 28.9684 15.5403 29.3312 14.9795 29.3354C14.4195 29.3404 14.1662 28.9691 14.1662 28.1394C14.1657 24.1659 14.1662 20.1915 14.1658 16.218C14.1651 16.0474 14.1572 15.8768 14.1487 15.5196C13.9405 15.5689 13.7556 15.6504 13.5707 15.6515C9.62844 15.6591 5.68619 15.6578 1.74394 15.6582C0.835634 15.6582 0.453628 15.4139 0.46136 14.8387C0.469979 14.2698 0.84175 14.0426 1.76792 14.0425C5.71017 14.0421 9.65242 14.0416 13.5947 14.0447C13.7661 14.0446 13.9376 14.0837 14.151 14.1094C14.1576 13.8244 14.1658 13.6396 14.1651 13.4565C14.1691 9.53029 14.1686 5.60323 14.17 1.67616C14.1701 1.56541 14.1675 1.45556 14.1712 1.34481C14.1852 0.716931 14.4589 0.375479 14.959 0.362464C15.4744 0.348541 15.7822 0.704583 15.7833 1.35656C15.7883 4.25832 15.7854 7.15918 15.7851 10.0609C15.7847 11.3676 15.7842 12.6742 15.7836 14.1238L15.7827 14.1229Z" fill="#2467FF"/>
</svg>
