<svg width="22" height="22" viewBox="0 0 22 22" fill="none" xmlns="http://www.w3.org/2000/svg">
<path fill-rule="evenodd" clip-rule="evenodd" d="M20.8151 9.35888C21.1818 9.67866 20.9665 10.3051 20.49 10.3051H18.6426V19.9305C18.6426 20.5211 18.1868 21 17.6248 21H12.5357C11.9735 21 11.5179 20.5211 11.5179 19.9305V13.5135H9.48222V19.9305C9.48222 20.5211 9.02644 21 8.46436 21H3.37526C2.81314 21 2.35744 20.5211 2.35744 19.9305V10.3051H0.509928C0.0334964 10.3051 -0.181722 9.67866 0.184816 9.35888L9.19958 1.49337C9.95347 0.835544 11.0465 0.835544 11.8004 1.49337L20.8151 9.35888ZM3.37526 10.3051C3.37526 9.71438 2.91958 9.23552 2.35744 9.23552H1.91944L9.84976 2.31617C10.2268 1.98727 10.7732 1.98727 11.1502 2.31617L19.0806 9.23552H18.6426C18.0805 9.23552 17.6248 9.71438 17.6248 10.3051V19.9305H12.5357V13.5135C12.5357 12.9229 12.0799 12.4441 11.5179 12.4441H9.48222C8.92008 12.4441 8.46436 12.9229 8.46436 13.5135V19.9305H3.37526V10.3051Z" fill="white"/>
</svg>
