<svg width="20" height="20" viewBox="0 0 20 20" fill="none" xmlns="http://www.w3.org/2000/svg">
<g id="Group 420">
<circle id="Ellipse 93" cx="10" cy="10" r="8.5" fill="white" stroke="#3EAAF7" stroke-width="3"/>
<path id="Vector" d="M12.8147 8.41931C12.7708 8.5942 12.8275 8.74117 12.9344 8.90406C13.1997 9.30872 12.956 9.84466 12.4769 9.96077C12.4034 9.97865 12.3657 10.0061 12.3419 10.0823C11.8977 11.5034 11.4497 12.9237 11.0017 14.3439C10.9141 14.6214 10.7048 14.7826 10.4363 14.7835C10.1642 14.7845 9.95343 14.6229 9.86433 14.3402C9.41535 12.917 8.96662 11.4939 8.5209 10.07C8.50032 10.0046 8.46895 9.98012 8.40445 9.96518C7.84203 9.83364 7.63899 9.18379 8.02448 8.76322C8.05259 8.7326 8.07066 8.67773 8.06689 8.63658C7.95195 7.39151 8.83737 6.29145 10.1023 6.11191C11.399 5.92771 12.6092 6.82348 12.7856 8.09917C12.7999 8.2018 12.8044 8.3059 12.8145 8.41956L12.8147 8.41931ZM12.551 8.40168C12.5412 8.2988 12.5346 8.192 12.5203 8.08643C12.3665 6.96114 11.1945 6.14742 10.0533 6.37253C8.91216 6.59764 8.19464 7.57547 8.34522 8.70174C8.35576 8.78085 8.33894 8.83989 8.27143 8.89402C8.05435 9.06842 8.02774 9.35771 8.20342 9.56273C8.37282 9.76064 8.66671 9.78318 8.8848 9.61515C8.9887 9.5348 9.05094 9.54362 9.12473 9.64919C9.29162 9.88826 9.56217 9.95856 9.82292 9.82433C9.89671 9.78636 9.95418 9.79249 10.0222 9.83609C10.2965 10.0117 10.5741 10.011 10.8476 9.83462C10.9164 9.79028 10.9739 9.78832 11.0469 9.82605C11.3021 9.95758 11.5762 9.88728 11.7388 9.65458C11.8166 9.54313 11.8771 9.53382 11.9845 9.61711C12.2001 9.78416 12.4962 9.75942 12.6651 9.56003C12.8368 9.35771 12.8115 9.06867 12.5994 8.89769C12.5291 8.84111 12.51 8.78061 12.5218 8.69782C12.5354 8.60131 12.5412 8.50357 12.5507 8.40192L12.551 8.40168ZM11.007 13.3016C10.8193 13.1789 10.6413 13.062 10.4621 12.9467C10.4496 12.9386 10.4237 12.9354 10.4124 12.9425C10.2307 13.0594 10.0503 13.1782 9.86182 13.3019C10.046 13.4229 10.2187 13.5375 10.3934 13.6487C10.4119 13.6605 10.4503 13.6636 10.4674 13.6529C10.6446 13.5404 10.8195 13.4243 11.0067 13.3016H11.007ZM11.0065 11.1811C10.819 11.0579 10.6413 10.9403 10.4621 10.8252C10.4483 10.8164 10.4177 10.8176 10.4034 10.8269C10.225 10.9418 10.048 11.0591 9.86258 11.1813C10.047 11.3023 10.22 11.417 10.3951 11.5287C10.4132 11.5402 10.4508 11.5431 10.4677 11.5324C10.6456 11.4194 10.821 11.3031 11.0065 11.1813V11.1811ZM10.4343 11.8657C10.2418 11.9919 10.0556 12.1141 9.86182 12.2412C10.0468 12.363 10.2225 12.4798 10.4004 12.593C10.4175 12.6038 10.4556 12.6006 10.4739 12.5891C10.6494 12.4774 10.8225 12.3627 11.0067 12.2417C10.813 12.1143 10.627 11.9924 10.4343 11.866V11.8657ZM11.8156 10.6505C11.6294 10.5286 11.4542 10.412 11.2765 10.2993C11.2595 10.2885 11.2213 10.2917 11.203 10.3034C11.0278 10.4151 10.8547 10.53 10.6707 10.6508C10.8557 10.772 11.0336 10.8896 11.213 11.0047C11.2268 11.0136 11.2567 11.0148 11.2703 11.0062C11.45 10.8911 11.6281 10.7735 11.8156 10.6505ZM9.05345 10.6505C9.24143 10.774 9.42213 10.893 9.60383 11.0101C9.61512 11.0175 9.64097 11.015 9.65327 11.0069C9.83271 10.8913 10.0109 10.7737 10.1979 10.6513C10.0119 10.529 9.83698 10.4125 9.65929 10.2995C9.64197 10.2885 9.60358 10.2914 9.58525 10.3032C9.41008 10.4149 9.23691 10.5298 9.0532 10.6503L9.05345 10.6505ZM9.26703 11.5713C9.30116 11.6801 9.33077 11.7793 9.36415 11.877C9.37243 11.9012 9.38824 11.9272 9.40807 11.9431C9.53891 12.0489 9.67477 12.0553 9.81564 11.9622C9.84676 11.9419 9.87788 11.9216 9.90875 11.901C10.0021 11.8393 10.0955 11.7775 10.1971 11.7107C10.0109 11.5884 9.83823 11.4738 9.66356 11.3626C9.64574 11.3513 9.60859 11.3501 9.59103 11.3609C9.48311 11.4273 9.37821 11.4983 9.26728 11.5713H9.26703ZM10.6704 11.7114C10.8559 11.8334 11.0313 11.949 11.2073 12.0639C11.2196 12.072 11.2422 12.0837 11.2482 12.0791C11.3358 12.0107 11.4643 11.9887 11.5057 11.8687C11.5335 11.7881 11.5606 11.7068 11.5805 11.6242C11.5862 11.6 11.5747 11.5583 11.5556 11.5444C11.4685 11.4807 11.3772 11.4216 11.2843 11.366C11.264 11.354 11.2233 11.3521 11.2043 11.3638C11.0291 11.4745 10.8564 11.5892 10.6702 11.7112L10.6704 11.7114ZM10.0992 14.2072C10.1075 14.2376 10.1128 14.2613 10.1203 14.2846C10.1715 14.4411 10.2822 14.5266 10.433 14.5268C10.5844 14.5268 10.6923 14.4409 10.748 14.286C10.7696 14.2263 10.759 14.1927 10.7023 14.1609C10.6268 14.1185 10.5585 14.0631 10.4825 14.0215C10.4574 14.0078 10.4102 14.0071 10.3858 14.0215C10.2897 14.0776 10.1984 14.142 10.0992 14.2074V14.2072ZM11.1275 13.0711C11.1915 12.8693 11.2529 12.6782 11.3109 12.4864C11.3159 12.4698 11.3021 12.4379 11.2868 12.4281C11.268 12.4159 11.2309 12.4078 11.215 12.4181C11.0348 12.532 10.8574 12.6498 10.6704 12.772C10.826 12.8739 10.9721 12.9695 11.1275 13.0714V13.0711ZM9.7401 13.0721C9.89846 12.9682 10.043 12.8734 10.1979 12.772C10.0119 12.6503 9.83422 12.5325 9.65427 12.4186C9.63821 12.4085 9.60157 12.4161 9.58249 12.4279C9.56693 12.4374 9.55087 12.469 9.55564 12.485C9.61336 12.677 9.6751 12.868 9.73985 13.0723L9.7401 13.0721ZM8.9099 10.4345C9.06926 10.3299 9.21608 10.2336 9.34784 10.1472C9.22888 10.0651 9.11092 9.98281 8.99146 9.90296C8.97716 9.89341 8.95081 9.88973 8.93474 9.89561C8.87702 9.91717 8.82131 9.94387 8.76283 9.96934C8.81077 10.121 8.85745 10.2689 8.9099 10.4347V10.4345ZM12.1047 9.96836C12.0425 9.94191 11.9918 9.91839 11.9393 9.89904C11.9218 9.89267 11.8944 9.88875 11.8814 9.89757C11.7596 9.97914 11.6402 10.0636 11.52 10.1474C11.652 10.2336 11.799 10.3297 11.9572 10.433C12.0084 10.2721 12.0558 10.1219 12.1047 9.96836ZM10.9959 10.1273C10.9937 10.1178 10.9914 10.1085 10.9892 10.0989C10.9591 10.1016 10.9244 10.0957 10.8991 10.1082C10.5864 10.2613 10.2757 10.2606 9.96346 10.1063C9.94012 10.0948 9.90599 10.1048 9.87663 10.1048C9.87563 10.1131 9.87487 10.1215 9.87387 10.1298C10.05 10.2449 10.2257 10.3608 10.4029 10.4744C10.417 10.4835 10.4468 10.4854 10.4601 10.4771C10.6396 10.3622 10.8175 10.2447 10.9957 10.1278L10.9959 10.1273ZM9.11092 10.9996C9.1049 11.005 9.09888 11.0106 9.09285 11.016C9.12297 11.1115 9.15309 11.2071 9.18647 11.3134C9.26025 11.2654 9.32073 11.2257 9.3895 11.1809C9.28961 11.1159 9.20027 11.0576 9.11092 10.9993V10.9996ZM11.7737 11.0158C11.7672 11.0106 11.7607 11.0055 11.7541 11.0006C11.6653 11.0591 11.5767 11.1177 11.4791 11.1821C11.5503 11.2276 11.6118 11.2668 11.6816 11.3114C11.7147 11.2049 11.7443 11.1103 11.7737 11.0158ZM9.9213 13.6507C9.95819 13.7653 9.98655 13.8535 10.0177 13.9497C10.0819 13.9076 10.1346 13.8731 10.1971 13.8322C10.1048 13.7714 10.0255 13.719 9.9213 13.6507ZM10.6704 13.8324C10.7359 13.875 10.7889 13.9093 10.8509 13.9497C10.8823 13.8493 10.9096 13.7616 10.9435 13.6533C10.8439 13.7188 10.7643 13.7709 10.6704 13.8327V13.8324Z" fill="#3EAAF7"/>
</g>
</svg>
