<svg width="58" height="58" viewBox="0 0 58 58" fill="none" xmlns="http://www.w3.org/2000/svg">
<rect width="58" height="58" fill="#2E2E2C"/>
<path fill-rule="evenodd" clip-rule="evenodd" d="M31 16.6667C31 22.0054 26.672 26.3333 21.3333 26.3333C15.9946 26.3333 11.6667 22.0054 11.6667 16.6667C11.6667 11.3279 15.9946 7 21.3333 7C26.672 7 31 11.3279 31 16.6667ZM28.5833 16.6667C28.5833 20.6707 25.3375 23.9167 21.3333 23.9167C17.3293 23.9167 14.0833 20.6707 14.0833 16.6667C14.0833 12.6626 17.3293 9.41667 21.3333 9.41667C25.3375 9.41667 28.5833 12.6626 28.5833 16.6667Z" fill="white"/>
<path fill-rule="evenodd" clip-rule="evenodd" d="M40.6667 41.236C40.6667 40.1888 40.3385 39.1595 39.6553 38.3659C35.2236 33.2179 28.659 29.9583 21.3333 29.9583C14.0076 29.9583 7.44318 33.2179 3.0113 38.3659C2.32809 39.1595 2 40.1888 2 41.236V45.6667C2 48.3361 4.16396 50.5 6.83333 50.5H35.8333C38.5028 50.5 40.6667 48.3361 40.6667 45.6667V41.236ZM35.8333 48.0833C37.1681 48.0833 38.25 47.0014 38.25 45.6667V41.236C38.25 40.6804 38.0762 40.2357 37.8239 39.9426C33.8316 35.3052 27.926 32.375 21.3333 32.375C14.7407 32.375 8.83513 35.3052 4.84277 39.9426C4.59033 40.2357 4.41667 40.6804 4.41667 41.236V45.6667C4.41667 47.0014 5.49866 48.0833 6.83333 48.0833H35.8333Z" fill="white"/>
<path d="M45.5 31.1667C44.8328 31.1667 44.2917 30.6256 44.2917 29.9583V22.7083H37.0417C36.3744 22.7083 35.8333 22.1673 35.8333 21.5C35.8333 20.8327 36.3744 20.2917 37.0417 20.2917H44.2917V13.0417C44.2917 12.3743 44.8328 11.8333 45.5 11.8333C46.1672 11.8333 46.7083 12.3743 46.7083 13.0417V20.2917H53.9583C54.6256 20.2917 55.1667 20.8327 55.1667 21.5C55.1667 22.1673 54.6256 22.7083 53.9583 22.7083H46.7083V29.9583C46.7083 30.6256 46.1672 31.1667 45.5 31.1667Z" fill="white"/>
</svg>
