<svg width="26" height="26" viewBox="0 0 26 26" fill="none" xmlns="http://www.w3.org/2000/svg">
<mask id="path-1-inside-1_973_6270" fill="white">
<path d="M25.9992 23.6142C25.8934 22.9924 25.5188 22.5424 25.0851 22.112C22.3869 19.4382 19.6978 16.7562 17.0096 14.0726C16.6808 13.7445 16.3275 13.5228 15.8372 13.6284C15.7864 13.639 15.7077 13.6014 15.6658 13.5605C15.3617 13.2675 15.0633 12.9681 14.7755 12.6834C15.0288 12.1826 15.2969 11.713 15.5109 11.2205C16.8325 8.16949 16.0512 4.50161 13.6236 2.22135C12.2536 0.933539 10.6426 0.204544 8.77339 0.0359997C8.7242 0.0319089 8.67665 0.0122726 8.62828 0C8.27247 0 7.91747 0 7.56166 0C7.02302 0.0981811 6.47455 0.160363 5.94657 0.301089C4.22243 0.758449 2.81475 1.7149 1.71616 3.11398C0.373249 4.82478 -0.167028 6.78023 0.0444927 8.93367C0.234697 10.8752 1.06438 12.5246 2.44746 13.8943C3.57147 15.0078 4.9152 15.7278 6.46471 16.0248C8.53974 16.4224 10.4984 16.0878 12.3176 14.9906C12.7128 14.7525 12.5799 14.7337 12.9103 15.0512C13.0202 15.1567 13.1202 15.2721 13.235 15.3727C13.4859 15.5928 13.6753 15.8113 13.6179 16.2007C13.5695 16.528 13.8064 16.78 14.0319 17.0058C16.1618 19.1347 18.2918 21.2644 20.4218 23.3933C20.9965 23.9677 21.5802 24.5322 22.1418 25.1188C22.555 25.5508 23.0092 25.8945 23.6126 26H24.1209C24.4349 25.865 24.776 25.7717 25.0572 25.5868C25.5778 25.2456 25.8795 24.7343 26 24.1206V23.6126L25.9992 23.6142ZM8.05931 0.665995C12.1175 0.647177 15.4617 3.96652 15.4871 8.0394C15.5125 12.1139 12.1987 15.4627 8.11178 15.4913C4.04042 15.5192 0.683971 12.2015 0.653637 8.11958C0.623302 4.04506 3.96172 0.684813 8.05849 0.665995H8.05931ZM25.422 23.7639C25.4007 23.7746 25.3786 23.7852 25.3572 23.795C25.372 24.3416 24.9367 24.9765 24.3783 25.226C23.8807 25.4485 23.324 25.3258 22.8731 24.8758C20.0717 22.0785 17.2727 19.2787 14.4738 16.4781C14.1983 16.2032 14.1918 15.9896 14.4615 15.7131C14.9108 15.2533 15.3674 14.8008 15.8249 14.3484C15.9954 14.179 16.1848 14.179 16.3734 14.3214C16.434 14.3672 16.4881 14.4212 16.5414 14.4752C19.3174 17.2504 22.0934 20.0257 24.8694 22.8018C24.935 22.8672 25.0145 22.9286 25.0564 23.0079C25.1867 23.2558 25.3023 23.5111 25.4236 23.7631L25.422 23.7639ZM14.3836 13.2937C14.5951 13.5032 14.8673 13.7724 15.1133 14.0162C14.7484 14.3827 14.3697 14.7624 13.9794 15.1543C13.7195 14.9145 13.4424 14.6584 13.2309 14.4629C13.6252 14.0628 14.0147 13.6676 14.3836 13.2937Z"/>
</mask>
<path d="M25.9992 23.6142L34.94 28.0933L21.2614 55.3974L16.1408 25.291L25.9992 23.6142ZM25.0851 22.112L32.124 15.009L32.1288 15.0137L25.0851 22.112ZM17.0096 14.0726L24.0734 6.99436L24.0745 6.99543L17.0096 14.0726ZM15.8372 13.6284L17.9418 23.4044L17.9136 23.4105L17.8853 23.4164L15.8372 13.6284ZM15.6658 13.5605L22.6024 6.35736L22.6309 6.38486L22.6593 6.41259L15.6658 13.5605ZM14.7755 12.6834L7.74208 19.7919L2.56409 14.6686L5.85249 8.16893L14.7755 12.6834ZM15.5109 11.2205L24.687 15.1953L24.6827 15.2051L15.5109 11.2205ZM13.6236 2.22135L6.77714 9.5101L6.77438 9.50751L13.6236 2.22135ZM8.77339 0.0359997L9.60217 -9.9296L9.6368 -9.92672L9.67142 -9.9236L8.77339 0.0359997ZM8.62828 0V-10H9.87709L11.0876 -9.69288L8.62828 0ZM7.56166 0L5.76844 -9.8379L6.65773 -10H7.56166V0ZM5.94657 0.301089L8.52202 9.96376L8.51058 9.96679L5.94657 0.301089ZM1.71616 3.11398L-6.14992 -3.06055L-6.1489 -3.06186L1.71616 3.11398ZM0.0444927 8.93367L9.9966 7.95613L9.99685 7.95867L0.0444927 8.93367ZM2.44746 13.8943L9.48389 6.78873L9.48536 6.79019L2.44746 13.8943ZM6.46471 16.0248L4.58267 25.8461L4.58225 25.846L6.46471 16.0248ZM12.3176 14.9906L7.15315 6.42741L7.15686 6.42517L12.3176 14.9906ZM12.9103 15.0512L5.9823 22.2624L5.98195 22.2621L12.9103 15.0512ZM13.235 15.3727L19.8276 7.85359L19.8298 7.8555L13.235 15.3727ZM13.6179 16.2007L23.511 17.6586L23.5104 17.6628L13.6179 16.2007ZM14.0319 17.0058L6.96259 24.0786L6.9552 24.0712L14.0319 17.0058ZM20.4218 23.3933L13.3529 30.4665L13.3525 30.4661L20.4218 23.3933ZM22.1418 25.1188L29.3653 18.2036L29.3683 18.2067L22.1418 25.1188ZM23.6126 26V36H22.7446L21.8896 35.8504L23.6126 26ZM24.1209 26L28.0707 35.1869L26.1795 36H24.1209V26ZM25.0572 25.5868L19.563 17.2313L19.5694 17.2271L19.5758 17.2229L25.0572 25.5868ZM26 24.1206H36V25.0934L35.8125 26.0478L26 24.1206ZM26 23.6126L17.0592 19.1335L36 23.6126H26ZM8.05931 0.665995L8.10568 10.6659L8.08249 10.666H8.05931V0.665995ZM15.4871 8.0394L25.4869 7.977L25.4869 7.97702L15.4871 8.0394ZM8.11178 15.4913L8.18184 25.4911L8.1801 25.4911L8.11178 15.4913ZM0.653637 8.11958L10.6534 8.04513L10.6534 8.04527L0.653637 8.11958ZM8.05849 0.665995L8.01255 -9.3339L8.03552 -9.334H8.05849V0.665995ZM25.422 23.7639L29.894 32.7083L29.8869 32.7118L25.422 23.7639ZM25.3572 23.795L15.3609 24.0649L15.1829 17.4715L21.1737 14.7122L25.3572 23.795ZM24.3783 25.226L20.296 16.0972L20.2978 16.0964L24.3783 25.226ZM22.8731 24.8758L15.8093 31.9541L15.8072 31.952L22.8731 24.8758ZM14.4738 16.4781L21.5376 9.39979L21.547 9.4091L14.4738 16.4781ZM14.4615 15.7131L7.30277 8.73075L7.30892 8.72445L14.4615 15.7131ZM15.8249 14.3484L22.8717 21.4436L22.8643 21.451L22.8568 21.4583L15.8249 14.3484ZM16.3734 14.3214L22.3988 6.34047L22.4 6.34137L16.3734 14.3214ZM16.5414 14.4752L9.47132 21.5472L9.44745 21.5233L9.42375 21.4993L16.5414 14.4752ZM24.8694 22.8018L17.8056 29.88L17.7983 29.8727L24.8694 22.8018ZM25.0564 23.0079L33.9036 18.3468L33.9073 18.3539L25.0564 23.0079ZM25.4236 23.7631L34.4336 19.4248L38.7077 28.3015L29.8957 32.7074L25.4236 23.7631ZM14.3836 13.2937L7.26533 6.27018L14.3014 -0.86083L21.4199 6.18802L14.3836 13.2937ZM15.1133 14.0162L22.1534 6.91432L29.2697 13.9687L22.2009 21.0707L15.1133 14.0162ZM13.9794 15.1543L21.0655 22.2103L14.2741 29.0306L7.19927 22.5047L13.9794 15.1543ZM13.2309 14.4629L6.44258 21.8058L-1.13917 14.7967L6.10891 7.44312L13.2309 14.4629ZM16.1408 25.291C16.59 27.9321 18.2019 29.3697 18.0414 29.2104L32.1288 15.0137C32.8356 15.7151 35.1969 18.0527 35.8576 21.9374L16.1408 25.291ZM18.0461 29.215C15.334 26.5274 12.6339 23.8344 9.94463 21.1498L24.0745 6.99543C26.7618 9.67811 29.4399 12.349 32.124 15.009L18.0461 29.215ZM9.94571 21.1509C10.1727 21.3775 11.0336 22.2199 12.4834 22.8528C14.173 23.5903 16.0954 23.8019 17.9418 23.4044L13.7326 3.85233C19.1805 2.6795 22.8427 5.76618 24.0734 6.99436L9.94571 21.1509ZM17.8853 23.4164C14.9396 24.0328 12.6424 23.1572 11.8594 22.8267C10.8215 22.3885 9.69804 21.7118 8.67241 20.7083L22.6593 6.41259C21.6755 5.45003 20.6123 4.81253 19.6368 4.4008C19.1061 4.17678 18.3943 3.93181 17.5283 3.77938C16.7053 3.63452 15.3763 3.50823 13.789 3.84035L17.8853 23.4164ZM8.72931 20.7635C8.36015 20.408 7.96305 20.0105 7.74208 19.7919L21.8089 5.57484C22.1635 5.92565 22.3632 6.12705 22.6024 6.35736L8.72931 20.7635ZM5.85249 8.16893C5.95021 7.97578 6.04221 7.79974 6.11257 7.66567C6.19382 7.51085 6.2337 7.4356 6.28309 7.34048C6.37381 7.16578 6.36981 7.16503 6.33904 7.23585L24.6827 15.2051C24.438 15.7685 24.1929 16.2488 24.0328 16.5572C23.81 16.9862 23.8043 16.9887 23.6985 17.1978L5.85249 8.16893ZM6.33479 7.24566C6.12584 7.72802 6.11937 8.16771 6.18797 8.49337C6.25615 8.81697 6.4304 9.1844 6.77714 9.5101L20.4701 -5.06741C25.9279 0.0592196 27.7088 8.21924 24.687 15.1953L6.33479 7.24566ZM6.77438 9.50751C6.84128 9.57039 7.00982 9.70536 7.27411 9.82457C7.53944 9.94425 7.7625 9.98542 7.87537 9.9956L9.67142 -9.9236C13.7888 -9.55235 17.4894 -7.86931 20.4728 -5.06481L6.77438 9.50751ZM7.94462 10.0016C6.92391 9.91671 6.14585 9.69195 5.92617 9.62851C5.83835 9.60315 5.68231 9.55571 5.77487 9.58365C5.79922 9.591 5.95903 9.63961 6.16901 9.69288L11.0876 -9.69288C11.3217 -9.63347 11.5056 -9.5778 11.554 -9.56319C11.6706 -9.52799 11.5386 -9.56797 11.4749 -9.58637C11.3684 -9.61711 11.1379 -9.68191 10.8385 -9.74626C10.5339 -9.81175 10.1114 -9.88725 9.60217 -9.9296L7.94462 10.0016ZM8.62828 10C8.62759 10 8.62689 10 8.6262 10C8.6255 10 8.62481 10 8.62411 10C8.62342 10 8.62272 10 8.62203 10C8.62133 10 8.62064 10 8.61994 10C8.61925 10 8.61855 10 8.61786 10C8.61716 10 8.61647 10 8.61577 10C8.61508 10 8.61438 10 8.61369 10C8.61299 10 8.6123 10 8.6116 10C8.61091 10 8.61021 10 8.60952 10C8.60882 10 8.60813 10 8.60743 10C8.60674 10 8.60604 10 8.60535 10C8.60465 10 8.60396 10 8.60326 10C8.60257 10 8.60188 10 8.60118 10C8.60048 10 8.59979 10 8.59909 10C8.5984 10 8.59771 10 8.59701 10C8.59632 10 8.59562 10 8.59493 10C8.59423 10 8.59354 10 8.59284 10C8.59215 10 8.59145 10 8.59076 10C8.59006 10 8.58937 10 8.58867 10C8.58798 10 8.58728 10 8.58659 10C8.58589 10 8.5852 10 8.5845 10C8.58381 10 8.58311 10 8.58242 10C8.58172 10 8.58103 10 8.58033 10C8.57964 10 8.57895 10 8.57825 10C8.57755 10 8.57686 10 8.57617 10C8.57547 10 8.57478 10 8.57408 10C8.57339 10 8.57269 10 8.572 10C8.5713 10 8.57061 10 8.56991 10C8.56922 10 8.56852 10 8.56783 10C8.56713 10 8.56644 10 8.56574 10C8.56505 10 8.56435 10 8.56366 10C8.56297 10 8.56227 10 8.56157 10C8.56088 10 8.56019 10 8.55949 10C8.5588 10 8.5581 10 8.55741 10C8.55671 10 8.55602 10 8.55532 10C8.55463 10 8.55393 10 8.55324 10C8.55254 10 8.55185 10 8.55116 10C8.55046 10 8.54976 10 8.54907 10C8.54838 10 8.54768 10 8.54699 10C8.54629 10 8.5456 10 8.5449 10C8.54421 10 8.54351 10 8.54282 10C8.54212 10 8.54143 10 8.54073 10C8.54004 10 8.53934 10 8.53865 10C8.53795 10 8.53726 10 8.53657 10C8.53587 10 8.53518 10 8.53448 10C8.53379 10 8.53309 10 8.5324 10C8.5317 10 8.53101 10 8.53031 10C8.52962 10 8.52892 10 8.52823 10C8.52753 10 8.52684 10 8.52614 10C8.52545 10 8.52476 10 8.52406 10C8.52337 10 8.52267 10 8.52198 10C8.52128 10 8.52059 10 8.51989 10C8.5192 10 8.5185 10 8.51781 10C8.51711 10 8.51642 10 8.51572 10C8.51503 10 8.51434 10 8.51364 10C8.51295 10 8.51225 10 8.51156 10C8.51086 10 8.51017 10 8.50947 10C8.50878 10 8.50808 10 8.50739 10C8.50669 10 8.506 10 8.50531 10C8.50461 10 8.50392 10 8.50322 10C8.50253 10 8.50183 10 8.50114 10C8.50044 10 8.49975 10 8.49905 10C8.49836 10 8.49767 10 8.49697 10C8.49627 10 8.49558 10 8.49489 10C8.49419 10 8.4935 10 8.4928 10C8.49211 10 8.49141 10 8.49072 10C8.49002 10 8.48933 10 8.48863 10C8.48794 10 8.48725 10 8.48655 10C8.48586 10 8.48516 10 8.48447 10C8.48377 10 8.48308 10 8.48238 10C8.48169 10 8.481 10 8.4803 10C8.4796 10 8.47891 10 8.47822 10C8.47752 10 8.47683 10 8.47613 10C8.47544 10 8.47474 10 8.47405 10C8.47335 10 8.47266 10 8.47197 10C8.47127 10 8.47058 10 8.46988 10C8.46919 10 8.46849 10 8.4678 10C8.4671 10 8.46641 10 8.46572 10C8.46502 10 8.46432 10 8.46363 10C8.46294 10 8.46224 10 8.46155 10C8.46085 10 8.46016 10 8.45946 10C8.45877 10 8.45807 10 8.45738 10C8.45669 10 8.45599 10 8.4553 10C8.4546 10 8.45391 10 8.45321 10C8.45252 10 8.45182 10 8.45113 10C8.45044 10 8.44974 10 8.44905 10C8.44835 10 8.44766 10 8.44696 10C8.44627 10 8.44557 10 8.44488 10C8.44419 10 8.44349 10 8.4428 10C8.4421 10 8.44141 10 8.44071 10C8.44002 10 8.43932 10 8.43863 10C8.43793 10 8.43724 10 8.43655 10C8.43585 10 8.43516 10 8.43446 10C8.43377 10 8.43307 10 8.43238 10C8.43168 10 8.43099 10 8.4303 10C8.4296 10 8.42891 10 8.42821 10C8.42752 10 8.42682 10 8.42613 10C8.42543 10 8.42474 10 8.42405 10C8.42335 10 8.42266 10 8.42196 10C8.42127 10 8.42057 10 8.41988 10C8.41918 10 8.41849 10 8.4178 10C8.4171 10 8.41641 10 8.41571 10C8.41502 10 8.41432 10 8.41363 10C8.41293 10 8.41224 10 8.41154 10C8.41085 10 8.41016 10 8.40946 10C8.40877 10 8.40807 10 8.40738 10C8.40668 10 8.40599 10 8.40529 10C8.4046 10 8.40391 10 8.40321 10C8.40252 10 8.40182 10 8.40113 10C8.40043 10 8.39974 10 8.39905 10C8.39835 10 8.39766 10 8.39696 10C8.39627 10 8.39557 10 8.39488 10C8.39418 10 8.39349 10 8.3928 10C8.3921 10 8.39141 10 8.39071 10C8.39002 10 8.38932 10 8.38863 10C8.38794 10 8.38724 10 8.38655 10C8.38585 10 8.38516 10 8.38446 10C8.38377 10 8.38307 10 8.38238 10C8.38169 10 8.38099 10 8.3803 10C8.3796 10 8.37891 10 8.37821 10C8.37752 10 8.37683 10 8.37613 10C8.37544 10 8.37474 10 8.37405 10C8.37335 10 8.37266 10 8.37197 10C8.37127 10 8.37057 10 8.36988 10C8.36919 10 8.36849 10 8.3678 10C8.3671 10 8.36641 10 8.36572 10C8.36502 10 8.36433 10 8.36363 10C8.36294 10 8.36224 10 8.36155 10C8.36086 10 8.36016 10 8.35947 10C8.35877 10 8.35808 10 8.35738 10C8.35669 10 8.356 10 8.3553 10C8.35461 10 8.35391 10 8.35322 10C8.35252 10 8.35183 10 8.35113 10C8.35044 10 8.34974 10 8.34905 10C8.34836 10 8.34766 10 8.34697 10C8.34627 10 8.34558 10 8.34488 10C8.34419 10 8.3435 10 8.3428 10C8.34211 10 8.34141 10 8.34072 10C8.34002 10 8.33933 10 8.33864 10C8.33794 10 8.33725 10 8.33655 10C8.33586 10 8.33517 10 8.33447 10C8.33378 10 8.33308 10 8.33239 10C8.33169 10 8.331 10 8.33031 10C8.32961 10 8.32892 10 8.32822 10C8.32753 10 8.32683 10 8.32614 10C8.32545 10 8.32475 10 8.32406 10C8.32336 10 8.32267 10 8.32197 10C8.32128 10 8.32059 10 8.31989 10C8.3192 10 8.3185 10 8.31781 10C8.31711 10 8.31642 10 8.31573 10C8.31503 10 8.31434 10 8.31364 10C8.31295 10 8.31225 10 8.31156 10C8.31087 10 8.31017 10 8.30948 10C8.30878 10 8.30809 10 8.30739 10C8.3067 10 8.30601 10 8.30531 10C8.30462 10 8.30392 10 8.30323 10C8.30253 10 8.30184 10 8.30115 10C8.30045 10 8.29976 10 8.29906 10C8.29837 10 8.29767 10 8.29698 10C8.29629 10 8.29559 10 8.2949 10C8.2942 10 8.29351 10 8.29281 10C8.29212 10 8.29143 10 8.29073 10C8.29004 10 8.28934 10 8.28865 10C8.28795 10 8.28726 10 8.28657 10C8.28587 10 8.28518 10 8.28448 10C8.28379 10 8.28309 10 8.2824 10C8.28171 10 8.28101 10 8.28032 10C8.27962 10 8.27893 10 8.27823 10C8.27754 10 8.27685 10 8.27615 10C8.27546 10 8.27476 10 8.27407 10C8.27337 10 8.27268 10 8.27199 10C8.27129 10 8.2706 10 8.2699 10C8.26921 10 8.26851 10 8.26782 10C8.26713 10 8.26643 10 8.26574 10C8.26504 10 8.26435 10 8.26365 10C8.26296 10 8.26227 10 8.26157 10C8.26088 10 8.26018 10 8.25949 10C8.2588 10 8.2581 10 8.25741 10C8.25671 10 8.25602 10 8.25533 10C8.25463 10 8.25394 10 8.25324 10C8.25255 10 8.25185 10 8.25116 10C8.25047 10 8.24977 10 8.24908 10C8.24838 10 8.24769 10 8.24699 10C8.2463 10 8.24561 10 8.24491 10C8.24422 10 8.24352 10 8.24283 10C8.24213 10 8.24144 10 8.24075 10C8.24005 10 8.23936 10 8.23866 10C8.23797 10 8.23728 10 8.23658 10C8.23589 10 8.23519 10 8.2345 10C8.2338 10 8.23311 10 8.23242 10C8.23172 10 8.23103 10 8.23033 10C8.22964 10 8.22894 10 8.22825 10C8.22756 10 8.22686 10 8.22617 10C8.22547 10 8.22478 10 8.22408 10C8.22339 10 8.2227 10 8.222 10C8.22131 10 8.22061 10 8.21992 10C8.21923 10 8.21853 10 8.21784 10C8.21714 10 8.21645 10 8.21576 10C8.21506 10 8.21437 10 8.21367 10C8.21298 10 8.21228 10 8.21159 10C8.2109 10 8.2102 10 8.20951 10C8.20881 10 8.20812 10 8.20742 10C8.20673 10 8.20604 10 8.20534 10C8.20465 10 8.20395 10 8.20326 10C8.20257 10 8.20187 10 8.20118 10C8.20048 10 8.19979 10 8.19909 10C8.1984 10 8.19771 10 8.19701 10C8.19632 10 8.19562 10 8.19493 10C8.19423 10 8.19354 10 8.19285 10C8.19215 10 8.19146 10 8.19077 10C8.19007 10 8.18938 10 8.18868 10C8.18799 10 8.18729 10 8.1866 10C8.18591 10 8.18521 10 8.18452 10C8.18382 10 8.18313 10 8.18243 10C8.18174 10 8.18105 10 8.18035 10C8.17966 10 8.17896 10 8.17827 10C8.17758 10 8.17688 10 8.17619 10C8.17549 10 8.1748 10 8.1741 10C8.17341 10 8.17272 10 8.17202 10C8.17133 10 8.17063 10 8.16994 10C8.16924 10 8.16855 10 8.16786 10C8.16716 10 8.16647 10 8.16578 10C8.16508 10 8.16439 10 8.16369 10C8.163 10 8.1623 10 8.16161 10C8.16092 10 8.16022 10 8.15953 10C8.15883 10 8.15814 10 8.15744 10C8.15675 10 8.15606 10 8.15536 10C8.15467 10 8.15397 10 8.15328 10C8.15259 10 8.15189 10 8.1512 10C8.1505 10 8.14981 10 8.14911 10C8.14842 10 8.14773 10 8.14703 10C8.14634 10 8.14564 10 8.14495 10C8.14426 10 8.14356 10 8.14287 10C8.14217 10 8.14148 10 8.14079 10C8.14009 10 8.1394 10 8.1387 10C8.13801 10 8.13731 10 8.13662 10C8.13593 10 8.13523 10 8.13454 10C8.13384 10 8.13315 10 8.13246 10C8.13176 10 8.13107 10 8.13037 10C8.12968 10 8.12898 10 8.12829 10C8.1276 10 8.1269 10 8.12621 10C8.12551 10 8.12482 10 8.12412 10C8.12343 10 8.12274 10 8.12204 10C8.12135 10 8.12066 10 8.11996 10C8.11927 10 8.11857 10 8.11788 10C8.11718 10 8.11649 10 8.1158 10C8.1151 10 8.11441 10 8.11371 10C8.11302 10 8.11233 10 8.11163 10C8.11094 10 8.11024 10 8.10955 10C8.10885 10 8.10816 10 8.10747 10C8.10677 10 8.10608 10 8.10538 10C8.10469 10 8.10399 10 8.1033 10C8.10261 10 8.10191 10 8.10122 10C8.10052 10 8.09983 10 8.09914 10C8.09844 10 8.09775 10 8.09705 10C8.09636 10 8.09566 10 8.09497 10C8.09428 10 8.09358 10 8.09289 10C8.09219 10 8.0915 10 8.09081 10C8.09011 10 8.08942 10 8.08872 10C8.08803 10 8.08734 10 8.08664 10C8.08595 10 8.08525 10 8.08456 10C8.08386 10 8.08317 10 8.08248 10C8.08178 10 8.08109 10 8.08039 10C8.0797 10 8.07901 10 8.07831 10C8.07762 10 8.07692 10 8.07623 10C8.07553 10 8.07484 10 8.07415 10C8.07345 10 8.07276 10 8.07206 10C8.07137 10 8.07068 10 8.06998 10C8.06929 10 8.06859 10 8.0679 10C8.06721 10 8.06651 10 8.06582 10C8.06512 10 8.06443 10 8.06373 10C8.06304 10 8.06235 10 8.06165 10C8.06096 10 8.06026 10 8.05957 10C8.05888 10 8.05818 10 8.05749 10C8.05679 10 8.0561 10 8.0554 10C8.05471 10 8.05402 10 8.05332 10C8.05263 10 8.05193 10 8.05124 10C8.05054 10 8.04985 10 8.04916 10C8.04846 10 8.04777 10 8.04708 10C8.04638 10 8.04569 10 8.04499 10C8.0443 10 8.0436 10 8.04291 10C8.04222 10 8.04152 10 8.04083 10C8.04013 10 8.03944 10 8.03874 10C8.03805 10 8.03736 10 8.03666 10C8.03597 10 8.03527 10 8.03458 10C8.03389 10 8.03319 10 8.0325 10C8.0318 10 8.03111 10 8.03041 10C8.02972 10 8.02903 10 8.02833 10C8.02764 10 8.02695 10 8.02625 10C8.02556 10 8.02486 10 8.02417 10C8.02347 10 8.02278 10 8.02209 10C8.02139 10 8.0207 10 8.02 10C8.01931 10 8.01861 10 8.01792 10C8.01723 10 8.01653 10 8.01584 10C8.01514 10 8.01445 10 8.01376 10C8.01306 10 8.01237 10 8.01167 10C8.01098 10 8.01028 10 8.00959 10C8.0089 10 8.0082 10 8.00751 10C8.00681 10 8.00612 10 8.00542 10C8.00473 10 8.00404 10 8.00334 10C8.00265 10 8.00196 10 8.00126 10C8.00057 10 7.99987 10 7.99918 10C7.99848 10 7.99779 10 7.9971 10C7.9964 10 7.99571 10 7.99501 10C7.99432 10 7.99362 10 7.99293 10C7.99224 10 7.99154 10 7.99085 10C7.99015 10 7.98946 10 7.98877 10C7.98807 10 7.98738 10 7.98668 10C7.98599 10 7.98529 10 7.9846 10C7.98391 10 7.98321 10 7.98252 10C7.98182 10 7.98113 10 7.98043 10C7.97974 10 7.97905 10 7.97835 10C7.97766 10 7.97696 10 7.97627 10C7.97557 10 7.97488 10 7.97419 10C7.97349 10 7.9728 10 7.97211 10C7.97141 10 7.97072 10 7.97002 10C7.96933 10 7.96863 10 7.96794 10C7.96725 10 7.96655 10 7.96586 10C7.96516 10 7.96447 10 7.96377 10C7.96308 10 7.96239 10 7.96169 10C7.961 10 7.9603 10 7.95961 10C7.95892 10 7.95822 10 7.95753 10C7.95683 10 7.95614 10 7.95544 10C7.95475 10 7.95406 10 7.95336 10C7.95267 10 7.95197 10 7.95128 10C7.95058 10 7.94989 10 7.9492 10C7.9485 10 7.94781 10 7.94711 10C7.94642 10 7.94572 10 7.94503 10C7.94434 10 7.94364 10 7.94295 10C7.94225 10 7.94156 10 7.94086 10C7.94017 10 7.93948 10 7.93878 10C7.93809 10 7.9374 10 7.9367 10C7.93601 10 7.93531 10 7.93462 10C7.93392 10 7.93323 10 7.93254 10C7.93184 10 7.93115 10 7.93045 10C7.92976 10 7.92906 10 7.92837 10C7.92768 10 7.92698 10 7.92629 10C7.92559 10 7.9249 10 7.9242 10C7.92351 10 7.92282 10 7.92212 10C7.92143 10 7.92073 10 7.92004 10C7.91934 10 7.91865 10 7.91796 10C7.91726 10 7.91657 10 7.91587 10C7.91518 10 7.91448 10 7.91379 10C7.9131 10 7.9124 10 7.91171 10C7.91101 10 7.91032 10 7.90963 10C7.90893 10 7.90824 10 7.90754 10C7.90685 10 7.90615 10 7.90546 10C7.90477 10 7.90407 10 7.90338 10C7.90268 10 7.90199 10 7.90129 10C7.9006 10 7.89991 10 7.89921 10C7.89852 10 7.89782 10 7.89713 10C7.89643 10 7.89574 10 7.89505 10C7.89435 10 7.89366 10 7.89296 10C7.89227 10 7.89157 10 7.89088 10C7.89019 10 7.88949 10 7.8888 10C7.8881 10 7.88741 10 7.88671 10C7.88602 10 7.88533 10 7.88463 10C7.88394 10 7.88324 10 7.88255 10C7.88186 10 7.88116 10 7.88047 10C7.87977 10 7.87908 10 7.87838 10C7.87769 10 7.877 10 7.8763 10C7.87561 10 7.87491 10 7.87422 10C7.87352 10 7.87283 10 7.87214 10C7.87144 10 7.87075 10 7.87005 10C7.86936 10 7.86866 10 7.86797 10C7.86728 10 7.86658 10 7.86589 10C7.86519 10 7.8645 10 7.8638 10C7.86311 10 7.86242 10 7.86172 10C7.86103 10 7.86033 10 7.85964 10C7.85894 10 7.85825 10 7.85756 10C7.85686 10 7.85617 10 7.85547 10C7.85478 10 7.85408 10 7.85339 10C7.85269 10 7.852 10 7.85131 10C7.85061 10 7.84992 10 7.84922 10C7.84853 10 7.84783 10 7.84714 10C7.84645 10 7.84575 10 7.84506 10C7.84436 10 7.84367 10 7.84297 10C7.84228 10 7.84159 10 7.84089 10C7.8402 10 7.8395 10 7.83881 10C7.83811 10 7.83742 10 7.83673 10C7.83603 10 7.83534 10 7.83464 10C7.83395 10 7.83325 10 7.83256 10C7.83187 10 7.83117 10 7.83048 10C7.82978 10 7.82909 10 7.82839 10C7.8277 10 7.827 10 7.82631 10C7.82561 10 7.82492 10 7.82423 10C7.82353 10 7.82284 10 7.82214 10C7.82145 10 7.82076 10 7.82006 10C7.81937 10 7.81867 10 7.81798 10C7.81728 10 7.81659 10 7.8159 10C7.8152 10 7.81451 10 7.81381 10C7.81312 10 7.81242 10 7.81173 10C7.81103 10 7.81034 10 7.80964 10C7.80895 10 7.80826 10 7.80756 10C7.80687 10 7.80617 10 7.80548 10C7.80478 10 7.80409 10 7.8034 10C7.8027 10 7.80201 10 7.80131 10C7.80062 10 7.79992 10 7.79923 10C7.79853 10 7.79784 10 7.79715 10C7.79645 10 7.79576 10 7.79506 10C7.79437 10 7.79367 10 7.79298 10C7.79229 10 7.79159 10 7.7909 10C7.7902 10 7.78951 10 7.78881 10C7.78812 10 7.78742 10 7.78673 10C7.78604 10 7.78534 10 7.78465 10C7.78395 10 7.78326 10 7.78256 10C7.78187 10 7.78118 10 7.78048 10C7.77979 10 7.77909 10 7.7784 10C7.7777 10 7.77701 10 7.77631 10C7.77562 10 7.77493 10 7.77423 10C7.77354 10 7.77284 10 7.77215 10C7.77145 10 7.77076 10 7.77006 10C7.76937 10 7.76867 10 7.76798 10C7.76729 10 7.76659 10 7.7659 10C7.7652 10 7.76451 10 7.76381 10C7.76312 10 7.76242 10 7.76173 10C7.76104 10 7.76034 10 7.75965 10C7.75895 10 7.75826 10 7.75756 10C7.75687 10 7.75617 10 7.75548 10C7.75479 10 7.75409 10 7.7534 10C7.7527 10 7.75201 10 7.75131 10C7.75062 10 7.74992 10 7.74923 10C7.74854 10 7.74784 10 7.74715 10C7.74645 10 7.74576 10 7.74506 10C7.74437 10 7.74367 10 7.74298 10C7.74228 10 7.74159 10 7.7409 10C7.7402 10 7.73951 10 7.73881 10C7.73812 10 7.73742 10 7.73673 10C7.73603 10 7.73534 10 7.73465 10C7.73395 10 7.73326 10 7.73256 10C7.73187 10 7.73117 10 7.73048 10C7.72978 10 7.72909 10 7.7284 10C7.7277 10 7.72701 10 7.72631 10C7.72562 10 7.72492 10 7.72423 10C7.72353 10 7.72284 10 7.72214 10C7.72145 10 7.72075 10 7.72006 10C7.71937 10 7.71867 10 7.71798 10C7.71728 10 7.71659 10 7.71589 10C7.7152 10 7.7145 10 7.71381 10C7.71312 10 7.71242 10 7.71173 10C7.71103 10 7.71034 10 7.70964 10C7.70895 10 7.70825 10 7.70756 10C7.70686 10 7.70617 10 7.70547 10C7.70478 10 7.70409 10 7.70339 10C7.7027 10 7.702 10 7.70131 10C7.70061 10 7.69992 10 7.69922 10C7.69853 10 7.69783 10 7.69714 10C7.69645 10 7.69575 10 7.69506 10C7.69436 10 7.69367 10 7.69297 10C7.69228 10 7.69158 10 7.69089 10C7.69019 10 7.6895 10 7.6888 10C7.68811 10 7.68741 10 7.68672 10C7.68603 10 7.68533 10 7.68464 10C7.68394 10 7.68325 10 7.68255 10C7.68186 10 7.68116 10 7.68047 10C7.67977 10 7.67908 10 7.67838 10C7.67769 10 7.677 10 7.6763 10C7.67561 10 7.67491 10 7.67422 10C7.67352 10 7.67283 10 7.67213 10C7.67144 10 7.67074 10 7.67005 10C7.66936 10 7.66866 10 7.66796 10C7.66727 10 7.66658 10 7.66588 10C7.66519 10 7.66449 10 7.6638 10C7.6631 10 7.66241 10 7.66171 10C7.66102 10 7.66032 10 7.65963 10C7.65893 10 7.65824 10 7.65755 10C7.65685 10 7.65616 10 7.65546 10C7.65477 10 7.65407 10 7.65338 10C7.65268 10 7.65199 10 7.65129 10C7.6506 10 7.6499 10 7.64921 10C7.64851 10 7.64782 10 7.64713 10C7.64643 10 7.64573 10 7.64504 10C7.64435 10 7.64365 10 7.64296 10C7.64226 10 7.64157 10 7.64087 10C7.64018 10 7.63948 10 7.63879 10C7.63809 10 7.6374 10 7.6367 10C7.63601 10 7.63531 10 7.63462 10C7.63392 10 7.63323 10 7.63254 10C7.63184 10 7.63115 10 7.63045 10C7.62976 10 7.62906 10 7.62837 10C7.62767 10 7.62698 10 7.62628 10C7.62559 10 7.62489 10 7.6242 10C7.6235 10 7.62281 10 7.62211 10C7.62142 10 7.62072 10 7.62003 10C7.61934 10 7.61864 10 7.61794 10C7.61725 10 7.61656 10 7.61586 10C7.61517 10 7.61447 10 7.61378 10C7.61308 10 7.61239 10 7.61169 10C7.611 10 7.6103 10 7.60961 10C7.60891 10 7.60822 10 7.60752 10C7.60683 10 7.60613 10 7.60544 10C7.60474 10 7.60405 10 7.60335 10C7.60266 10 7.60196 10 7.60127 10C7.60057 10 7.59988 10 7.59919 10C7.59849 10 7.5978 10 7.5971 10C7.59641 10 7.59571 10 7.59502 10C7.59432 10 7.59363 10 7.59293 10C7.59224 10 7.59154 10 7.59085 10C7.59015 10 7.58946 10 7.58876 10C7.58807 10 7.58737 10 7.58668 10C7.58598 10 7.58529 10 7.58459 10C7.5839 10 7.5832 10 7.58251 10C7.58181 10 7.58112 10 7.58042 10C7.57973 10 7.57903 10 7.57834 10C7.57764 10 7.57695 10 7.57625 10C7.57556 10 7.57487 10 7.57417 10C7.57347 10 7.57278 10 7.57208 10C7.57139 10 7.5707 10 7.57 10C7.56931 10 7.56861 10 7.56791 10C7.56722 10 7.56653 10 7.56583 10C7.56514 10 7.56444 10 7.56375 10C7.56305 10 7.56236 10 7.56166 10V-10C7.56236 -10 7.56305 -10 7.56375 -10C7.56444 -10 7.56514 -10 7.56583 -10C7.56653 -10 7.56722 -10 7.56791 -10C7.56861 -10 7.56931 -10 7.57 -10C7.5707 -10 7.57139 -10 7.57208 -10C7.57278 -10 7.57347 -10 7.57417 -10C7.57487 -10 7.57556 -10 7.57625 -10C7.57695 -10 7.57764 -10 7.57834 -10C7.57903 -10 7.57973 -10 7.58042 -10C7.58112 -10 7.58181 -10 7.58251 -10C7.5832 -10 7.5839 -10 7.58459 -10C7.58529 -10 7.58598 -10 7.58668 -10C7.58737 -10 7.58807 -10 7.58876 -10C7.58946 -10 7.59015 -10 7.59085 -10C7.59154 -10 7.59224 -10 7.59293 -10C7.59363 -10 7.59432 -10 7.59502 -10C7.59571 -10 7.59641 -10 7.5971 -10C7.5978 -10 7.59849 -10 7.59919 -10C7.59988 -10 7.60057 -10 7.60127 -10C7.60196 -10 7.60266 -10 7.60335 -10C7.60405 -10 7.60474 -10 7.60544 -10C7.60613 -10 7.60683 -10 7.60752 -10C7.60822 -10 7.60891 -10 7.60961 -10C7.6103 -10 7.611 -10 7.61169 -10C7.61239 -10 7.61308 -10 7.61378 -10C7.61447 -10 7.61517 -10 7.61586 -10C7.61656 -10 7.61725 -10 7.61794 -10C7.61864 -10 7.61934 -10 7.62003 -10C7.62072 -10 7.62142 -10 7.62211 -10C7.62281 -10 7.6235 -10 7.6242 -10C7.62489 -10 7.62559 -10 7.62628 -10C7.62698 -10 7.62767 -10 7.62837 -10C7.62906 -10 7.62976 -10 7.63045 -10C7.63115 -10 7.63184 -10 7.63254 -10C7.63323 -10 7.63392 -10 7.63462 -10C7.63531 -10 7.63601 -10 7.6367 -10C7.6374 -10 7.63809 -10 7.63879 -10C7.63948 -10 7.64018 -10 7.64087 -10C7.64157 -10 7.64226 -10 7.64296 -10C7.64365 -10 7.64435 -10 7.64504 -10C7.64573 -10 7.64643 -10 7.64713 -10C7.64782 -10 7.64851 -10 7.64921 -10C7.6499 -10 7.6506 -10 7.65129 -10C7.65199 -10 7.65268 -10 7.65338 -10C7.65407 -10 7.65477 -10 7.65546 -10C7.65616 -10 7.65685 -10 7.65755 -10C7.65824 -10 7.65893 -10 7.65963 -10C7.66032 -10 7.66102 -10 7.66171 -10C7.66241 -10 7.6631 -10 7.6638 -10C7.66449 -10 7.66519 -10 7.66588 -10C7.66658 -10 7.66727 -10 7.66796 -10C7.66866 -10 7.66936 -10 7.67005 -10C7.67074 -10 7.67144 -10 7.67213 -10C7.67283 -10 7.67352 -10 7.67422 -10C7.67491 -10 7.67561 -10 7.6763 -10C7.677 -10 7.67769 -10 7.67838 -10C7.67908 -10 7.67977 -10 7.68047 -10C7.68116 -10 7.68186 -10 7.68255 -10C7.68325 -10 7.68394 -10 7.68464 -10C7.68533 -10 7.68603 -10 7.68672 -10C7.68741 -10 7.68811 -10 7.6888 -10C7.6895 -10 7.69019 -10 7.69089 -10C7.69158 -10 7.69228 -10 7.69297 -10C7.69367 -10 7.69436 -10 7.69506 -10C7.69575 -10 7.69645 -10 7.69714 -10C7.69783 -10 7.69853 -10 7.69922 -10C7.69992 -10 7.70061 -10 7.70131 -10C7.702 -10 7.7027 -10 7.70339 -10C7.70409 -10 7.70478 -10 7.70547 -10C7.70617 -10 7.70686 -10 7.70756 -10C7.70825 -10 7.70895 -10 7.70964 -10C7.71034 -10 7.71103 -10 7.71173 -10C7.71242 -10 7.71312 -10 7.71381 -10C7.7145 -10 7.7152 -10 7.71589 -10C7.71659 -10 7.71728 -10 7.71798 -10C7.71867 -10 7.71937 -10 7.72006 -10C7.72075 -10 7.72145 -10 7.72214 -10C7.72284 -10 7.72353 -10 7.72423 -10C7.72492 -10 7.72562 -10 7.72631 -10C7.72701 -10 7.7277 -10 7.7284 -10C7.72909 -10 7.72978 -10 7.73048 -10C7.73117 -10 7.73187 -10 7.73256 -10C7.73326 -10 7.73395 -10 7.73465 -10C7.73534 -10 7.73603 -10 7.73673 -10C7.73742 -10 7.73812 -10 7.73881 -10C7.73951 -10 7.7402 -10 7.7409 -10C7.74159 -10 7.74228 -10 7.74298 -10C7.74367 -10 7.74437 -10 7.74506 -10C7.74576 -10 7.74645 -10 7.74715 -10C7.74784 -10 7.74854 -10 7.74923 -10C7.74992 -10 7.75062 -10 7.75131 -10C7.75201 -10 7.7527 -10 7.7534 -10C7.75409 -10 7.75479 -10 7.75548 -10C7.75617 -10 7.75687 -10 7.75756 -10C7.75826 -10 7.75895 -10 7.75965 -10C7.76034 -10 7.76104 -10 7.76173 -10C7.76242 -10 7.76312 -10 7.76381 -10C7.76451 -10 7.7652 -10 7.7659 -10C7.76659 -10 7.76729 -10 7.76798 -10C7.76867 -10 7.76937 -10 7.77006 -10C7.77076 -10 7.77145 -10 7.77215 -10C7.77284 -10 7.77354 -10 7.77423 -10C7.77493 -10 7.77562 -10 7.77631 -10C7.77701 -10 7.7777 -10 7.7784 -10C7.77909 -10 7.77979 -10 7.78048 -10C7.78118 -10 7.78187 -10 7.78256 -10C7.78326 -10 7.78395 -10 7.78465 -10C7.78534 -10 7.78604 -10 7.78673 -10C7.78742 -10 7.78812 -10 7.78881 -10C7.78951 -10 7.7902 -10 7.7909 -10C7.79159 -10 7.79229 -10 7.79298 -10C7.79367 -10 7.79437 -10 7.79506 -10C7.79576 -10 7.79645 -10 7.79715 -10C7.79784 -10 7.79853 -10 7.79923 -10C7.79992 -10 7.80062 -10 7.80131 -10C7.80201 -10 7.8027 -10 7.8034 -10C7.80409 -10 7.80478 -10 7.80548 -10C7.80617 -10 7.80687 -10 7.80756 -10C7.80826 -10 7.80895 -10 7.80964 -10C7.81034 -10 7.81103 -10 7.81173 -10C7.81242 -10 7.81312 -10 7.81381 -10C7.81451 -10 7.8152 -10 7.8159 -10C7.81659 -10 7.81728 -10 7.81798 -10C7.81867 -10 7.81937 -10 7.82006 -10C7.82076 -10 7.82145 -10 7.82214 -10C7.82284 -10 7.82353 -10 7.82423 -10C7.82492 -10 7.82561 -10 7.82631 -10C7.827 -10 7.8277 -10 7.82839 -10C7.82909 -10 7.82978 -10 7.83048 -10C7.83117 -10 7.83187 -10 7.83256 -10C7.83325 -10 7.83395 -10 7.83464 -10C7.83534 -10 7.83603 -10 7.83673 -10C7.83742 -10 7.83811 -10 7.83881 -10C7.8395 -10 7.8402 -10 7.84089 -10C7.84159 -10 7.84228 -10 7.84297 -10C7.84367 -10 7.84436 -10 7.84506 -10C7.84575 -10 7.84645 -10 7.84714 -10C7.84783 -10 7.84853 -10 7.84922 -10C7.84992 -10 7.85061 -10 7.85131 -10C7.852 -10 7.85269 -10 7.85339 -10C7.85408 -10 7.85478 -10 7.85547 -10C7.85617 -10 7.85686 -10 7.85756 -10C7.85825 -10 7.85894 -10 7.85964 -10C7.86033 -10 7.86103 -10 7.86172 -10C7.86242 -10 7.86311 -10 7.8638 -10C7.8645 -10 7.86519 -10 7.86589 -10C7.86658 -10 7.86728 -10 7.86797 -10C7.86866 -10 7.86936 -10 7.87005 -10C7.87075 -10 7.87144 -10 7.87214 -10C7.87283 -10 7.87352 -10 7.87422 -10C7.87491 -10 7.87561 -10 7.8763 -10C7.877 -10 7.87769 -10 7.87838 -10C7.87908 -10 7.87977 -10 7.88047 -10C7.88116 -10 7.88186 -10 7.88255 -10C7.88324 -10 7.88394 -10 7.88463 -10C7.88533 -10 7.88602 -10 7.88671 -10C7.88741 -10 7.8881 -10 7.8888 -10C7.88949 -10 7.89019 -10 7.89088 -10C7.89157 -10 7.89227 -10 7.89296 -10C7.89366 -10 7.89435 -10 7.89505 -10C7.89574 -10 7.89643 -10 7.89713 -10C7.89782 -10 7.89852 -10 7.89921 -10C7.89991 -10 7.9006 -10 7.90129 -10C7.90199 -10 7.90268 -10 7.90338 -10C7.90407 -10 7.90477 -10 7.90546 -10C7.90615 -10 7.90685 -10 7.90754 -10C7.90824 -10 7.90893 -10 7.90963 -10C7.91032 -10 7.91101 -10 7.91171 -10C7.9124 -10 7.9131 -10 7.91379 -10C7.91448 -10 7.91518 -10 7.91587 -10C7.91657 -10 7.91726 -10 7.91796 -10C7.91865 -10 7.91934 -10 7.92004 -10C7.92073 -10 7.92143 -10 7.92212 -10C7.92282 -10 7.92351 -10 7.9242 -10C7.9249 -10 7.92559 -10 7.92629 -10C7.92698 -10 7.92768 -10 7.92837 -10C7.92906 -10 7.92976 -10 7.93045 -10C7.93115 -10 7.93184 -10 7.93254 -10C7.93323 -10 7.93392 -10 7.93462 -10C7.93531 -10 7.93601 -10 7.9367 -10C7.9374 -10 7.93809 -10 7.93878 -10C7.93948 -10 7.94017 -10 7.94086 -10C7.94156 -10 7.94225 -10 7.94295 -10C7.94364 -10 7.94434 -10 7.94503 -10C7.94572 -10 7.94642 -10 7.94711 -10C7.94781 -10 7.9485 -10 7.9492 -10C7.94989 -10 7.95058 -10 7.95128 -10C7.95197 -10 7.95267 -10 7.95336 -10C7.95406 -10 7.95475 -10 7.95544 -10C7.95614 -10 7.95683 -10 7.95753 -10C7.95822 -10 7.95892 -10 7.95961 -10C7.9603 -10 7.961 -10 7.96169 -10C7.96239 -10 7.96308 -10 7.96377 -10C7.96447 -10 7.96516 -10 7.96586 -10C7.96655 -10 7.96725 -10 7.96794 -10C7.96863 -10 7.96933 -10 7.97002 -10C7.97072 -10 7.97141 -10 7.97211 -10C7.9728 -10 7.97349 -10 7.97419 -10C7.97488 -10 7.97557 -10 7.97627 -10C7.97696 -10 7.97766 -10 7.97835 -10C7.97905 -10 7.97974 -10 7.98043 -10C7.98113 -10 7.98182 -10 7.98252 -10C7.98321 -10 7.98391 -10 7.9846 -10C7.98529 -10 7.98599 -10 7.98668 -10C7.98738 -10 7.98807 -10 7.98877 -10C7.98946 -10 7.99015 -10 7.99085 -10C7.99154 -10 7.99224 -10 7.99293 -10C7.99362 -10 7.99432 -10 7.99501 -10C7.99571 -10 7.9964 -10 7.9971 -10C7.99779 -10 7.99848 -10 7.99918 -10C7.99987 -10 8.00057 -10 8.00126 -10C8.00196 -10 8.00265 -10 8.00334 -10C8.00404 -10 8.00473 -10 8.00542 -10C8.00612 -10 8.00681 -10 8.00751 -10C8.0082 -10 8.0089 -10 8.00959 -10C8.01028 -10 8.01098 -10 8.01167 -10C8.01237 -10 8.01306 -10 8.01376 -10C8.01445 -10 8.01514 -10 8.01584 -10C8.01653 -10 8.01723 -10 8.01792 -10C8.01861 -10 8.01931 -10 8.02 -10C8.0207 -10 8.02139 -10 8.02209 -10C8.02278 -10 8.02347 -10 8.02417 -10C8.02486 -10 8.02556 -10 8.02625 -10C8.02695 -10 8.02764 -10 8.02833 -10C8.02903 -10 8.02972 -10 8.03041 -10C8.03111 -10 8.0318 -10 8.0325 -10C8.03319 -10 8.03389 -10 8.03458 -10C8.03527 -10 8.03597 -10 8.03666 -10C8.03736 -10 8.03805 -10 8.03874 -10C8.03944 -10 8.04013 -10 8.04083 -10C8.04152 -10 8.04222 -10 8.04291 -10C8.0436 -10 8.0443 -10 8.04499 -10C8.04569 -10 8.04638 -10 8.04708 -10C8.04777 -10 8.04846 -10 8.04916 -10C8.04985 -10 8.05054 -10 8.05124 -10C8.05193 -10 8.05263 -10 8.05332 -10C8.05402 -10 8.05471 -10 8.0554 -10C8.0561 -10 8.05679 -10 8.05749 -10C8.05818 -10 8.05888 -10 8.05957 -10C8.06026 -10 8.06096 -10 8.06165 -10C8.06235 -10 8.06304 -10 8.06373 -10C8.06443 -10 8.06512 -10 8.06582 -10C8.06651 -10 8.06721 -10 8.0679 -10C8.06859 -10 8.06929 -10 8.06998 -10C8.07068 -10 8.07137 -10 8.07206 -10C8.07276 -10 8.07345 -10 8.07415 -10C8.07484 -10 8.07553 -10 8.07623 -10C8.07692 -10 8.07762 -10 8.07831 -10C8.07901 -10 8.0797 -10 8.08039 -10C8.08109 -10 8.08178 -10 8.08248 -10C8.08317 -10 8.08386 -10 8.08456 -10C8.08525 -10 8.08595 -10 8.08664 -10C8.08734 -10 8.08803 -10 8.08872 -10C8.08942 -10 8.09011 -10 8.09081 -10C8.0915 -10 8.09219 -10 8.09289 -10C8.09358 -10 8.09428 -10 8.09497 -10C8.09566 -10 8.09636 -10 8.09705 -10C8.09775 -10 8.09844 -10 8.09914 -10C8.09983 -10 8.10052 -10 8.10122 -10C8.10191 -10 8.10261 -10 8.1033 -10C8.10399 -10 8.10469 -10 8.10538 -10C8.10608 -10 8.10677 -10 8.10747 -10C8.10816 -10 8.10885 -10 8.10955 -10C8.11024 -10 8.11094 -10 8.11163 -10C8.11233 -10 8.11302 -10 8.11371 -10C8.11441 -10 8.1151 -10 8.1158 -10C8.11649 -10 8.11718 -10 8.11788 -10C8.11857 -10 8.11927 -10 8.11996 -10C8.12066 -10 8.12135 -10 8.12204 -10C8.12274 -10 8.12343 -10 8.12412 -10C8.12482 -10 8.12551 -10 8.12621 -10C8.1269 -10 8.1276 -10 8.12829 -10C8.12898 -10 8.12968 -10 8.13037 -10C8.13107 -10 8.13176 -10 8.13246 -10C8.13315 -10 8.13384 -10 8.13454 -10C8.13523 -10 8.13593 -10 8.13662 -10C8.13731 -10 8.13801 -10 8.1387 -10C8.1394 -10 8.14009 -10 8.14079 -10C8.14148 -10 8.14217 -10 8.14287 -10C8.14356 -10 8.14426 -10 8.14495 -10C8.14564 -10 8.14634 -10 8.14703 -10C8.14773 -10 8.14842 -10 8.14911 -10C8.14981 -10 8.1505 -10 8.1512 -10C8.15189 -10 8.15259 -10 8.15328 -10C8.15397 -10 8.15467 -10 8.15536 -10C8.15606 -10 8.15675 -10 8.15744 -10C8.15814 -10 8.15883 -10 8.15953 -10C8.16022 -10 8.16092 -10 8.16161 -10C8.1623 -10 8.163 -10 8.16369 -10C8.16439 -10 8.16508 -10 8.16578 -10C8.16647 -10 8.16716 -10 8.16786 -10C8.16855 -10 8.16924 -10 8.16994 -10C8.17063 -10 8.17133 -10 8.17202 -10C8.17272 -10 8.17341 -10 8.1741 -10C8.1748 -10 8.17549 -10 8.17619 -10C8.17688 -10 8.17758 -10 8.17827 -10C8.17896 -10 8.17966 -10 8.18035 -10C8.18105 -10 8.18174 -10 8.18243 -10C8.18313 -10 8.18382 -10 8.18452 -10C8.18521 -10 8.18591 -10 8.1866 -10C8.18729 -10 8.18799 -10 8.18868 -10C8.18938 -10 8.19007 -10 8.19077 -10C8.19146 -10 8.19215 -10 8.19285 -10C8.19354 -10 8.19423 -10 8.19493 -10C8.19562 -10 8.19632 -10 8.19701 -10C8.19771 -10 8.1984 -10 8.19909 -10C8.19979 -10 8.20048 -10 8.20118 -10C8.20187 -10 8.20257 -10 8.20326 -10C8.20395 -10 8.20465 -10 8.20534 -10C8.20604 -10 8.20673 -10 8.20742 -10C8.20812 -10 8.20881 -10 8.20951 -10C8.2102 -10 8.2109 -10 8.21159 -10C8.21228 -10 8.21298 -10 8.21367 -10C8.21437 -10 8.21506 -10 8.21576 -10C8.21645 -10 8.21714 -10 8.21784 -10C8.21853 -10 8.21923 -10 8.21992 -10C8.22061 -10 8.22131 -10 8.222 -10C8.2227 -10 8.22339 -10 8.22408 -10C8.22478 -10 8.22547 -10 8.22617 -10C8.22686 -10 8.22756 -10 8.22825 -10C8.22894 -10 8.22964 -10 8.23033 -10C8.23103 -10 8.23172 -10 8.23242 -10C8.23311 -10 8.2338 -10 8.2345 -10C8.23519 -10 8.23589 -10 8.23658 -10C8.23728 -10 8.23797 -10 8.23866 -10C8.23936 -10 8.24005 -10 8.24075 -10C8.24144 -10 8.24213 -10 8.24283 -10C8.24352 -10 8.24422 -10 8.24491 -10C8.24561 -10 8.2463 -10 8.24699 -10C8.24769 -10 8.24838 -10 8.24908 -10C8.24977 -10 8.25047 -10 8.25116 -10C8.25185 -10 8.25255 -10 8.25324 -10C8.25394 -10 8.25463 -10 8.25533 -10C8.25602 -10 8.25671 -10 8.25741 -10C8.2581 -10 8.2588 -10 8.25949 -10C8.26018 -10 8.26088 -10 8.26157 -10C8.26227 -10 8.26296 -10 8.26365 -10C8.26435 -10 8.26504 -10 8.26574 -10C8.26643 -10 8.26713 -10 8.26782 -10C8.26851 -10 8.26921 -10 8.2699 -10C8.2706 -10 8.27129 -10 8.27199 -10C8.27268 -10 8.27337 -10 8.27407 -10C8.27476 -10 8.27546 -10 8.27615 -10C8.27685 -10 8.27754 -10 8.27823 -10C8.27893 -10 8.27962 -10 8.28032 -10C8.28101 -10 8.28171 -10 8.2824 -10C8.28309 -10 8.28379 -10 8.28448 -10C8.28518 -10 8.28587 -10 8.28657 -10C8.28726 -10 8.28795 -10 8.28865 -10C8.28934 -10 8.29004 -10 8.29073 -10C8.29143 -10 8.29212 -10 8.29281 -10C8.29351 -10 8.2942 -10 8.2949 -10C8.29559 -10 8.29629 -10 8.29698 -10C8.29767 -10 8.29837 -10 8.29906 -10C8.29976 -10 8.30045 -10 8.30115 -10C8.30184 -10 8.30253 -10 8.30323 -10C8.30392 -10 8.30462 -10 8.30531 -10C8.30601 -10 8.3067 -10 8.30739 -10C8.30809 -10 8.30878 -10 8.30948 -10C8.31017 -10 8.31087 -10 8.31156 -10C8.31225 -10 8.31295 -10 8.31364 -10C8.31434 -10 8.31503 -10 8.31573 -10C8.31642 -10 8.31711 -10 8.31781 -10C8.3185 -10 8.3192 -10 8.31989 -10C8.32059 -10 8.32128 -10 8.32197 -10C8.32267 -10 8.32336 -10 8.32406 -10C8.32475 -10 8.32545 -10 8.32614 -10C8.32683 -10 8.32753 -10 8.32822 -10C8.32892 -10 8.32961 -10 8.33031 -10C8.331 -10 8.33169 -10 8.33239 -10C8.33308 -10 8.33378 -10 8.33447 -10C8.33517 -10 8.33586 -10 8.33655 -10C8.33725 -10 8.33794 -10 8.33864 -10C8.33933 -10 8.34002 -10 8.34072 -10C8.34141 -10 8.34211 -10 8.3428 -10C8.3435 -10 8.34419 -10 8.34488 -10C8.34558 -10 8.34627 -10 8.34697 -10C8.34766 -10 8.34836 -10 8.34905 -10C8.34974 -10 8.35044 -10 8.35113 -10C8.35183 -10 8.35252 -10 8.35322 -10C8.35391 -10 8.35461 -10 8.3553 -10C8.356 -10 8.35669 -10 8.35738 -10C8.35808 -10 8.35877 -10 8.35947 -10C8.36016 -10 8.36086 -10 8.36155 -10C8.36224 -10 8.36294 -10 8.36363 -10C8.36433 -10 8.36502 -10 8.36572 -10C8.36641 -10 8.3671 -10 8.3678 -10C8.36849 -10 8.36919 -10 8.36988 -10C8.37057 -10 8.37127 -10 8.37197 -10C8.37266 -10 8.37335 -10 8.37405 -10C8.37474 -10 8.37544 -10 8.37613 -10C8.37683 -10 8.37752 -10 8.37821 -10C8.37891 -10 8.3796 -10 8.3803 -10C8.38099 -10 8.38169 -10 8.38238 -10C8.38307 -10 8.38377 -10 8.38446 -10C8.38516 -10 8.38585 -10 8.38655 -10C8.38724 -10 8.38794 -10 8.38863 -10C8.38932 -10 8.39002 -10 8.39071 -10C8.39141 -10 8.3921 -10 8.3928 -10C8.39349 -10 8.39418 -10 8.39488 -10C8.39557 -10 8.39627 -10 8.39696 -10C8.39766 -10 8.39835 -10 8.39905 -10C8.39974 -10 8.40043 -10 8.40113 -10C8.40182 -10 8.40252 -10 8.40321 -10C8.40391 -10 8.4046 -10 8.40529 -10C8.40599 -10 8.40668 -10 8.40738 -10C8.40807 -10 8.40877 -10 8.40946 -10C8.41016 -10 8.41085 -10 8.41154 -10C8.41224 -10 8.41293 -10 8.41363 -10C8.41432 -10 8.41502 -10 8.41571 -10C8.41641 -10 8.4171 -10 8.4178 -10C8.41849 -10 8.41918 -10 8.41988 -10C8.42057 -10 8.42127 -10 8.42196 -10C8.42266 -10 8.42335 -10 8.42405 -10C8.42474 -10 8.42543 -10 8.42613 -10C8.42682 -10 8.42752 -10 8.42821 -10C8.42891 -10 8.4296 -10 8.4303 -10C8.43099 -10 8.43168 -10 8.43238 -10C8.43307 -10 8.43377 -10 8.43446 -10C8.43516 -10 8.43585 -10 8.43655 -10C8.43724 -10 8.43793 -10 8.43863 -10C8.43932 -10 8.44002 -10 8.44071 -10C8.44141 -10 8.4421 -10 8.4428 -10C8.44349 -10 8.44419 -10 8.44488 -10C8.44557 -10 8.44627 -10 8.44696 -10C8.44766 -10 8.44835 -10 8.44905 -10C8.44974 -10 8.45044 -10 8.45113 -10C8.45182 -10 8.45252 -10 8.45321 -10C8.45391 -10 8.4546 -10 8.4553 -10C8.45599 -10 8.45669 -10 8.45738 -10C8.45807 -10 8.45877 -10 8.45946 -10C8.46016 -10 8.46085 -10 8.46155 -10C8.46224 -10 8.46294 -10 8.46363 -10C8.46432 -10 8.46502 -10 8.46572 -10C8.46641 -10 8.4671 -10 8.4678 -10C8.46849 -10 8.46919 -10 8.46988 -10C8.47058 -10 8.47127 -10 8.47197 -10C8.47266 -10 8.47335 -10 8.47405 -10C8.47474 -10 8.47544 -10 8.47613 -10C8.47683 -10 8.47752 -10 8.47822 -10C8.47891 -10 8.4796 -10 8.4803 -10C8.481 -10 8.48169 -10 8.48238 -10C8.48308 -10 8.48377 -10 8.48447 -10C8.48516 -10 8.48586 -10 8.48655 -10C8.48725 -10 8.48794 -10 8.48863 -10C8.48933 -10 8.49002 -10 8.49072 -10C8.49141 -10 8.49211 -10 8.4928 -10C8.4935 -10 8.49419 -10 8.49489 -10C8.49558 -10 8.49627 -10 8.49697 -10C8.49767 -10 8.49836 -10 8.49905 -10C8.49975 -10 8.50044 -10 8.50114 -10C8.50183 -10 8.50253 -10 8.50322 -10C8.50392 -10 8.50461 -10 8.50531 -10C8.506 -10 8.50669 -10 8.50739 -10C8.50808 -10 8.50878 -10 8.50947 -10C8.51017 -10 8.51086 -10 8.51156 -10C8.51225 -10 8.51295 -10 8.51364 -10C8.51434 -10 8.51503 -10 8.51572 -10C8.51642 -10 8.51711 -10 8.51781 -10C8.5185 -10 8.5192 -10 8.51989 -10C8.52059 -10 8.52128 -10 8.52198 -10C8.52267 -10 8.52337 -10 8.52406 -10C8.52476 -10 8.52545 -10 8.52614 -10C8.52684 -10 8.52753 -10 8.52823 -10C8.52892 -10 8.52962 -10 8.53031 -10C8.53101 -10 8.5317 -10 8.5324 -10C8.53309 -10 8.53379 -10 8.53448 -10C8.53518 -10 8.53587 -10 8.53657 -10C8.53726 -10 8.53795 -10 8.53865 -10C8.53934 -10 8.54004 -10 8.54073 -10C8.54143 -10 8.54212 -10 8.54282 -10C8.54351 -10 8.54421 -10 8.5449 -10C8.5456 -10 8.54629 -10 8.54699 -10C8.54768 -10 8.54838 -10 8.54907 -10C8.54976 -10 8.55046 -10 8.55116 -10C8.55185 -10 8.55254 -10 8.55324 -10C8.55393 -10 8.55463 -10 8.55532 -10C8.55602 -10 8.55671 -10 8.55741 -10C8.5581 -10 8.5588 -10 8.55949 -10C8.56019 -10 8.56088 -10 8.56157 -10C8.56227 -10 8.56297 -10 8.56366 -10C8.56435 -10 8.56505 -10 8.56574 -10C8.56644 -10 8.56713 -10 8.56783 -10C8.56852 -10 8.56922 -10 8.56991 -10C8.57061 -10 8.5713 -10 8.572 -10C8.57269 -10 8.57339 -10 8.57408 -10C8.57478 -10 8.57547 -10 8.57617 -10C8.57686 -10 8.57755 -10 8.57825 -10C8.57895 -10 8.57964 -10 8.58033 -10C8.58103 -10 8.58172 -10 8.58242 -10C8.58311 -10 8.58381 -10 8.5845 -10C8.5852 -10 8.58589 -10 8.58659 -10C8.58728 -10 8.58798 -10 8.58867 -10C8.58937 -10 8.59006 -10 8.59076 -10C8.59145 -10 8.59215 -10 8.59284 -10C8.59354 -10 8.59423 -10 8.59493 -10C8.59562 -10 8.59632 -10 8.59701 -10C8.59771 -10 8.5984 -10 8.59909 -10C8.59979 -10 8.60048 -10 8.60118 -10C8.60188 -10 8.60257 -10 8.60326 -10C8.60396 -10 8.60465 -10 8.60535 -10C8.60604 -10 8.60674 -10 8.60743 -10C8.60813 -10 8.60882 -10 8.60952 -10C8.61021 -10 8.61091 -10 8.6116 -10C8.6123 -10 8.61299 -10 8.61369 -10C8.61438 -10 8.61508 -10 8.61577 -10C8.61647 -10 8.61716 -10 8.61786 -10C8.61855 -10 8.61925 -10 8.61994 -10C8.62064 -10 8.62133 -10 8.62203 -10C8.62272 -10 8.62342 -10 8.62411 -10C8.62481 -10 8.6255 -10 8.6262 -10C8.62689 -10 8.62759 -10 8.62828 -10V10ZM9.35488 9.8379C9.11627 9.8814 8.89908 9.91683 8.7482 9.94116C8.56699 9.97038 8.4986 9.98099 8.40597 9.99654C8.24001 10.0244 8.33262 10.0142 8.52202 9.96375L3.37111 -9.36157C4.08849 -9.55278 4.71933 -9.66441 5.09426 -9.72736C5.66649 -9.82344 5.55106 -9.79828 5.76844 -9.8379L9.35488 9.8379ZM8.51058 9.96679C8.68474 9.92059 8.91783 9.82596 9.15462 9.66766C9.38758 9.51192 9.52568 9.36053 9.58121 9.28981L-6.1489 -3.06186C-3.77134 -6.08973 -0.536015 -8.32514 3.38255 -9.36462L8.51058 9.96679ZM9.58224 9.28851C9.66838 9.17876 9.81787 8.93825 9.91576 8.59415C10.0119 8.25605 10.0024 8.0151 9.9966 7.95613L-9.90761 9.91121C-10.3616 5.2896 -9.14174 0.75089 -6.14992 -3.06055L9.58224 9.28851ZM9.99685 7.95867C9.97876 7.77403 9.91657 7.5105 9.78192 7.23515C9.65088 6.96722 9.5165 6.82103 9.48389 6.78873L-4.58896 20.9998C-7.51791 18.0994 -9.47547 14.3224 -9.90786 9.90866L9.99685 7.95867ZM9.48536 6.79019C9.39024 6.69595 9.22534 6.56073 8.99129 6.43629C8.75557 6.31095 8.52795 6.23823 8.34716 6.20358L4.58225 25.846C1.03292 25.1657 -2.0922 23.4733 -4.59044 20.9984L9.48536 6.79019ZM8.34674 6.2035C8.28489 6.19164 8.06767 6.16462 7.76107 6.21834C7.4517 6.27255 7.23777 6.37638 7.15315 6.42741L17.482 23.5538C13.5105 25.949 9.03608 26.6995 4.58267 25.8461L8.34674 6.2035ZM7.15686 6.42517C7.072 6.4763 7.0081 6.51763 6.98642 6.53174C6.87836 6.6021 7.0996 6.45708 7.21667 6.38365C7.32431 6.31613 7.9374 5.9241 8.77703 5.57761C9.72149 5.18786 11.4054 4.65964 13.5418 4.85347C15.707 5.04992 17.3056 5.89285 18.2344 6.51298C19.0463 7.05502 19.6004 7.60268 19.7128 7.71223C19.8471 7.84308 20.0216 8.0233 19.9548 7.95499C19.9486 7.94862 19.9024 7.90146 19.8387 7.84024L5.98195 22.2621C5.83564 22.1215 5.72136 22.0055 5.65761 21.9403C5.53327 21.8132 5.66092 21.9447 5.75503 22.0364C5.82726 22.1068 6.34788 22.6249 7.12916 23.1465C8.0274 23.7462 9.5982 24.5778 11.7347 24.7717C13.8424 24.9629 15.4965 24.4407 16.4063 24.0653C17.2113 23.7331 17.7849 23.3636 17.8442 23.3263C18.4606 22.9397 17.4972 23.5447 17.4783 23.5561L7.15686 6.42517ZM19.8384 7.83991C19.9065 7.90539 19.9666 7.96455 20.0167 8.01456C20.0418 8.03969 20.065 8.06302 20.0858 8.08409C20.1066 8.10515 20.1255 8.12442 20.142 8.14133C20.1585 8.15819 20.1733 8.17338 20.1856 8.18604C20.1977 8.19854 20.2087 8.20981 20.2166 8.21806C20.2206 8.22212 20.2246 8.2263 20.2275 8.22929C20.2307 8.23259 20.2331 8.23507 20.2353 8.23731C20.2396 8.24183 20.2412 8.24349 20.2415 8.24374C20.2416 8.24388 20.2393 8.24151 20.2353 8.2374C20.2312 8.23325 20.2248 8.22673 20.2166 8.21839C20.2003 8.20198 20.1743 8.17585 20.1407 8.14311C20.1071 8.11022 20.0637 8.06846 20.012 8.02024C19.9602 7.97194 19.8984 7.91568 19.8276 7.85359L6.64237 22.8918C6.26789 22.5635 5.98284 22.2689 5.90015 22.1838C5.87708 22.1601 5.85201 22.1342 5.84551 22.1274C5.8341 22.1157 5.83536 22.117 5.8405 22.1222C5.84998 22.1319 5.904 22.1872 5.9823 22.2624L19.8384 7.83991ZM19.8298 7.8555C20.1097 8.10108 21.3556 9.16932 22.3158 10.9252C23.47 13.0357 23.8447 15.3945 23.511 17.6586L3.7247 14.7429C3.44846 16.6175 3.75716 18.6723 4.76823 20.5212C5.58539 22.0155 6.61113 22.8644 6.64019 22.8899L19.8298 7.8555ZM23.5104 17.6628C23.9279 14.8384 22.9873 12.6159 22.2372 11.3977C21.6243 10.4025 20.9321 9.76363 21.1086 9.94035L6.9552 24.0712C6.90618 24.0221 5.98279 23.1443 5.2072 21.8849C4.29432 20.4024 3.2595 17.8903 3.72533 14.7386L23.5104 17.6628ZM21.1012 9.93295C22.1666 10.9978 23.2319 12.0628 24.2968 13.1274C25.3618 14.1921 26.4265 15.2564 27.4911 16.3205L13.3525 30.4661C12.2871 29.4013 11.2218 28.3363 10.1568 27.2717C9.09181 26.207 8.02717 25.1427 6.96259 24.0786L21.1012 9.93295ZM27.4907 16.3201C27.9076 16.7368 28.7048 17.5136 29.3653 18.2036L14.9183 32.0341C14.4556 31.5508 14.0853 31.1985 13.3529 30.4665L27.4907 16.3201ZM29.3683 18.2067C29.1322 17.9598 27.7639 16.5743 25.3356 16.1496L21.8896 35.8504C18.2545 35.2146 15.9778 33.1418 14.9153 32.0309L29.3683 18.2067ZM23.6126 16H24.1209V36H23.6126V16ZM20.1712 16.8131C20.4537 16.6916 20.6973 16.5987 20.8061 16.5574C20.8359 16.546 20.8643 16.5353 20.8831 16.5282C20.9046 16.5201 20.9165 16.5155 20.927 16.5115C20.9482 16.5035 20.9387 16.507 20.9156 16.5162C20.8739 16.5327 20.7118 16.5974 20.4926 16.7031C20.2688 16.811 19.9417 16.9823 19.563 17.2313L30.5513 33.9423C29.553 34.5987 28.648 34.965 28.2871 35.1081C28.1841 35.1489 28.0943 35.1833 28.0349 35.2059C28.0052 35.2172 27.9768 35.2279 27.9581 35.235C27.9366 35.2431 27.9247 35.2476 27.9142 35.2516C27.8619 35.2715 27.9451 35.2409 28.0707 35.1869L20.1712 16.8131ZM19.5758 17.2229C17.4887 18.5907 16.4973 20.616 16.1875 22.1935L35.8125 26.0478C35.2617 28.8525 33.6668 31.9006 30.5385 33.9507L19.5758 17.2229ZM16 24.1206V23.6126H36V24.1206H16ZM34.9408 28.0917L34.94 28.0933L17.0584 19.1351L17.0592 19.1335L34.9408 28.0917ZM8.01294 -9.3339C17.6206 -9.37845 25.4273 -1.5794 25.4869 7.977L5.48731 8.1018C5.49611 9.51243 6.61448 10.6728 8.10568 10.6659L8.01294 -9.3339ZM25.4869 7.97702C25.5469 17.5982 17.7615 25.424 8.18184 25.4911L8.04171 5.49159C6.6359 5.50144 5.47812 6.62963 5.48731 8.10177L25.4869 7.97702ZM8.1801 25.4911C-1.43637 25.5568 -9.27491 17.7714 -9.34609 8.19389L10.6534 8.04527C10.6429 6.63156 9.51722 5.48151 8.04346 5.49158L8.1801 25.4911ZM-9.34608 8.19403C-9.418 -1.46609 -1.56623 -9.2899 8.01255 -9.3339L8.10442 10.6659C9.48966 10.6595 10.6646 9.55622 10.6534 8.04513L-9.34608 8.19403ZM8.05849 -9.334H8.05931V10.666H8.05849V-9.334ZM29.8869 32.7118C29.7767 32.7668 29.6607 32.8226 29.5408 32.8779L21.1737 14.7122C21.0964 14.7478 21.0247 14.7823 20.9572 14.816L29.8869 32.7118ZM35.3536 23.5251C35.4319 26.4267 34.3695 28.7586 33.3344 30.2707C32.2636 31.8349 30.6479 33.3772 28.4589 34.3556L20.2978 16.0964C18.6671 16.8253 17.5482 17.9253 16.831 18.9731C16.1494 19.9687 15.2973 21.7099 15.3609 24.0649L35.3536 23.5251ZM28.4607 34.3548C23.5591 36.5467 18.6781 34.8171 15.8093 31.9541L29.937 17.7976C29.0295 16.8919 27.6642 15.9737 25.8437 15.5562C23.9721 15.1269 22.0187 15.3269 20.296 16.0972L28.4607 34.3548ZM15.8072 31.952C13.0019 29.1509 10.2 26.348 7.40062 23.547L21.547 9.4091C24.3455 12.2093 27.1415 15.0061 29.939 17.7996L15.8072 31.952ZM7.40993 23.5563C6.65709 22.805 4.34272 20.32 4.26504 16.2888C4.18573 12.1725 6.48389 9.57032 7.30277 8.73075L21.6202 22.6954C22.1694 22.1324 24.3359 19.7752 24.2613 15.9035C24.1884 12.117 22.015 9.87619 21.5376 9.39979L7.40993 23.5563ZM7.30892 8.72445C7.82577 8.19548 8.33937 7.68698 8.79296 7.23836L22.8568 21.4583C22.3955 21.9146 21.9958 22.311 21.6141 22.7017L7.30892 8.72445ZM8.77811 7.25308C10.2101 5.83086 12.5682 4.34023 15.7267 4.22465C18.7678 4.11336 21.0661 5.33436 22.3988 6.34047L10.348 22.3022C11.492 23.166 13.6014 24.3158 16.4581 24.2113C19.4321 24.1024 21.6102 22.6965 22.8717 21.4436L8.77811 7.25308ZM22.4 6.34137C23.1167 6.88266 23.6403 7.43196 23.6591 7.45103L9.42375 21.4993C9.39975 21.475 9.49665 21.5745 9.62907 21.6984C9.77125 21.8313 10.0167 22.0521 10.3468 22.3013L22.4 6.34137ZM23.6116 7.40315C26.3875 10.1783 29.164 12.9541 31.9406 15.7308L17.7983 29.8727C15.0229 27.0973 12.2474 24.3225 9.47132 21.5472L23.6116 7.40315ZM31.9333 15.7235C31.8115 15.602 31.7023 15.5012 31.7483 15.5442C31.7495 15.5454 31.8949 15.6799 32.0573 15.843C32.3507 16.1376 33.1956 17.003 33.9036 18.3468L16.2091 27.6691C16.8753 28.9335 17.6595 29.7285 17.8863 29.9562C18.0154 30.0859 18.126 30.1878 18.0926 30.1566C18.0921 30.1562 18.0531 30.1198 18.0113 30.0801C17.9657 30.0369 17.8927 29.9669 17.8056 29.88L31.9333 15.7235ZM33.9073 18.3539C34.0596 18.6434 34.1842 18.901 34.266 19.0721C34.4039 19.3607 34.3545 19.2606 34.4336 19.4248L16.4137 28.1014C16.3678 28.006 16.3255 27.9168 16.2949 27.8522C16.2603 27.7792 16.2408 27.7378 16.2208 27.6959C16.1818 27.6144 16.1835 27.6204 16.2054 27.662L33.9073 18.3539ZM29.8957 32.7074L29.894 32.7083L20.95 14.8196L20.9516 14.8188L29.8957 32.7074ZM21.4199 6.18802C21.6239 6.39005 21.9057 6.66874 22.1534 6.91432L8.07312 21.118C7.82895 20.876 7.56636 20.6163 7.34734 20.3994L21.4199 6.18802ZM22.2009 21.0707C21.8433 21.4299 21.4381 21.8361 21.0655 22.2103L6.89336 8.09821C7.30123 7.68861 7.65354 7.33555 8.02567 6.96167L22.2009 21.0707ZM7.19927 22.5047C6.93517 22.2611 6.65477 22.002 6.44258 21.8058L20.0192 7.11996C20.2301 7.31489 20.5039 7.56793 20.7596 7.80377L7.19927 22.5047ZM6.10891 7.44312C6.50207 7.04423 6.89402 6.6465 7.26533 6.27018L21.5019 20.3173C21.1353 20.6888 20.7484 21.0814 20.3529 21.4827L6.10891 7.44312Z" fill="#393939" mask="url(#path-1-inside-1_973_6270)"/>
</svg>
