<svg width="37" height="37" viewBox="0 0 37 37" fill="none" xmlns="http://www.w3.org/2000/svg">
<rect width="37" height="37" rx="10" fill="#FF5567"/>
<path d="M29.9996 27.8889C29.9995 27.8891 29.9992 27.889 29.9992 27.8888C29.9054 27.3391 29.5741 26.9412 29.1906 26.5606C26.8038 24.1954 24.425 21.8228 22.0469 19.4489C21.7561 19.1586 21.4435 18.9625 21.0098 19.0559C20.9649 19.0653 20.8952 19.032 20.8582 18.9958C20.3836 18.5387 20.2887 17.8296 20.5772 17.2372C20.6274 17.1341 20.6757 17.0306 20.7212 16.9258C21.8903 14.2269 21.1991 10.9822 19.0517 8.96504C17.8398 7.82582 16.4146 7.18094 14.7611 7.03185C14.6734 7.02455 14.5882 7 14.5002 7C14.3619 7 14.2236 7 14.0854 7C13.8218 7 13.5588 7.02409 13.2985 7.06592C12.9498 7.12196 12.6003 7.17576 12.2604 7.26635C10.7352 7.67094 9.48997 8.51702 8.51814 9.75467C7.33018 11.2681 6.85225 12.9979 7.03936 14.9029C7.20762 16.6204 7.94157 18.0795 9.16506 19.2911C10.1594 20.2761 11.3481 20.9131 12.7188 21.1758C14.5544 21.5275 16.287 21.2315 17.8963 20.2609C18.2459 20.0503 18.1284 20.0337 18.4207 20.3145C18.5179 20.4079 18.6063 20.5099 18.7079 20.5989C18.9298 20.7936 19.0973 20.9869 19.0466 21.3314C19.0038 21.6209 19.2134 21.8438 19.4128 22.0436C21.297 23.9268 23.1812 25.8108 25.0654 27.6941C25.5738 28.2022 26.0902 28.7016 26.587 29.2205C26.9221 29.5709 27.2877 29.8555 27.7576 29.9724C27.8437 29.9938 27.9327 30 28.0214 30C28.2301 30 28.4369 29.9581 28.632 29.8842C28.8183 29.8136 29.0034 29.7414 29.166 29.6345C29.6237 29.3345 29.8901 28.8859 29.998 28.3474C29.9993 28.3408 30 28.3341 30 28.3274V27.889C30 27.8887 29.9997 27.8887 29.9996 27.8889ZM14.1294 7.58915C17.7194 7.5725 20.6777 10.5088 20.7001 14.1118C20.7226 17.7162 17.7912 20.6786 14.1758 20.7039C10.5742 20.7285 7.60505 17.7936 7.57822 14.1827C7.55139 10.5783 10.5053 7.6058 14.1294 7.58915ZM19.4051 19.0831C19.5811 18.9046 19.8571 18.8916 20.0352 19.0679C20.2134 19.2443 20.2259 19.5431 20.0489 19.7207C19.9253 19.8448 19.8001 19.9704 19.6733 20.0976C19.5019 20.2696 19.2096 20.2611 19.0312 20.0963C18.8438 19.9231 18.8526 19.6436 19.0317 19.4619C19.1576 19.3342 19.2822 19.2077 19.4051 19.0831Z" fill="white"/>
</svg>
