<svg width="100" height="100" viewBox="0 0 100 100" fill="none" xmlns="http://www.w3.org/2000/svg">
<g clip-path="url(#clip0_2793_1002)">
<path d="M74.7474 30.9442L52.883 10.2942V71.7774C52.883 73.2812 51.5923 74.4996 50.0007 74.4996C48.4085 74.4996 47.1183 73.2812 47.1183 71.7774V10.2942L25.253 30.9445C24.1274 32.0076 22.3024 32.0076 21.1768 30.9445C21.0361 30.8117 20.9129 30.6684 20.8074 30.5175C20.0687 29.4608 20.1918 28.0249 21.1768 27.0948L47.9623 1.79734C48.503 1.28681 49.2357 1 50.0007 1C50.7651 1 51.4978 1.28681 52.0385 1.79734L78.8236 27.0944C79.9495 28.1575 79.9495 29.8811 78.8236 30.9442C77.6984 32.0073 75.8732 32.0073 74.7474 30.9442Z" fill="white"/>
<path d="M3.88235 63.6112C5.47422 63.6112 6.7647 64.8297 6.7647 66.3334V90.8334C6.7647 92.3366 8.05519 93.5556 9.64705 93.5556H90.3529C91.9446 93.5556 93.2353 92.3366 93.2353 90.8334V66.3334C93.2353 64.8297 94.5254 63.6112 96.1176 63.6112C97.7093 63.6112 99 64.8297 99 66.3334V90.8334C99 95.3435 95.1284 99 90.3529 99H9.64705C4.8714 99 1 95.3435 1 90.8334V66.3334C1 64.8297 2.29049 63.6112 3.88235 63.6112Z" fill="white"/>
</g>
<defs>
<clipPath id="clip0_2793_1002">
<rect width="98" height="98" fill="white" transform="translate(1 1)"/>
</clipPath>
</defs>
</svg>
