<svg width="58" height="58" viewBox="0 0 58 58" fill="none" xmlns="http://www.w3.org/2000/svg">
<rect width="58" height="58" fill="#2E2E2C"/>
<path fill-rule="evenodd" clip-rule="evenodd" d="M29.0006 32.6256C33.6721 32.6256 37.459 28.8387 37.459 24.1673C37.459 19.4959 33.6721 15.709 29.0006 15.709C24.3292 15.709 20.5423 19.4959 20.5423 24.1673C20.5423 28.8387 24.3292 32.6256 29.0006 32.6256ZM29.0006 30.209C32.3373 30.209 35.0423 27.504 35.0423 24.1673C35.0423 20.8306 32.3373 18.1257 29.0006 18.1257C25.664 18.1257 22.959 20.8306 22.959 24.1673C22.959 27.504 25.664 30.209 29.0006 30.209Z" fill="white"/>
<path fill-rule="evenodd" clip-rule="evenodd" d="M41.5944 49.6305C48.5353 45.3842 53.1673 37.7335 53.1673 29.0006C53.1673 15.6538 42.3474 4.83398 29.0006 4.83398C15.6538 4.83398 4.83398 15.6538 4.83398 29.0006C4.83398 34.9976 7.01839 40.4846 10.635 44.709C11.5459 45.773 12.5477 46.7569 13.6284 47.6489C17.8058 51.0962 23.1614 53.1673 29.0006 53.1673C33.6148 53.1673 37.9268 51.8742 41.5944 49.6305ZM45.6945 42.9434C48.8509 39.1683 50.7506 34.3062 50.7506 29.0006C50.7506 16.9885 41.0129 7.25065 29.0006 7.25065C16.9885 7.25065 7.25065 16.9885 7.25065 29.0006C7.25065 34.3062 9.15034 39.168 12.3067 42.9434C16.6453 38.7971 22.5256 36.2506 29.0006 36.2506C35.4756 36.2506 41.3559 38.7971 45.6945 42.9434ZM44.0444 44.709C40.1357 40.9641 34.8374 38.6673 29.0006 38.6673C23.1639 38.6673 17.8656 40.9641 13.9569 44.709C17.7379 48.3308 22.8242 50.6013 28.4393 50.7436C28.6258 50.7482 28.8129 50.7506 29.0006 50.7506C29.4845 50.7506 29.9647 50.7349 30.4405 50.7038C35.7067 50.3596 40.4614 48.1411 44.0444 44.709Z" fill="white"/>
</svg>
