<svg width="59" height="59" viewBox="0 0 59 59" fill="none" xmlns="http://www.w3.org/2000/svg">
<g clip-path="url(#clip0_2273_1315)">
<rect width="58" height="58" transform="translate(0.927734 0.904297)" fill="#2E2E2C"/>
<path fill-rule="evenodd" clip-rule="evenodd" d="M17.8444 25.8692C22.8495 25.8692 26.9069 21.9036 26.9069 17.0118C26.9069 12.1199 22.8495 8.1543 17.8444 8.1543C12.8393 8.1543 8.7819 12.1199 8.7819 17.0118C8.7819 21.9036 12.8393 25.8692 17.8444 25.8692ZM17.8444 23.5072C21.5148 23.5072 24.4902 20.5991 24.4902 17.0118C24.4902 13.4244 21.5148 10.5163 17.8444 10.5163C14.174 10.5163 11.1986 13.4244 11.1986 17.0118C11.1986 20.5991 14.174 23.5072 17.8444 23.5072Z" fill="white"/>
<path fill-rule="evenodd" clip-rule="evenodd" d="M51.0736 17.0118C51.0736 21.9036 47.0162 25.8692 42.0111 25.8692C37.0059 25.8692 32.9486 21.9036 32.9486 17.0118C32.9486 12.1199 37.0059 8.1543 42.0111 8.1543C47.0162 8.1543 51.0736 12.1199 51.0736 17.0118ZM48.6569 17.0118C48.6569 20.5991 45.6815 23.5072 42.0111 23.5072C38.3406 23.5072 35.3652 20.5991 35.3652 17.0118C35.3652 13.4244 38.3406 10.5163 42.0111 10.5163C45.6815 10.5163 48.6569 13.4244 48.6569 17.0118Z" fill="white"/>
<path d="M42.0111 31.7742C39.2047 31.7742 36.5427 32.3768 34.1531 33.4578C33.5216 32.8659 32.8563 32.308 32.1603 31.787C32.5281 31.5975 32.9022 31.4183 33.2824 31.2496C35.9434 30.0693 38.8987 29.4122 42.0111 29.4122C42.4072 29.4122 42.8007 29.4228 43.1914 29.4439C49.0523 29.759 54.2772 32.407 57.9106 36.4535C57.9969 36.5497 58.0776 36.6496 58.1525 36.7528C58.6779 37.4751 58.9278 38.3585 58.9278 39.2542V43.5842C58.9278 46.1932 56.7639 48.3081 54.0945 48.3081H35.3317C35.4098 48.2229 35.4857 48.136 35.5594 48.0471C36.076 47.4252 36.4869 46.7162 36.7653 45.9462H54.0945C54.0998 45.9462 54.1049 45.9462 54.1102 45.9462C55.4377 45.9379 56.5111 44.8835 56.5111 43.5842V39.2542C56.5111 38.7059 56.3366 38.2815 56.0943 38.0115C52.658 34.1844 47.6241 31.7742 42.0111 31.7742Z" fill="white"/>
<path fill-rule="evenodd" clip-rule="evenodd" d="M34.7611 39.2542C34.7611 38.2305 34.4346 37.2228 33.7439 36.4535C29.8683 32.137 24.1819 29.4122 17.8444 29.4122C11.5069 29.4122 5.82054 32.137 1.94493 36.4535C1.25422 37.2228 0.927734 38.2305 0.927734 39.2542V43.5842C0.927734 46.1932 3.09169 48.3081 5.76107 48.3081H29.9277C32.5972 48.3081 34.7611 46.1932 34.7611 43.5842V39.2542ZM29.9277 45.9462C31.2625 45.9462 32.3444 44.8887 32.3444 43.5842V39.2542C32.3444 38.7059 32.1699 38.2815 31.9275 38.0115C28.4913 34.1844 23.4573 31.7742 17.8444 31.7742C12.2316 31.7742 7.19761 34.1844 3.76135 38.0115C3.51886 38.2815 3.3444 38.7059 3.3444 39.2542V43.5842C3.3444 44.8887 4.42639 45.9462 5.76107 45.9462H29.9277Z" fill="white"/>
</g>
<defs>
<clipPath id="clip0_2273_1315">
<rect width="58" height="58" fill="white" transform="translate(0.927734 0.904297)"/>
</clipPath>
</defs>
</svg>
