<svg width="100" height="100" viewBox="0 0 100 100" fill="none" xmlns="http://www.w3.org/2000/svg">
<g clip-path="url(#clip0_2673_976)">
<circle cx="50" cy="50" r="42.5" fill="white" stroke="#7FE698" stroke-width="15"/>
<path d="M64.0736 42.0919C63.854 42.9664 64.1376 43.7012 64.6722 44.5157C65.9985 46.5389 64.7801 49.2187 62.3846 49.7992C62.0169 49.8886 61.8287 50.0258 61.7095 50.4067C59.4884 57.5126 57.2485 64.6136 55.0086 71.7146C54.5707 73.1023 53.5241 73.9082 52.1814 73.9131C50.8212 73.918 49.7671 73.1096 49.3217 71.6963C47.0767 64.5806 44.8331 57.4648 42.6045 50.3454C42.5016 50.0184 42.3447 49.8959 42.0222 49.8212C39.2101 49.1636 38.195 45.9143 40.1224 43.8115C40.2629 43.6584 40.3533 43.384 40.3345 43.1783C39.7598 36.9529 44.1868 31.4526 50.5113 30.5549C56.995 29.6339 63.0459 34.1128 63.928 40.4912C63.9996 41.0044 64.0222 41.5249 64.0723 42.0931L64.0736 42.0919ZM62.7548 42.0037C62.7058 41.4894 62.6732 40.9554 62.6017 40.4275C61.8324 34.8011 55.9723 30.7325 50.2666 31.858C44.5608 32.9835 40.9732 37.8727 41.7261 43.504C41.7788 43.8996 41.6947 44.1948 41.3572 44.4655C40.2717 45.3375 40.1387 46.7839 41.0171 47.809C41.8641 48.7986 43.3335 48.9113 44.424 48.0711C44.9435 47.6694 45.2547 47.7135 45.6236 48.2413C46.4581 49.4367 47.8108 49.7882 49.1146 49.117C49.4835 48.9272 49.7709 48.9578 50.111 49.1758C51.4825 50.0539 52.8704 50.0503 54.2381 49.1685C54.582 48.9468 54.8693 48.937 55.2345 49.1256C56.5107 49.7833 57.8809 49.4318 58.6941 48.2683C59.0831 47.711 59.3855 47.6645 59.9226 48.0809C61.0005 48.9162 62.4812 48.7925 63.3257 47.7955C64.184 46.7839 64.0573 45.3387 62.9969 44.4838C62.6456 44.2009 62.5502 43.8984 62.6092 43.4845C62.677 43.0019 62.7058 42.5132 62.7535 42.005L62.7548 42.0037ZM55.035 66.5034C54.0963 65.8898 53.2067 65.3056 52.3107 64.7287C52.248 64.6883 52.1187 64.6724 52.0622 64.7079C51.1537 65.2921 50.2515 65.8861 49.3091 66.5046C50.2302 67.1096 51.0935 67.6828 51.9669 68.2388C52.0597 68.2976 52.2517 68.3136 52.337 68.2597C53.223 67.6975 54.0976 67.117 55.0337 66.5034H55.035ZM55.0325 55.9008C54.0951 55.2848 53.2067 54.6969 52.3107 54.1213C52.2417 54.0772 52.0886 54.0833 52.0171 54.1299C51.1249 54.7043 50.2402 55.2909 49.3129 55.9021C50.2352 56.5071 51.0998 57.0803 51.9757 57.6387C52.066 57.6963 52.2542 57.711 52.3383 57.6571C53.228 57.0925 54.1051 56.5108 55.0325 55.9021V55.9008ZM52.1714 59.324C51.2089 59.9547 50.2779 60.5659 49.3091 61.2015C50.2339 61.8102 51.1123 62.3944 52.002 62.9602C52.0873 63.0141 52.2781 62.9982 52.3697 62.9406C53.2468 62.3821 54.1127 61.809 55.0337 61.204C54.065 60.5671 53.1351 59.9572 52.1714 59.3252V59.324ZM59.0781 53.2481C58.147 52.6381 57.2711 52.0552 56.3827 51.4918C56.2973 51.4379 56.1066 51.4538 56.015 51.5126C55.1391 52.0711 54.2733 52.6455 53.3535 53.2493C54.2783 53.8555 55.168 54.4434 56.0652 55.019C56.1342 55.0631 56.2835 55.0692 56.3513 55.0264C57.2498 54.4507 58.1407 53.8629 59.0781 53.2481ZM45.2673 53.2481C46.2071 53.8653 47.1106 54.4605 48.0191 55.046C48.0756 55.0827 48.2048 55.0705 48.2663 55.0301C49.1635 54.452 50.0545 53.8641 50.9893 53.2517C50.0595 52.6406 49.1849 52.0576 48.2965 51.493C48.2099 51.4379 48.0179 51.4526 47.9263 51.5114C47.0504 52.0699 46.1846 52.6443 45.266 53.2468L45.2673 53.2481ZM46.3351 57.8518C46.5058 58.3956 46.6539 58.8916 46.8208 59.3803C46.8622 59.5016 46.9412 59.6314 47.0404 59.711C47.6945 60.2401 48.3738 60.2719 49.0782 59.8065C49.2338 59.7049 49.3894 59.6032 49.5438 59.5003C50.0106 59.1917 50.4774 58.8831 50.9856 58.5487C50.0545 57.9376 49.1912 57.3644 48.3178 56.8084C48.2287 56.752 48.043 56.7459 47.9551 56.7998C47.4156 57.1317 46.891 57.4869 46.3364 57.8518H46.3351ZM53.3522 58.5524C54.2795 59.1623 55.1567 59.7404 56.0363 60.3148C56.0978 60.3552 56.2108 60.414 56.2409 60.3907C56.6788 60.049 57.3213 59.9388 57.5283 59.3387C57.6676 58.9357 57.8031 58.5291 57.9023 58.1164C57.9311 57.9951 57.8734 57.7869 57.7781 57.7171C57.3426 57.3987 56.8859 57.1035 56.4216 56.8255C56.3199 56.7655 56.1166 56.7557 56.0213 56.8145C55.1454 57.3681 54.2821 57.9413 53.351 58.5512L53.3522 58.5524ZM50.4962 71.0312C50.5376 71.1831 50.564 71.3019 50.6016 71.4183C50.8576 72.2009 51.411 72.6283 52.1651 72.6295C52.9218 72.6295 53.4614 72.1996 53.74 71.4256C53.8479 71.1268 53.7952 70.959 53.5116 70.7998C53.1339 70.5879 52.7926 70.3111 52.4123 70.1029C52.2869 70.0343 52.0509 70.0306 51.9292 70.1029C51.4486 70.3834 50.9919 70.7055 50.4962 71.0325V71.0312ZM55.6373 65.3509C55.9573 64.3417 56.2647 63.3864 56.5546 62.4275C56.5797 62.3442 56.5107 62.185 56.4341 62.136C56.34 62.0747 56.1543 62.0343 56.0752 62.0858C55.1742 62.6553 54.2871 63.2444 53.3522 63.8555C54.1302 64.365 54.8605 64.8426 55.6373 65.3521V65.3509ZM48.7005 65.3558C49.4923 64.8365 50.2151 64.3626 50.9893 63.8555C50.0595 63.2468 49.1711 62.6577 48.2714 62.0882C48.191 62.038 48.0078 62.076 47.9125 62.1348C47.8347 62.1825 47.7544 62.3405 47.7782 62.4201C48.0668 63.3803 48.3755 64.3356 48.6993 65.357L48.7005 65.3558ZM44.5495 52.1678C45.3463 51.6449 46.0804 51.1636 46.7392 50.7312C46.1444 50.3209 45.5546 49.9094 44.9573 49.5102C44.8858 49.4624 44.754 49.444 44.6737 49.4734C44.3851 49.5812 44.1065 49.7147 43.8142 49.8421C44.0538 50.6002 44.2872 51.3399 44.5495 52.1691V52.1678ZM60.5236 49.8372C60.2124 49.7049 59.959 49.5873 59.6967 49.4906C59.6089 49.4587 59.4721 49.4391 59.4068 49.4832C58.7982 49.8911 58.2009 50.3136 57.5999 50.7324C58.2599 51.1636 58.9952 51.6437 59.7858 52.1605C60.0418 51.3558 60.279 50.6051 60.5236 49.8372ZM54.9797 50.632C54.9685 50.5843 54.9572 50.5377 54.9459 50.4899C54.7953 50.5034 54.6221 50.474 54.4954 50.5365C52.9318 51.3019 51.3783 51.2983 49.8173 50.5267C49.7006 50.4691 49.53 50.5193 49.3831 50.5193C49.3781 50.561 49.3744 50.6026 49.3693 50.6443C50.2502 51.2199 51.1286 51.7992 52.0146 52.3675C52.0848 52.4128 52.2342 52.4226 52.3007 52.3809C53.1979 51.8065 54.0876 51.2187 54.9785 50.6345L54.9797 50.632ZM45.5546 54.9933C45.5245 55.0203 45.4944 55.0484 45.4643 55.0754C45.6149 55.553 45.7654 56.0307 45.9323 56.5622C46.3013 56.3221 46.6037 56.1237 46.9475 55.8996C46.4481 55.5751 46.0013 55.2836 45.5546 54.9921V54.9933ZM58.8685 55.0741C58.8359 55.0484 58.8033 55.0227 58.7706 54.9982C58.3264 55.2909 57.8835 55.5836 57.3953 55.9057C57.7517 56.1335 58.0591 56.3295 58.408 56.5524C58.5736 56.0196 58.7217 55.5469 58.8685 55.0741ZM49.6065 68.2486C49.791 68.8218 49.9328 69.2627 50.0884 69.744C50.4096 69.5334 50.6731 69.3607 50.9856 69.1562C50.5238 68.8524 50.1273 68.5903 49.6065 68.2486ZM53.3522 69.1574C53.6797 69.3705 53.9445 69.542 54.2544 69.744C54.4113 69.2419 54.5481 68.8034 54.7175 68.2621C54.2193 68.5891 53.8215 68.85 53.3522 69.1586V69.1574Z" fill="#7FE698"/>
</g>
<defs>
<clipPath id="clip0_2673_976">
<rect width="100" height="100" fill="white"/>
</clipPath>
</defs>
</svg>
