<svg width="21" height="20" viewBox="0 0 21 20" fill="none" xmlns="http://www.w3.org/2000/svg">
<path d="M19.9138 7.50003H17.3793V7.08336C17.3793 6.97286 17.3412 6.86688 17.2733 6.78874C17.2054 6.7106 17.1133 6.6667 17.0172 6.6667H11.2241C11.1281 6.6667 11.036 6.7106 10.9681 6.78874C10.9002 6.86688 10.8621 6.97286 10.8621 7.08336V7.50003H4.34483V2.50004C4.34483 2.05801 4.49741 1.63409 4.76902 1.32153C5.04062 1.00897 5.409 0.833376 5.7931 0.833376C6.13105 0.833184 6.45904 0.964968 6.72344 1.20717C6.98784 1.44938 7.173 1.78767 7.24862 2.16671C7.26783 2.275 7.32363 2.37008 7.40375 2.43103C7.48387 2.49198 7.58176 2.51381 7.67586 2.49171C7.76997 2.4696 7.85259 2.40539 7.90555 2.31318C7.95852 2.22098 7.97748 2.10834 7.95828 2.00004C7.85184 1.43123 7.57851 0.921927 7.18421 0.557712C6.78992 0.193498 6.2987 -0.00342311 5.7931 4.50391e-05C5.21694 4.50391e-05 4.66438 0.263437 4.25697 0.732277C3.84957 1.20112 3.62069 1.837 3.62069 2.50004V7.50003H1.08621C0.798127 7.50003 0.521846 7.63172 0.318143 7.86614C0.114439 8.10056 0 8.41851 0 8.75003V12.0834C0.0014374 13.5194 0.497803 14.8962 1.38021 15.9117C2.26261 16.9271 3.45899 17.4984 4.7069 17.5H5.06897V19.5833C5.06897 19.6938 5.10711 19.7998 5.17501 19.878C5.24291 19.9561 5.33501 20 5.43103 20C5.52706 20 5.61915 19.9561 5.68706 19.878C5.75496 19.7998 5.7931 19.6938 5.7931 19.5833V17.5H15.2069V19.5833C15.2069 19.6938 15.245 19.7998 15.3129 19.878C15.3808 19.9561 15.4729 20 15.569 20C15.665 20 15.7571 19.9561 15.825 19.878C15.8929 19.7998 15.931 19.6938 15.931 19.5833V17.5H16.2931C17.541 17.4984 18.7374 16.9271 19.6198 15.9117C20.5022 14.8962 20.9986 13.5194 21 12.0834V8.75003C21 8.41851 20.8856 8.10056 20.6819 7.86614C20.4782 7.63172 20.2019 7.50003 19.9138 7.50003ZM11.5862 7.50003H16.6552V11.6667H11.5862V7.50003ZM20.2759 12.0834C20.2747 13.2985 19.8547 14.4635 19.108 15.3227C18.3614 16.182 17.349 16.6653 16.2931 16.6667H4.7069C3.65097 16.6653 2.63864 16.182 1.89198 15.3227C1.14533 14.4635 0.725336 13.2985 0.724138 12.0834V8.75003C0.724138 8.63952 0.762284 8.53354 0.830186 8.4554C0.898087 8.37726 0.99018 8.33336 1.08621 8.33336H10.8621V12.0834C10.8621 12.1939 10.9002 12.2998 10.9681 12.378C11.036 12.4561 11.1281 12.5 11.2241 12.5H17.0172C17.1133 12.5 17.2054 12.4561 17.2733 12.378C17.3412 12.2998 17.3793 12.1939 17.3793 12.0834V8.33336H19.9138C20.0098 8.33336 20.1019 8.37726 20.1698 8.4554C20.2377 8.53354 20.2759 8.63952 20.2759 8.75003V12.0834Z" fill="white"/>
</svg>
