<svg width="24" height="22" viewBox="0 0 24 22" fill="none" xmlns="http://www.w3.org/2000/svg">
<path d="M3 2.15789V9.68421H21V2.73684C21 1.81053 21 1 20.0526 1H3.94737C3.18947 1 3 1.77193 3 2.15789Z" stroke="white" stroke-width="0.606061"/>
<path d="M1.47826 15.8873V11.5452C1.47826 10.9249 1.76522 9.68433 2.91304 9.68433C4.06087 9.68433 15.5072 9.68433 21.087 9.68433C21.5652 9.68433 22.5217 10.1806 22.5217 12.1655C22.5217 14.1505 22.5217 15.4738 22.5217 15.8873M1.47826 15.8873H22.5217M1.47826 15.8873H1V18.3685H23V15.8873H22.5217" stroke="white" stroke-width="0.606061"/>
<path d="M3 21V18.3684H5.42424L4.21212 21H3Z" stroke="white" stroke-width="0.606061"/>
<path d="M21.4219 21V18.3684H18.9976L20.2098 21H21.4219Z" stroke="white" stroke-width="0.606061"/>
<path d="M7.30303 6.34204C7.30303 5.95712 7.61507 5.64507 8 5.64507H15.697C16.0819 5.64507 16.3939 5.95712 16.3939 6.34204V8.98638H7.30303V6.34204Z" stroke="white" stroke-width="0.606061"/>
</svg>
